<svg xmlns="http://www.w3.org/2000/svg" viewBox="0 0 87 87" width="87" height="87">
	<defs>
		<clipPath clipPathUnits="userSpaceOnUse" id="cp1">
			<path d="M-1164 -1637L436 -1637L436 4275L-1164 4275Z" />
		</clipPath>
	</defs>
	<style>
		tspan { white-space:pre }
		.shp0 { fill: #5347e8 } 
		.shp1 { fill: #8077ee } 
		.shp2 { fill: #ffffff } 
	</style>
	<g id="Medical Healthcare Landing Page" clip-path="url(#cp1)">
		<g id="My Services">
			<g id="3">
				<g id="Group 2429">
					<g id="icon 1">
						<path id="Path 1230" class="shp0" d="M43.5 0C67.52 0 87 19.48 87 43.5C87 67.52 67.52 87 43.5 87C19.48 87 0 67.52 0 43.5C0 19.48 19.48 0 43.5 0Z" />
						<g id="Insurance">
							<path id="Path 20" fill-rule="evenodd" class="shp1" d="M50.46 63.37L43.73 66.73L37 63.37C29.52 59.62 24.79 51.97 24.79 43.6L24.79 27.26L25.3 27.26C31.19 27.24 36.95 25.48 41.85 22.21L43.73 20.95L45.65 22.22C50.58 25.51 56.37 27.26 62.29 27.26L62.68 27.26L62.68 43.6C62.68 51.97 57.95 59.62 50.46 63.37ZM57.94 43.6L57.94 31.73C52.89 31.1 48.04 29.36 43.73 26.63C39.43 29.35 34.58 31.09 29.53 31.73L29.53 43.6C29.5 50.18 33.23 56.21 39.13 59.13L43.73 61.44L48.34 59.13C54.24 56.21 57.96 50.18 57.94 43.6Z" />
							<path id="Path 21" class="shp1" d="M51.63 40.68L47.68 40.68C47.25 40.68 46.89 40.33 46.89 39.89L46.89 35.95C46.89 35.51 46.54 35.16 46.1 35.16L41.37 35.16C40.93 35.16 40.58 35.51 40.58 35.95L40.58 39.89C40.58 40.33 40.22 40.68 39.79 40.68L35.84 40.68C35.4 40.68 35.05 41.03 35.05 41.47L35.05 46.21C35.05 46.64 35.4 47 35.84 47L39.79 47C40.22 47 40.58 47.35 40.58 47.79L40.58 51.73C40.58 52.17 40.93 52.52 41.37 52.52L46.1 52.52C46.54 52.52 46.89 52.17 46.89 51.73L46.89 47.79C46.89 47.35 47.25 47 47.68 47L51.63 47C52.06 47 52.42 46.64 52.42 46.21L52.42 41.47C52.42 41.03 52.06 40.68 51.63 40.68Z" />
							<path id="Path 22" fill-rule="evenodd" class="shp2" d="M43.73 67.61L36.65 64.07C28.88 60.22 23.97 52.28 24 43.6L24 26.47L25.3 26.47C31.04 26.45 36.64 24.74 41.41 21.55L43.73 20L46.09 21.57C50.88 24.77 56.52 26.48 62.29 26.47L63.47 26.47L63.47 43.6C63.5 52.28 58.59 60.22 50.81 64.07L43.73 67.61ZM25.58 43.6C25.55 51.68 30.12 59.07 37.36 62.66L43.73 65.85L50.11 62.66C57.35 59.07 61.92 51.68 61.89 43.6L61.89 28.05C55.95 27.98 50.15 26.18 45.21 22.88L43.73 21.89L42.29 22.86C37.34 26.18 31.53 27.98 25.58 28.05L25.58 43.6Z" />
							<path id="Path 23" fill-rule="evenodd" class="shp2" d="M58.73 31.03L58.73 43.6C58.75 50.48 54.86 56.78 48.7 59.84L43.73 62.32L38.77 59.84C32.61 56.78 28.71 50.48 28.74 43.6L28.74 31.03L29.43 30.94C34.37 30.33 39.11 28.63 43.31 25.96L43.73 25.69L44.16 25.96C48.36 28.63 53.1 30.33 58.04 30.94L58.73 31.03ZM57.15 32.42C52.4 31.73 47.83 30.08 43.73 27.56C39.64 30.08 35.07 31.73 30.31 32.42L30.31 43.6C30.3 49.88 33.85 55.63 39.48 58.42L43.73 60.55L47.99 58.42C53.62 55.63 57.17 49.89 57.15 43.6L57.15 32.42Z" />
							<path id="Path 24" fill-rule="evenodd" class="shp2" d="M53.21 41.47L53.21 46.21C53.21 47.08 52.5 47.79 51.63 47.79L47.68 47.79L47.68 51.73C47.68 52.6 46.97 53.31 46.1 53.31L41.37 53.31C40.49 53.31 39.79 52.6 39.79 51.73L39.79 47.79L35.84 47.79C34.97 47.79 34.26 47.08 34.26 46.21L34.26 41.47C34.26 40.6 34.97 39.89 35.84 39.89L39.79 39.89L39.79 35.95C39.79 35.07 40.49 34.37 41.37 34.37L46.1 34.37C46.97 34.37 47.68 35.07 47.68 35.95L47.68 39.89L51.63 39.89C52.5 39.89 53.21 40.6 53.21 41.47ZM51.63 41.47L47.68 41.47C46.81 41.47 46.1 40.76 46.1 39.89L46.1 35.95L41.37 35.95L41.37 39.89C41.37 40.76 40.66 41.47 39.79 41.47L35.84 41.47L35.84 46.21L39.79 46.21C40.66 46.21 41.37 46.91 41.37 47.79L41.37 51.73L46.1 51.73L46.1 47.79C46.1 46.91 46.81 46.21 47.68 46.21L51.63 46.21L51.63 41.47Z" />
						</g>
					</g>
				</g>
			</g>
		</g>
	</g>
</svg>