<svg xmlns="http://www.w3.org/2000/svg" viewBox="0 0 87 87" width="87" height="87">
	<defs>
		<clipPath clipPathUnits="userSpaceOnUse" id="cp1">
			<path d="M-757 -2083L843 -2083L843 3829L-757 3829Z" />
		</clipPath>
	</defs>
	<style>
		tspan { white-space:pre }
		.shp0 { fill: #5347e8 } 
		.shp1 { fill: #8077ee } 
		.shp2 { fill: #ffffff } 
	</style>
	<g id="Medical Healthcare Landing Page" clip-path="url(#cp1)">
		<g id="My Services">
			<g id="5">
				<g id="Group 2429">
					<g id="icon 1">
						<path id="Path 1230" class="shp0" d="M43.5 0C67.52 0 87 19.48 87 43.5C87 67.52 67.52 87 43.5 87C19.48 87 0 67.52 0 43.5C0 19.48 19.48 0 43.5 0Z" />
						<g id="Blood test">
							<path id="Path 31" class="shp1" d="M36.7 22.7L24.1 22.7C23.33 22.7 22.7 23.33 22.7 24.1C22.7 24.87 23.33 25.5 24.1 25.5L36.7 25.5C37.48 25.5 38.1 24.87 38.1 24.1C38.1 23.33 37.48 22.7 36.7 22.7Z" />
							<path id="Path 32" class="shp1" d="M24.8 57.71C24.8 60.8 27.31 63.31 30.4 63.31C33.5 63.31 36 60.8 36 57.71L36 55.61L36 51.41L36 47.21L36 43.01L24.8 43.01L24.8 57.71Z" />
							<path id="Path 33" class="shp1" d="M48.61 60.51C48.61 62.06 49.86 63.31 51.41 63.31C52.95 63.31 54.21 62.06 54.21 60.51L54.21 49.31L48.61 49.31L48.61 60.51Z" />
							<path id="Path 34" class="shp1" d="M51.41 26.9C51.41 26.9 45.11 33.92 45.11 37.41C45.11 40.89 47.93 43.71 51.41 43.71C54.89 43.71 57.71 40.89 57.71 37.41C57.71 33.92 51.41 26.9 51.41 26.9Z" />
							<path id="Path 35" class="shp1" d="M47.25 45.74L47.21 45.74L47.21 49.31L55.61 49.31L55.61 45.74L55.57 45.74C52.89 46.76 49.93 46.76 47.25 45.74L47.25 45.74Z" />
							<g id="Group 79">
								<path id="Path 36" fill-rule="evenodd" class="shp2" d="M38.8 24.1C38.8 25.26 37.86 26.2 36.7 26.2L36.7 57.71C36.7 61.19 33.88 64.01 30.4 64.01C26.92 64.01 24.1 61.19 24.1 57.71L24.1 26.2C22.94 26.2 22 25.26 22 24.1C22 22.94 22.94 22 24.1 22L36.7 22C37.86 22 38.8 22.94 38.8 24.1ZM35.3 26.2L25.5 26.2L25.5 42.31L30.4 42.31L30.4 43.71L25.5 43.71L25.5 57.71C25.5 60.42 27.7 62.61 30.4 62.61C33.11 62.61 35.3 60.42 35.3 57.71L35.3 56.31L31.8 56.31L31.8 54.91L35.3 54.91L35.3 52.11L31.8 52.11L31.8 50.71L35.3 50.71L35.3 47.91L31.8 47.91L31.8 46.51L35.3 46.51L35.3 43.71L31.8 43.71L31.8 42.31L35.3 42.31L35.3 39.51L31.8 39.51L31.8 38.11L35.3 38.11L35.3 34.6L31.8 34.6L31.8 33.2L35.3 33.2L35.3 26.2ZM37.4 24.1C37.4 23.71 37.09 23.4 36.7 23.4L24.1 23.4C23.71 23.4 23.4 23.71 23.4 24.1C23.4 24.49 23.71 24.8 24.1 24.8L36.7 24.8C37.09 24.8 37.4 24.49 37.4 24.1Z" />
								<path id="Path 37" fill-rule="evenodd" class="shp2" d="M64.01 34.6C64.01 39.67 60.97 44.24 56.31 46.22L56.31 50.01L54.91 50.01L54.91 60.51C54.91 62.45 53.34 64.01 51.41 64.01C49.47 64.01 47.91 62.45 47.91 60.51L47.91 50.01L46.51 50.01L46.51 46.22C40.69 43.76 37.59 37.38 39.25 31.29C40.91 25.2 46.82 21.27 53.08 22.11C59.34 22.95 64.01 28.29 64.01 34.6ZM53.51 50.01L49.31 50.01L49.31 60.51C49.31 61.67 50.25 62.61 51.41 62.61C52.57 62.61 53.51 61.67 53.51 60.51L53.51 50.01ZM54.91 46.7C52.62 47.38 50.19 47.38 47.91 46.7L47.91 48.61L54.91 48.61L54.91 46.7ZM62.61 34.6C62.61 28.42 57.6 23.4 51.41 23.4C45.22 23.4 40.2 28.42 40.2 34.6C40.2 40.79 45.22 45.81 51.41 45.81C57.59 45.8 62.6 40.79 62.61 34.6Z" />
								<path id="Path 38" class="shp2" d="M56.45 26.2L55.73 27.4C58.25 28.93 59.8 31.66 59.81 34.6L61.21 34.6C61.2 31.17 59.39 27.98 56.45 26.2L56.45 26.2Z" />
								<path id="Path 39" class="shp2" d="M55.18 25.56C54.69 25.35 54.18 25.19 53.67 25.07L53.35 26.43C53.79 26.53 54.22 26.67 54.64 26.85L55.18 25.56Z" />
								<path id="Path 40" fill-rule="evenodd" class="shp2" d="M52.11 33.2C52.94 33.2 53.69 33.69 54.03 34.45C54.37 35.21 54.22 36.09 53.66 36.71C54.22 37.32 54.37 38.2 54.03 38.96C53.69 39.72 52.94 40.21 52.11 40.21L49.31 40.21L49.31 33.2L52.11 33.2ZM50.71 36L52.11 36C52.5 36 52.81 35.69 52.81 35.3C52.81 34.92 52.5 34.6 52.11 34.6L50.71 34.6L50.71 36ZM52.81 38.11C52.81 37.72 52.5 37.41 52.11 37.41L50.71 37.41L50.71 38.81L52.11 38.81C52.5 38.81 52.81 38.49 52.81 38.11Z" />
								<path id="Path 41" fill-rule="evenodd" class="shp2" d="M51.41 44.41C47.54 44.4 44.41 41.27 44.41 37.41C44.41 33.76 50.22 27.17 50.89 26.43L51.41 25.85L51.93 26.43C52.59 27.17 58.41 33.76 58.41 37.41C58.41 41.27 55.27 44.4 51.41 44.41ZM45.81 37.41C45.81 40.5 48.31 43.01 51.41 43.01C54.5 43.01 57.01 40.5 57.01 37.41C57.01 35.01 53.35 30.24 51.41 27.97C49.47 30.24 45.81 35.01 45.81 37.41Z" />
							</g>
						</g>
					</g>
				</g>
			</g>
		</g>
	</g>
</svg>