<svg xmlns="http://www.w3.org/2000/svg" viewBox="0 0 87 87" width="87" height="87">
	<defs>
		<clipPath clipPathUnits="userSpaceOnUse" id="cp1">
			<path d="M-349 -1637L1251 -1637L1251 4275L-349 4275Z" />
		</clipPath>
	</defs>
	<style>
		tspan { white-space:pre }
		.shp0 { fill: #5347e8 } 
		.shp1 { fill: #8077ee } 
		.shp2 { fill: #ffffff } 
		.shp3 { fill: #fafbfd } 
		.shp4 { fill: #fcfdfe } 
	</style>
	<g id="Medical Healthcare Landing Page" clip-path="url(#cp1)">
		<g id="My Services">
			<g id="1">
				<g id="Group 2429">
					<g id="icon 1">
						<path id="Path 1230" class="shp0" d="M43.5 0C67.52 0 87 19.48 87 43.5C87 67.52 67.52 87 43.5 87C19.48 87 0 67.52 0 43.5C0 19.48 19.48 0 43.5 0Z" />
						<g id="001-medical">
							<path id="Path 14" class="shp1" d="M31.33 46.47C26.56 46.47 22.7 50.33 22.7 55.1C22.7 59.87 26.56 63.73 31.33 63.73L43.55 63.73L43.55 46.47L31.33 46.47Z" />
							<path id="Path 15" class="shp1" d="M32.4 42.54C31.29 43.65 30.51 45.04 30.13 46.56L30.17 46.56C30.56 46.5 30.94 46.47 31.33 46.47L53.17 46.47L53.4 46.25L41.05 33.9L32.4 42.54Z" />
							<g id="Group 77">
								<path id="Path 16" fill-rule="evenodd" class="shp2" d="M55.78 45.75C60.94 45.75 65.13 49.94 65.13 55.1C65.13 60.26 60.94 64.45 55.78 64.45L31.33 64.45C26.52 64.44 22.5 60.78 22.04 55.99C21.59 51.2 24.84 46.84 29.56 45.92C30.01 44.45 30.81 43.12 31.89 42.03L49.19 24.74C52.84 21.09 58.76 21.09 62.41 24.74C66.06 28.39 66.06 34.31 62.41 37.96L54.62 45.75L55.78 45.75ZM42.06 33.89L53.26 45.09L61.39 36.94C64.48 33.85 64.48 28.85 61.39 25.76C58.3 22.67 53.29 22.67 50.2 25.76L42.06 33.89ZM32.91 43.05C32.14 43.82 31.54 44.74 31.14 45.76C31.2 45.76 31.26 45.75 31.33 45.75L51.89 45.75L45.07 38.93L41.05 34.91L32.91 43.05ZM23.42 55.1C23.42 59.47 26.96 63 31.33 63.01L42.83 63.01L42.83 47.19L31.33 47.19C26.96 47.19 23.42 50.73 23.42 55.1ZM63.69 55.1C63.69 50.73 60.15 47.19 55.78 47.19L44.27 47.19L44.27 63.01L55.78 63.01C60.15 63.01 63.69 59.47 63.69 55.1Z" />
								<path id="Path 17" class="shp3" d="M26.29 55.1L24.86 55.1C24.86 58.67 27.76 61.57 31.33 61.57L31.33 60.13C28.55 60.13 26.3 57.88 26.29 55.1L26.29 55.1Z" />
								<path id="Path 18" class="shp2" d="M55.78 48.63L55.78 50.06C58.56 50.07 60.81 52.32 60.81 55.1L62.25 55.1C62.25 51.53 59.35 48.63 55.78 48.63L55.78 48.63Z" />
								<path id="Path 19" class="shp4" d="M55.8 26.32C57.13 26.31 58.41 26.84 59.35 27.79L60.37 26.77C57.84 24.25 53.75 24.25 51.22 26.77L52.24 27.79C53.18 26.84 54.46 26.31 55.8 26.32L55.8 26.32Z" />
							</g>
						</g>
					</g>
				</g>
			</g>
		</g>
	</g>
</svg>