<svg xmlns="http://www.w3.org/2000/svg" viewBox="0 0 87 87" width="87" height="87">
	<defs>
		<clipPath clipPathUnits="userSpaceOnUse" id="cp1">
			<path d="M-349 -2083L1251 -2083L1251 3829L-349 3829Z" />
		</clipPath>
	</defs>
	<style>
		tspan { white-space:pre }
		.shp0 { fill: #5347e8 } 
		.shp1 { fill: #ffffff } 
	</style>
	<g id="Medical Healthcare Landing Page" clip-path="url(#cp1)">
		<g id="My Services">
			<g id="4">
				<g id="Group 2429">
					<g id="icon 1">
						<path id="Path 1230" class="shp0" d="M43.5 0C67.52 0 87 19.48 87 43.5C87 67.52 67.52 87 43.5 87C19.48 87 0 67.52 0 43.5C0 19.48 19.48 0 43.5 0Z" />
						<g id="004-healthcare">
							<g id="Group 1927">
								<g id="Group 1926">
									<path id="Path 1381" fill-rule="evenodd" class="shp1" d="M29.99 41.86C29.99 43.02 29.05 43.96 27.89 43.96L25.1 43.96C24.21 43.96 23.42 43.4 23.12 42.56C22.73 41.47 23.31 40.27 24.4 39.88L24.4 25.1C24.4 23.94 25.34 23 26.49 23C27.65 23 28.59 23.94 28.59 25.1L28.59 39.88C29.43 40.18 29.99 40.97 29.99 41.86ZM28.59 41.86C28.59 41.47 28.28 41.16 27.89 41.16L27.19 41.16L27.19 25.1C27.19 24.71 26.88 24.4 26.49 24.4C26.11 24.4 25.8 24.71 25.8 25.1L25.8 41.16L25.1 41.16C24.71 41.16 24.4 41.47 24.4 41.86C24.4 42.25 24.71 42.56 25.1 42.56L27.89 42.56C28.28 42.56 28.59 42.25 28.59 41.86Z" />
								</g>
							</g>
							<g id="Group 1929">
								<g id="Group 1928">
									<path id="Path 1382" fill-rule="evenodd" class="shp1" d="M64.91 41.86C64.91 43.02 63.98 43.96 62.82 43.96L60.02 43.96C59.13 43.96 58.34 43.4 58.05 42.56C57.66 41.47 58.23 40.27 59.33 39.88L59.33 25.1C59.33 23.94 60.26 23 61.42 23C62.58 23 63.52 23.94 63.52 25.1L63.52 39.88C64.35 40.18 64.92 40.97 64.91 41.86ZM63.52 41.86C63.52 41.47 63.2 41.16 62.82 41.16L62.12 41.16L62.12 25.1C62.12 24.71 61.81 24.4 61.42 24.4C61.04 24.4 60.72 24.71 60.72 25.1L60.72 41.16L60.02 41.16C59.64 41.16 59.33 41.47 59.33 41.86C59.33 42.25 59.64 42.56 60.02 42.56L62.82 42.56C63.2 42.56 63.52 42.25 63.52 41.86Z" />
								</g>
							</g>
							<g id="Group 1931">
								<g id="Group 1930">
									<path id="Path 1383" fill-rule="evenodd" class="shp1" d="M28.59 49.42L28.59 62.82C28.59 63.97 27.65 64.91 26.49 64.91C25.34 64.91 24.4 63.97 24.4 62.82L24.4 49.42C23.56 49.13 23 48.34 23 47.45C23 46.29 23.94 45.35 25.1 45.35L27.89 45.35C28.78 45.35 29.57 45.91 29.87 46.75C30.25 47.84 29.68 49.04 28.59 49.42ZM28.59 47.45C28.59 47.06 28.28 46.75 27.89 46.75L25.1 46.75C24.71 46.75 24.4 47.06 24.4 47.45C24.4 47.83 24.71 48.15 25.1 48.15L25.8 48.15L25.8 62.82C25.8 63.2 26.11 63.51 26.49 63.51C26.88 63.51 27.19 63.2 27.19 62.82L27.19 48.15L27.89 48.15C28.28 48.15 28.59 47.83 28.59 47.45Z" />
								</g>
							</g>
							<g id="Group 1933">
								<g id="Group 1932">
									<path id="Path 1384" fill-rule="evenodd" class="shp1" d="M63.52 49.42L63.52 62.82C63.52 63.97 62.58 64.91 61.42 64.91C60.26 64.91 59.33 63.97 59.33 62.82L59.33 49.42C58.49 49.13 57.93 48.34 57.93 47.45C57.93 46.29 58.87 45.35 60.02 45.35L62.82 45.35C63.71 45.35 64.5 45.91 64.8 46.75C65.18 47.84 64.61 49.04 63.52 49.42ZM63.52 47.45C63.52 47.06 63.2 46.75 62.82 46.75L60.02 46.75C59.64 46.75 59.33 47.06 59.33 47.45C59.33 47.83 59.64 48.15 60.02 48.15L60.72 48.15L60.72 62.82C60.72 63.2 61.04 63.51 61.42 63.51C61.81 63.51 62.12 63.2 62.12 62.82L62.12 48.15L62.82 48.15C63.2 48.15 63.52 47.83 63.52 47.45Z" />
								</g>
							</g>
							<g id="Group 1935">
								<g id="Group 1934">
									<path id="Path 1385" fill-rule="evenodd" class="shp1" d="M56.53 36.27C56.53 37.43 55.59 38.37 54.44 38.37L33.48 38.37C32.32 38.37 31.38 37.43 31.38 36.27C31.38 35.11 32.32 34.18 33.48 34.18L40.46 34.18C40.85 34.18 41.16 33.86 41.16 33.48C41.16 33.09 40.85 32.78 40.46 32.78L32.71 32.78C32.64 32.78 32.56 32.77 32.49 32.74C32.12 32.62 31.92 32.23 32.04 31.86C32.39 30.82 32.87 29.83 33.46 28.91C33.59 28.71 33.81 28.59 34.05 28.59L40.46 28.59C40.85 28.59 41.16 28.28 41.16 27.89C41.16 27.5 40.85 27.19 40.46 27.19L36.53 27.19C36.32 27.19 36.12 27.1 35.99 26.94C35.74 26.64 35.79 26.2 36.08 25.95C38.4 24.05 41.31 23 44.31 23C47.78 23 49.97 24.42 51.83 25.95C51.99 26.09 52.09 26.28 52.09 26.49C52.09 26.88 51.77 27.19 51.39 27.19L47.45 27.19C47.06 27.19 46.75 27.5 46.75 27.89C46.75 28.28 47.06 28.59 47.45 28.59L53.87 28.59C54.1 28.59 54.32 28.71 54.45 28.91C55.05 29.83 55.52 30.82 55.87 31.86C55.89 31.93 55.9 32.01 55.9 32.08C55.9 32.47 55.59 32.78 55.2 32.78L47.45 32.78C47.06 32.78 46.75 33.09 46.75 33.48C46.75 33.86 47.06 34.18 47.45 34.18L54.44 34.18C55.59 34.18 56.53 35.11 56.53 36.27ZM55.13 36.27C55.13 35.89 54.82 35.57 54.44 35.57L47.45 35.57C46.29 35.57 45.35 34.64 45.35 33.48C45.35 32.32 46.29 31.38 47.45 31.38L54.2 31.38C53.99 30.9 53.75 30.43 53.48 29.99L47.45 29.99C46.29 29.99 45.35 29.05 45.35 27.89C45.35 26.73 46.29 25.79 47.45 25.79L49.25 25.79C47.78 24.85 46.06 24.37 44.31 24.4C42.39 24.4 40.5 24.88 38.81 25.79L40.46 25.79C41.62 25.79 42.56 26.73 42.56 27.89C42.56 29.05 41.62 29.99 40.46 29.99L34.44 29.99C34.17 30.43 33.93 30.9 33.72 31.38L40.46 31.38C41.62 31.38 42.56 32.32 42.56 33.48C42.56 34.64 41.62 35.57 40.46 35.57L33.48 35.57C33.09 35.57 32.78 35.89 32.78 36.27C32.78 36.66 33.09 36.97 33.48 36.97L54.44 36.97C54.82 36.97 55.13 36.66 55.13 36.27Z" />
								</g>
							</g>
							<g id="Group 1937">
								<g id="Group 1936">
									<path id="Path 1386" fill-rule="evenodd" class="shp1" d="M41.16 41.86C41.16 43.02 40.23 43.96 39.07 43.96L33.48 43.96C32.32 43.96 31.38 43.02 31.38 41.86C31.38 40.7 32.32 39.76 33.48 39.76L39.07 39.76C40.23 39.76 41.16 40.7 41.16 41.86ZM39.77 41.86C39.77 41.47 39.45 41.16 39.07 41.16L33.48 41.16C33.09 41.16 32.78 41.47 32.78 41.86C32.78 42.25 33.09 42.56 33.48 42.56L39.07 42.56C39.45 42.56 39.77 42.25 39.77 41.86Z" />
								</g>
							</g>
							<g id="Group 1939">
								<g id="Group 1938">
									<path id="Path 1387" fill-rule="evenodd" class="shp1" d="M56.53 41.86C56.53 43.02 55.59 43.96 54.44 43.96L48.85 43.96C47.69 43.96 46.75 43.02 46.75 41.86C46.75 40.7 47.69 39.76 48.85 39.76L54.44 39.76C55.59 39.76 56.53 40.7 56.53 41.86ZM55.13 41.86C55.13 41.47 54.82 41.16 54.44 41.16L48.85 41.16C48.46 41.16 48.15 41.47 48.15 41.86C48.15 42.25 48.46 42.56 48.85 42.56L54.44 42.56C54.82 42.56 55.13 42.25 55.13 41.86Z" />
								</g>
							</g>
							<g id="Group 1941">
								<g id="Group 1940">
									<path id="Path 1388" fill-rule="evenodd" class="shp1" d="M41.16 47.45C41.16 48.61 40.23 49.54 39.07 49.54L33.48 49.54C32.32 49.54 31.38 48.61 31.38 47.45C31.38 46.29 32.32 45.35 33.48 45.35L39.07 45.35C40.23 45.35 41.16 46.29 41.16 47.45ZM39.77 47.45C39.77 47.06 39.45 46.75 39.07 46.75L33.48 46.75C33.09 46.75 32.78 47.06 32.78 47.45C32.78 47.83 33.09 48.15 33.48 48.15L39.07 48.15C39.45 48.15 39.77 47.83 39.77 47.45Z" />
								</g>
							</g>
							<g id="Group 1943">
								<g id="Group 1942">
									<path id="Path 1389" fill-rule="evenodd" class="shp1" d="M56.53 47.45C56.53 48.61 55.59 49.54 54.44 49.54L48.85 49.54C47.69 49.54 46.75 48.61 46.75 47.45C46.75 46.29 47.69 45.35 48.85 45.35L54.44 45.35C55.59 45.35 56.53 46.29 56.53 47.45ZM55.13 47.45C55.13 47.06 54.82 46.75 54.44 46.75L48.85 46.75C48.46 46.75 48.15 47.06 48.15 47.45C48.15 47.83 48.46 48.15 48.85 48.15L54.44 48.15C54.82 48.15 55.13 47.83 55.13 47.45Z" />
								</g>
							</g>
							<g id="Group 1945">
								<g id="Group 1944">
									<path id="Path 1390" class="shp1" d="M44.66 39.76L43.26 39.76C42.87 39.76 42.56 40.08 42.56 40.46C42.56 40.85 42.87 41.16 43.26 41.16L44.66 41.16C45.04 41.16 45.35 40.85 45.35 40.46C45.35 40.08 45.04 39.76 44.66 39.76Z" />
								</g>
							</g>
							<g id="Group 1947">
								<g id="Group 1946">
									<path id="Path 1391" class="shp1" d="M44.66 42.56L43.26 42.56C42.87 42.56 42.56 42.87 42.56 43.26C42.56 43.64 42.87 43.96 43.26 43.96L44.66 43.96C45.04 43.96 45.35 43.64 45.35 43.26C45.35 42.87 45.04 42.56 44.66 42.56Z" />
								</g>
							</g>
							<g id="Group 1949">
								<g id="Group 1948">
									<path id="Path 1392" class="shp1" d="M44.66 45.35L43.26 45.35C42.87 45.35 42.56 45.67 42.56 46.05C42.56 46.44 42.87 46.75 43.26 46.75L44.66 46.75C45.04 46.75 45.35 46.44 45.35 46.05C45.35 45.67 45.04 45.35 44.66 45.35Z" />
								</g>
							</g>
							<g id="Group 1951">
								<g id="Group 1950">
									<path id="Path 1393" class="shp1" d="M44.66 48.15L43.26 48.15C42.87 48.15 42.56 48.46 42.56 48.85C42.56 49.23 42.87 49.54 43.26 49.54L44.66 49.54C45.04 49.54 45.35 49.23 45.35 48.85C45.35 48.46 45.04 48.15 44.66 48.15Z" />
								</g>
							</g>
							<g id="Group 1953">
								<g id="Group 1952">
									<path id="Path 1394" class="shp1" d="M44.66 50.94L43.26 50.94C42.87 50.94 42.56 51.25 42.56 51.64C42.56 52.03 42.87 52.34 43.26 52.34L44.66 52.34C45.04 52.34 45.35 52.03 45.35 51.64C45.35 51.25 45.04 50.94 44.66 50.94Z" />
								</g>
							</g>
							<g id="Group 1955">
								<g id="Group 1954">
									<path id="Path 1395" fill-rule="evenodd" class="shp1" d="M56.53 59.32C56.53 62.41 54.03 64.91 50.94 64.91L47.8 64.91C46.45 64.91 45.35 63.82 45.35 62.47C45.35 61.89 44.89 61.42 44.31 61.42L43.61 61.42C43.03 61.42 42.56 61.89 42.56 62.47C42.56 63.82 41.47 64.91 40.12 64.91L36.97 64.91C33.89 64.91 31.38 62.41 31.38 59.32C31.38 56.24 33.89 53.74 36.97 53.74L40.12 53.74C41.47 53.74 42.56 54.83 42.56 56.18C42.56 56.76 43.03 57.23 43.61 57.23L44.31 57.23C44.89 57.23 45.35 56.76 45.35 56.18C45.35 54.83 46.45 53.74 47.8 53.74L50.94 53.74C54.03 53.74 56.53 56.24 56.53 59.32ZM55.13 59.32C55.13 57.01 53.26 55.13 50.94 55.13L47.8 55.13C47.22 55.13 46.75 55.6 46.75 56.18C46.75 57.53 45.66 58.62 44.31 58.62L43.61 58.62C42.26 58.62 41.16 57.53 41.16 56.18C41.16 55.6 40.69 55.13 40.12 55.13L36.97 55.13C34.66 55.13 32.78 57.01 32.78 59.32C32.78 61.64 34.66 63.51 36.97 63.51L40.12 63.51C40.69 63.51 41.16 63.05 41.16 62.47C41.16 61.12 42.26 60.02 43.61 60.02L44.31 60.02C45.66 60.02 46.75 61.12 46.75 62.47C46.75 63.05 47.22 63.51 47.8 63.51L50.94 63.51C53.26 63.51 55.13 61.64 55.13 59.32Z" />
								</g>
							</g>
							<g id="Group 1957">
								<g id="Group 1956">
									<path id="Path 1396" fill-rule="evenodd" class="shp1" d="M39.77 59.32C39.77 60.87 38.52 62.12 36.97 62.12C35.43 62.12 34.18 60.87 34.18 59.32C34.18 57.78 35.43 56.53 36.97 56.53C38.52 56.53 39.77 57.78 39.77 59.32ZM38.37 59.32C38.37 58.55 37.74 57.93 36.97 57.93C36.2 57.93 35.58 58.55 35.58 59.32C35.58 60.1 36.2 60.72 36.97 60.72C37.74 60.72 38.37 60.1 38.37 59.32Z" />
								</g>
							</g>
							<g id="Group 1959">
								<g id="Group 1958">
									<path id="Path 1397" fill-rule="evenodd" class="shp1" d="M53.74 59.32C53.74 60.87 52.49 62.12 50.94 62.12C49.4 62.12 48.15 60.87 48.15 59.32C48.15 57.78 49.4 56.53 50.94 56.53C52.49 56.53 53.74 57.78 53.74 59.32ZM52.34 59.32C52.34 58.55 51.71 57.93 50.94 57.93C50.17 57.93 49.55 58.55 49.55 59.32C49.55 60.1 50.17 60.72 50.94 60.72C51.71 60.72 52.34 60.1 52.34 59.32Z" />
								</g>
							</g>
						</g>
					</g>
				</g>
			</g>
		</g>
	</g>
</svg>