<svg xmlns="http://www.w3.org/2000/svg" viewBox="0 0 939 507" width="939" height="507">
	<defs>
		<clipPath clipPathUnits="userSpaceOnUse" id="cp1">
			<path d="M-331 -623L1269 -623L1269 5289L-331 5289Z" />
		</clipPath>
	</defs>
	<style>
		tspan { white-space:pre }
		.shp0 { fill: #d0d6ec } 
		.shp1 { fill: #e7b2b6 } 
		.shp2 { fill: #221e50 } 
		.shp3 { fill: #2b295e } 
		.shp4 { fill: #333383 } 
		.shp5 { fill: #555ca5 } 
		.shp6 { fill: #7178c2 } 
		.shp7 { fill: #ada9d5 } 
		.shp8 { fill: #d98789 } 
		.shp9 { fill: #dfe5f4 } 
		.shp10 { opacity: 0.4;fill: #555ca5 } 
		.shp11 { opacity: 0.2;fill: #555ca5 } 
		.shp12 { fill: #ecc365 } 
		.shp13 { fill: #313381 } 
		.shp14 { fill: #323381 } 
		.shp15 { fill: #d19e9f } 
		.shp16 { fill: #ff6f00 } 
		.shp17 { fill: #333381 } 
		.shp18 { fill: #f0d170 } 
		.shp19 { opacity: 0.2;fill: #dc8d39 } 
	</style>
	<g id="Medical Healthcare Landing Page" clip-path="url(#cp1)">
		<g id="Header">
			<g id="Illustration">
				<g id="scientist 3">
					<path id="Path 16" class="shp0" d="M761.27 102.75L737.71 120.33C737.71 120.33 767.85 306.5 772.48 355.41L894.29 351.67C894.29 351.67 846.07 97.22 761.27 102.75Z" />
					<path id="Path 17" class="shp0" d="M754.62 100.43L753.37 140.07C753.37 140.07 749.42 213.59 744.59 220.61C742.29 223.96 732.74 231.5 723.35 238.49C713.01 246.18 702.89 253.21 702.89 253.21L683.6 253.21L709.63 220.63L719.11 208.76C719.11 208.76 723.36 137.92 724.12 129.31C725.49 113.73 754.62 100.43 754.62 100.43Z" />
					<path id="Path 18" class="shp1" d="M723.35 238.49C713.01 246.18 702.89 253.21 702.89 253.21L683.6 253.21L709.63 220.63C712.54 223.7 720.78 232.68 723.35 238.49Z" />
					<g id="Group 78">
						<path id="Path 19" class="shp2" d="M817.45 491.6L813.02 505.84L769.09 505.84C769.09 505.84 780.33 486.63 817.45 491.6Z" />
						<path id="Path 20" class="shp2" d="M895.48 491.91L891.56 506.15L852.66 506.15C852.66 506.15 862.62 486.94 895.48 491.91Z" />
						<path id="Path 21" class="shp3" d="M795.06 227L879.52 227C879.52 227 851.12 367.98 818.16 492.79L778.39 493.95L795.06 227Z" />
						<path id="Path 22" class="shp4" d="M892.45 225.63C892.45 225.63 910.19 331.6 897.65 493.95L863.6 493.95L842.28 279.94L842.28 279.94C841.65 273.69 832.03 268.22 832.03 268.22L832.03 231.56L892.45 225.63Z" />
						<g id="Group 77">
							<g id="Group 76">
								<path id="Path 23" class="shp3" d="M889.65 464.87C886.56 444.5 884 420.34 882.6 395.12C882.38 391.27 882.19 387.3 882.01 383.34C881.82 378.96 881.65 374.53 881.51 370.16C881.46 368.66 881.88 366.93 882.27 365.25C882.65 363.69 883.03 362.08 883 360.79C882.58 344.19 882.92 328.99 883.22 315.58C883.3 312.07 883.38 308.62 883.44 305.25C884 274.76 884.22 257.48 884.21 257.31L884.21 257.31C884.22 257.48 884.97 274.67 884.41 305.2C884.35 308.58 884.27 312.02 884.2 315.54C883.9 328.94 883.56 344.12 883.97 360.69C884 362.14 883.6 363.83 883.21 365.46C882.83 367.06 882.44 368.72 882.48 370.06C882.62 374.42 882.79 378.85 882.98 383.22C883.16 387.18 883.35 391.14 883.57 394.99C884.97 420.17 886.84 444.55 889.92 464.88L889.65 464.87Z" />
							</g>
						</g>
					</g>
					<path id="Path 24" class="shp5" d="M754.62 100.43C769.31 87.31 793.09 79.45 815.48 76.86C841.05 73.89 904.06 205.01 879.52 221.49C851.54 240.28 795.06 227 795.06 227C795.06 227 766.63 190.86 758.89 174.46C753.24 162.49 754.62 100.43 754.62 100.43Z" />
					<g id="Group 79">
						<path id="Path 25" class="shp6" d="M713.86 76.85L680.23 95.31L688.02 109.87L721.66 90.79L713.86 76.85Z" />
						<path id="Path 26" class="shp7" d="M724.12 101.25L716.33 87.31L686.55 103.64L675.86 83L637.41 101.99L653.38 138.45C669.28 139.87 696.02 121.9 696.02 121.9L694.13 118.26L724.12 101.25Z" />
						<path id="Path 27" class="shp0" d="M656.29 145.09L656.16 144.8L653.38 138.45L637.41 101.99L636.1 98.99L588.75 119.73L588.84 119.94L598.12 141.12C598.24 141.4 598.38 141.69 598.51 141.98C597.44 142.91 595.93 144.25 594.2 145.81C587.28 152.07 576.85 161.76 576.85 161.76L576.95 161.87L584.68 170.49L605.13 150.83C605.21 150.9 605.29 150.97 605.36 151.04L605.37 151.04C601.68 159.4 595.34 174.51 595.34 174.51L606.35 178.53L615.11 156.63C615.62 156.8 616.14 156.96 616.66 157.1C617.1 166.14 617.77 177.36 617.77 177.36L629.52 177.36L628.03 157.81C630.53 157.46 633.02 156.76 635.44 155.7L642.74 152.51C651.2 157.5 663.45 167.52 667.01 184.94C667.23 186.03 667.42 187.15 667.57 188.3L563.13 188.3C560.65 188.3 558.61 190.33 558.61 192.81L558.61 192.81C558.61 195.29 560.65 197.32 563.13 197.32L667.97 197.32C667.9 199.15 667.75 201.04 667.49 202.99C665.9 215.26 660.45 230.03 649.05 247.7L692.12 247.7C692.12 247.7 694.57 237.65 695.52 223.76C697.36 197 693.66 156 656.29 145.09Z" />
					</g>
					<path id="Rectangle 9" class="shp4" d="M630.3 247.7L706.22 247.7L706.22 251.33L630.3 251.33L630.3 247.7Z" />
					<path id="Path 28" class="shp8" d="M748.31 82.97C748.31 82.97 752.47 94.53 755.56 103.02C757.26 107.7 762.37 110.2 767.12 108.66L771.63 107.19C776.41 105.64 780.3 102.12 782.31 97.51L786.42 88.11C786.42 88.11 774.43 79.63 766.99 61.81L748.31 82.97Z" />
					<path id="Path 29" class="shp1" d="M746.86 86C746.86 86 774.74 73.5 766.69 56.26C758.65 39.03 756.82 25.8 738.68 33.05C720.55 40.3 720.18 48.48 721.47 54.89C722.76 61.29 739.41 88.8 746.86 86Z" />
					<path id="Path 30" class="shp3" d="M766.69 56.26C766.69 56.26 753.23 34.63 729.37 47.68C705.5 60.74 704.43 32.48 723.58 18.58C723.58 18.58 725.48 27.77 739.25 22.43C768.14 11.23 767.33 51.44 766.69 56.26Z" />
					<path id="Path 31" class="shp9" d="M938.4 360.48L867.08 375.37C867.08 375.37 843.71 297.82 823.09 230.4C816.51 208.87 810.21 188.38 805.04 171.78C799.42 153.73 795.13 140.27 793.27 135.06C784.33 110.04 781.87 84.13 781.87 84.13C781.87 84.13 816.93 72.18 822.79 73.87C833.05 76.85 860.13 120.33 878.91 172.33C894.87 216.54 938.4 360.48 938.4 360.48Z" />
					<path id="Path 32" class="shp10" d="M754.62 100.43L757.61 193.11L744.59 132.82L748.31 126.46L741.51 118.12L754.62 100.43Z" />
					<path id="Path 33" class="shp10" d="M781.87 84.13C781.87 84.13 791.78 170.57 810.5 187.55C810.5 187.55 801.1 119.79 803.04 114.63L795.65 111.41L799.75 102.67L781.87 84.13Z" />
					<path id="Path 34" class="shp0" d="M823.09 230.75C816.51 209.23 810.21 188.74 805.04 172.13C811.97 161.37 843.72 125.85 843.72 125.85C843.72 125.85 837.52 184.77 823.09 230.75Z" />
					<path id="Path 35" class="shp1" d="M743.02 157.72L733.14 169.8L706.76 144.61L701.64 139.71C697.01 136.66 694.51 128.98 695.37 121.29C696.23 113.6 695.31 115.57 695.81 110.09C696.3 104.62 702.71 108.29 702.71 108.29C717.61 118.34 711.49 133.55 711.49 133.55L715.12 136.33L743.02 157.72Z" />
					<path id="Path 36" class="shp9" d="M813.81 85.57C813.81 85.57 791.08 167.18 783.95 177.36L738 149.73L724.12 165.96C724.12 165.96 766.89 215.78 790.38 213.95C803.04 212.95 845.11 129.31 845.11 129.31C845.11 129.31 841.19 83.03 813.81 85.57Z" />
					<path id="Path 37" class="shp9" d="M715.12 136.33C712.3 139.2 709.11 142.37 706.76 144.61L701.64 139.71C697.01 136.66 694.51 128.98 695.37 121.29C696.23 113.6 695.31 115.57 695.81 110.09C696.3 104.62 702.71 108.29 702.71 108.29C717.61 118.34 711.49 133.55 711.49 133.55L715.12 136.33Z" />
					<path id="Path 38" class="shp9" d="M695.53 223.76C695.32 224.27 695.2 224.54 695.2 224.54C695.13 203.74 667.19 157.84 658.99 151.4C656.6 149.53 655.61 148.08 655.39 146.96C655.24 146.13 655.51 145.49 655.96 145C656.02 144.92 656.09 144.86 656.16 144.8L656.29 145.09C693.65 156 697.35 197 695.53 223.76Z" />
					<path id="Path 39" class="shp9" d="M636.1 98.99C636.1 98.99 634.41 113.95 619.92 120.33C609.72 124.82 596.05 122 588.84 119.94L588.75 119.73L636.1 98.99Z" />
					<path id="Path 40" class="shp9" d="M594.2 145.81C593.95 147.44 593.32 149.25 592.13 151.26C587.86 158.5 580.7 161.02 576.95 161.87L576.85 161.76C576.85 161.76 587.28 152.07 594.2 145.81Z" />
				</g>
				<g id="Group 80">
					<path id="Path 41" class="shp0" d="M748.31 268.32L738.43 317.94L721.48 403.06L700.94 506.15L237.59 506.15L216.03 406.55L197.21 319.58L186.11 268.32L748.31 268.32Z" />
					<path id="Path 42" class="shp11" d="M748.31 268.32L738.43 317.94L721.48 403.06C668.03 375.45 571.25 362.36 484.74 355.42C392.73 348.02 274.79 375.31 216.03 406.55L197.21 319.58L186.11 268.32L748.31 268.32Z" />
					<path id="Path 43" class="shp12" d="M769.93 268.32L157.82 268.32C153.14 268.32 149.35 264.53 149.35 259.85L149.35 259.85C149.35 255.18 153.14 251.39 157.82 251.39L769.93 251.39C774.6 251.39 778.39 255.18 778.39 259.85L778.39 259.85C778.39 264.53 774.6 268.32 769.93 268.32Z" />
				</g>
				<g id="scientist 2">
					<path id="Path 44" class="shp3" d="M446.16 114.33C436.98 105.22 438.16 34.4 438.05 30.07C437.75 17.56 433.02 12.34 433.02 12.34C430.6 5.72 391.11 2.35 381.2 27.62C374.85 43.84 358.59 75.36 358.59 75.36C292.16 167.54 318.56 213.01 318.56 213.01L321.4 212.7C320.42 209.68 319.65 205.42 320.65 203.61L323.35 212.63L372.42 206.32C372.8 196.89 376.59 182.19 376.59 182.19L376.82 207.14L383.4 207.49C380.79 154.86 391.98 129.02 395.29 122.61C392.45 151.87 406.61 199.59 406.61 199.59L408.64 199.13L404.04 175.28L409.92 198.84L415.62 197.55C414.72 194.37 413.89 191.28 413.12 188.25C414.69 194.08 415.62 197.55 415.62 197.55C427.85 184.24 450.25 185.42 450.25 185.42C462.42 168.32 446.16 114.33 446.16 114.33Z" />
					<path id="Path 45" class="shp1" d="M451.53 469.51L465.85 498.08L477.51 493.59L474.83 464.43L451.53 469.51Z" />
					<path id="Path 46" class="shp13" d="M460.8 493.24L464.7 506.15L503.42 506.15C503.42 506.15 493.51 488.74 460.8 493.24Z" />
					<path id="Path 47" class="shp4" d="M450.25 220.85L480.83 471.38L448.4 471.38C448.4 471.38 406.08 363.03 400.01 250.13C397.69 206.99 450.25 220.85 450.25 220.85Z" />
					<path id="Path 48" class="shp1" d="M372.14 471.77L378.77 495.07L391.18 493.57L393.92 457.95L372.14 471.77Z" />
					<path id="Path 49" class="shp14" d="M377.61 493.24L381.51 506.15L420.23 506.15C420.23 506.15 410.33 488.74 377.61 493.24Z" />
					<path id="Path 50" class="shp5" d="M408.39 224.26L384.37 224.26L358.6 220.65C358.6 220.65 342.11 256.67 350.6 363.41C354.92 417.65 370.96 475.35 370.96 475.35L404.21 474.67L418.57 275.59C418.99 270.14 425.34 268.17 425.34 268.17L424.42 223.64L408.39 224.26Z" />
					<g id="Group 81">
						<path id="Path 51" class="shp4" d="M383.03 470.6C378.55 446.52 374.62 417.97 372.09 388.18C371.7 383.63 371.33 378.95 370.99 374.26C370.61 369.09 370.26 363.86 369.95 358.7C369.85 356.93 370.3 354.89 370.75 352.92C371.16 351.08 371.58 349.18 371.5 347.65C370.47 328.06 370.42 310.12 370.37 294.29C370.36 290.14 370.35 286.07 370.32 282.09C370.06 246.1 369.78 225.7 369.77 225.5L369.77 225.5C369.78 225.7 371.27 246.01 371.52 282.05C371.55 286.03 371.56 290.1 371.58 294.25C371.62 310.06 371.68 327.99 372.71 347.55C372.8 349.26 372.35 351.25 371.92 353.17C371.5 355.06 371.06 357.01 371.16 358.59C371.46 363.74 371.81 368.97 372.19 374.13C372.53 378.81 372.9 383.49 373.29 388.04C375.82 417.78 378.91 446.58 383.38 470.62L383.03 470.6Z" />
					</g>
					<path id="Path 52" class="shp15" d="M417.98 60.04C417.98 60.04 414.18 82.16 427.95 92.6C427.95 92.6 415.14 110.85 408.61 110.29C401.35 109.68 390.72 87.27 390.72 87.27C390.72 87.27 393.73 73.5 393.11 52.46L417.98 60.04Z" />
					<path id="Path 53" class="shp1" d="M422.82 66.36C422.82 66.36 392.48 67.75 391.91 48.84C391.33 29.93 387.03 17.37 406.38 15.69C425.73 14 429.72 21.1 431.44 27.37C433.17 33.63 430.7 65.51 422.82 66.36Z" />
					<path id="Path 54" class="shp5" d="M450.25 220.85C450.25 220.85 446.22 224.17 406.02 226.16C403.4 226.29 400.92 226.38 398.56 226.44C384.14 226.77 374.44 225.77 368.05 224.51C359.43 222.81 356.84 220.65 356.84 220.65C356.84 220.65 369.39 190.37 369.39 175.99C369.39 166.05 391.83 85.47 391.83 85.47C394.46 92.71 401.55 98.91 409.33 98.97C429.7 99.12 421.76 85.44 421.76 85.44L444.7 94.66C444.7 94.66 441.85 103.17 442.92 111.41C443.2 113.55 443.74 115.66 444.66 117.61C444.85 118.04 445.08 118.46 445.32 118.86C450.87 128.34 447.06 144.78 443.01 163.82C438.95 182.86 450.25 220.85 450.25 220.85Z" />
					<path id="Path 55" class="shp1" d="M554.08 132.92C552.46 136.88 552.53 135.19 550.35 140.81C548.18 146.43 543.69 150.84 539.39 151.28C539.39 151.28 537.51 152.74 534.42 155.05L534.41 155.06C533.49 155.75 532.46 156.52 531.34 157.35C517.42 167.61 489.54 187.22 480.83 186.24C469.06 184.93 435.7 137.08 435.7 137.08L444.7 94.66C444.7 94.66 468.9 135.32 480.83 166.05C480.83 166.05 510.07 153.91 526.79 146.87C527.68 146.5 528.54 146.13 529.35 145.79L534.8 143.48C534.8 143.48 536.05 130.77 549.96 129.18C549.96 129.18 555.71 128.95 554.08 132.92Z" />
					<path id="Path 56" class="shp7" d="M554.08 132.92C552.46 136.88 552.53 135.19 550.35 140.81C548.18 146.43 543.69 150.84 539.39 151.28C539.39 151.28 537.51 152.74 534.42 155.06L534.41 155.06C533.49 155.75 532.46 156.52 531.34 157.35C531.14 152.88 526.79 146.87 526.79 146.87L526.79 146.87C527.68 146.5 528.54 146.13 529.35 145.79L534.8 143.48C534.8 143.48 536.05 130.77 549.96 129.18C549.96 129.18 555.71 128.95 554.08 132.92Z" />
					<g id="Group 82">
						<path id="Path 57" class="shp9" d="M551.4 122.13L551.4 169.57C551.4 171.81 549.58 173.63 547.34 173.63C545.09 173.63 543.28 171.81 543.28 169.57L543.28 122.13L551.4 122.13Z" />
						<path id="Path 58" class="shp7" d="M551.4 155.75L551.4 169.57C551.4 171.81 549.58 173.63 547.34 173.63C545.09 173.63 543.28 171.81 543.28 169.57L543.28 155.75L551.4 155.75Z" />
					</g>
					<path id="Path 59" class="shp9" d="M501.25 178.93C501.25 178.93 485.37 186.9 482.23 186.9C479.08 186.9 470.52 182.75 461.53 172.02C457.6 167.34 451.85 160.02 446.64 153.21C439.88 144.4 434.01 136.45 434.09 136.2C434.24 135.76 437.38 91.72 437.38 91.72C437.38 91.72 444.91 93.77 445.43 94.28C445.94 94.79 475.5 147.76 480.76 163.42L498.36 158.13L501.25 178.93Z" />
					<path id="Path 60" class="shp9" d="M417.18 155.52L420.96 324.95L464.22 324.95C464.22 324.95 454.77 228.82 450.25 198.75C445.06 164.31 445.43 94.28 445.43 94.28C445.43 94.28 427.67 87.05 426.31 87.27C424.96 87.49 417.18 155.52 417.18 155.52Z" />
					<path id="Path 61" class="shp0" d="M421.76 85.44C421.76 85.44 414.55 141.62 417.18 155.52L428.52 117.61L425.96 113.08L430.64 111.62L427.72 87.77C427.72 87.77 425.8 85.44 421.76 85.44Z" />
					<path id="Path 62" class="shp9" d="M413.02 157.27L413.02 324.95C413.02 324.95 385.51 324.45 364.26 323.76C350.9 323.33 340.01 322.82 340.01 322.32C340.01 321.13 347.55 252.52 361.34 202.9C364.41 191.86 365.48 180.36 364.47 168.95C363.48 157.76 362.03 144.63 360.28 138.55C360.26 138.5 360.25 138.45 360.23 138.39C360.23 138.39 334.23 159.35 334.89 160.34C335.55 161.33 341.98 178.78 341.98 178.78C341.98 178.78 329.77 187.63 327.28 188.87C327.28 188.87 304.6 158.3 307.74 153.43C307.74 153.43 347.27 86.23 356.25 89.04C358.79 89.84 385.37 87.27 385.37 87.27L413.02 157.27Z" />
					<path id="Path 63" class="shp0" d="M390.72 87.27C391.82 88.38 413.02 157.27 413.02 157.27C413.02 157.27 393.56 124.06 392.1 123.33L394.27 119.23L389.61 116.89L385.37 87.27C385.37 87.27 388.9 85.45 390.72 87.27Z" />
					<path id="Path 64" class="shp1" d="M380.05 213.49C376.16 215.27 377.36 214.08 371.93 216.7C366.5 219.31 360.21 219.45 356.77 216.84L352.96 213.91C352.31 213.4 351.12 212.33 349.6 210.9C342.28 204.03 327.28 188.88 327.28 188.88L341.98 178.78C342.37 180.97 354.12 201.86 356.33 205.77C356.55 206.17 356.68 206.39 356.68 206.39L358.76 208C358.76 208 368.36 199.59 379.6 207.95C379.6 207.95 383.95 211.71 380.05 213.49Z" />
					<path id="Path 65" class="shp0" d="M341.62 177.8L324.75 188.33C324.75 188.33 326.95 190.74 327.02 190.6C327.1 190.45 342.24 179.54 342.24 179.54L341.62 177.8Z" />
					<path id="Path 66" class="shp3" d="M431.16 20.21C431.16 20.21 393.94 48.89 397.23 70.08C400.32 89.98 394.46 91.75 390.11 93.65C378.87 98.55 360.54 88.83 354.7 89.12C350.55 89.33 364.82 85.09 371.61 76.03C389.67 51.91 387.91 19.33 391.51 16.98C416.07 0.99 431.16 20.21 431.16 20.21Z" />
					<path id="Path 67" class="shp0" d="M501.69 155.75C501.69 155.75 504.83 175.93 506.37 179.22L500.88 182.02C500.88 182.02 497.59 161.15 498.47 157.35L501.69 155.75Z" />
					<path id="Rectangle 10" class="shp0" d="M544.97 122.13L547.34 122.13L547.34 155.75L544.97 155.75L544.97 122.13Z" />
					<path id="Path 68" class="shp0" d="M376.57 227.61C373.67 238.6 367.07 297.84 364.26 323.76C350.9 323.33 340.01 322.82 340.01 322.32C340.01 321.13 347.55 252.52 361.34 202.9C364.41 191.86 365.48 180.36 364.47 168.95C363.48 157.76 362.03 144.63 360.28 138.55C362.19 136.89 364.38 135.91 365.64 136.97C368.41 139.31 380.31 213.44 376.57 227.61Z" />
					<path id="Path 69" class="shp5" d="M380.05 213.49C376.16 215.27 377.36 214.08 371.93 216.7C366.5 219.31 360.21 219.45 356.77 216.84L352.96 213.91C352.31 213.4 351.12 212.33 349.6 210.9C351.92 209.61 354.65 207.82 356.33 205.77C356.55 206.17 356.68 206.39 356.68 206.39L358.76 208C358.76 208 368.36 199.59 379.6 207.95C379.6 207.95 383.95 211.71 380.05 213.49Z" />
					<path id="Path 70" class="shp0" d="M501.25 178.93C501.25 178.93 485.37 186.9 482.23 186.9C479.08 186.9 470.52 182.75 461.53 172.02C457.6 167.34 451.85 160.02 446.64 153.21C445.91 149.61 445.63 145.63 448.08 145.38C452.46 144.94 476.17 180.94 482.09 180.72C488.02 180.5 501.25 178.93 501.25 178.93Z" />
				</g>
				<g id="scientist 1">
					<path id="Path 71" class="shp4" d="M105.1 6.11C105.1 6.11 103.06 -2.06 94.06 1.23C85.06 4.52 92.96 11.53 92.96 11.53L105.1 6.11Z" />
					<path id="Path 72" class="shp1" d="M112.43 469.45L126.75 498.02L138.41 493.52L135.73 464.36L112.43 469.45Z" />
					<g id="test tube">
						<g id="Group 83">
							<path id="Path 73" class="shp9" d="M210.75 235.59C210.75 236.19 210.71 236.79 210.65 237.37C209.76 245.26 203.07 251.39 194.95 251.39C187.04 251.39 180.49 245.58 179.32 237.99C179.2 237.21 179.14 236.4 179.14 235.59C179.14 228.9 183.3 223.19 189.16 220.88L189.16 200.86L200.74 200.86L200.74 220.88C206.6 223.19 210.75 228.9 210.75 235.59Z" />
							<path id="Path 74" class="shp16" d="M210.65 237.37C209.76 245.26 203.07 251.39 194.95 251.39C187.04 251.39 180.49 245.58 179.32 237.99C183.48 237.94 190.54 237.99 196.92 238.66C202.37 239.23 207.32 238.3 210.65 237.37Z" />
						</g>
						<path id="Path 75" class="shp0" d="M193.59 200.86L191.36 200.86L191.4 220.88C191.4 220.88 186.13 224.72 186.13 226.81L193.05 229C193.05 229 191.95 222.75 193.59 220.88L193.59 200.86Z" />
					</g>
					<path id="Path 76" class="shp17" d="M121.7 493.18L125.6 506.08L164.32 506.08C164.32 506.08 154.42 488.68 121.7 493.18Z" />
					<path id="Path 77" class="shp18" d="M141.73 471.31L109.3 471.31C109.3 471.31 66.99 362.97 60.91 250.06C58.59 206.92 109.14 220.59 109.14 220.59L121.12 302.48L141.73 471.31Z" />
					<path id="Path 78" class="shp19" d="M114.16 471.31L109.3 471.31C109.3 471.31 66.99 362.97 60.91 250.06C58.59 206.92 109.14 220.59 109.14 220.59L121.12 302.48C116.93 354.6 111.52 434.32 114.16 471.31Z" />
					<path id="Path 79" class="shp1" d="M33.04 471.7L39.67 495L52.08 493.5L54.83 457.89L33.04 471.7Z" />
					<path id="Path 80" class="shp17" d="M38.52 493.18L42.42 506.08L81.14 506.08C81.14 506.08 71.23 488.68 38.52 493.18Z" />
					<path id="Path 81" class="shp18" d="M84.49 268.11C84.49 268.11 78.14 270.07 77.71 275.52L63.36 474.61L42.82 475.03L30.12 475.29C30.12 475.29 14.07 417.59 9.75 363.35C9.13 355.5 8.64 348.04 8.27 340.95C3.59 251.5 17.75 220.59 17.75 220.59L43.52 224.19L67.54 224.19L83.57 223.57L84.49 268.11Z" />
					<path id="Path 82" class="shp19" d="M42.82 475.03L30.12 475.29C30.12 475.29 14.07 417.59 9.75 363.35C9.13 355.5 8.64 348.04 8.27 340.95L43.93 336.94L49.17 359.33C49.17 359.33 39.91 446.75 42.82 475.03Z" />
					<path id="Path 83" class="shp8" d="M226.84 193.29C222.31 194.59 223.82 193.49 217.49 195.45C211.43 197.32 204.97 196.11 201.52 193.01C200.07 193.12 198.47 193.23 196.75 193.34C181.08 194.34 155.29 195.09 142.62 190.5C131.29 186.4 89.23 152.74 89.23 152.74L78.49 103.32C78.49 103.32 100.57 100.77 104.35 106.5C125.23 138.11 128.98 146.69 154.63 168.53C171.24 173.63 183.63 177.86 197.94 181.84C200.19 182.46 202.49 183.08 204.86 183.7C206.6 182.7 217.33 177.2 227.25 187.2C227.25 187.2 231.36 192 226.84 193.29Z" />
					<path id="Path 84" class="shp0" d="M170 196.12C170 196.12 142.57 192.4 140.81 191.3C139.62 190.55 122.3 178.24 111.33 170.44C111.33 170.44 111.33 170.44 111.33 170.43C106.16 166.76 102.4 164.08 102.4 164.08C102.4 164.08 88.79 126.91 102.4 101.34C102.4 101.34 137.68 154.2 153.73 165.18L172.18 173.82C172.18 173.82 169.75 185.26 169.63 192.19C169.61 193.82 169.71 195.2 170 196.12Z" />
					<path id="Path 85" class="shp3" d="M109.28 9.13C109.28 9.13 105.47 3.42 96.55 6.2C87.62 8.98 92.31 17.62 92.31 17.62L109.28 9.13Z" />
					<path id="Path 86" class="shp18" d="M82.32 254.42L110.17 254.42C112.77 254.42 114.71 252.03 114.17 249.49C111.41 236.45 104.6 200.94 108.51 184.57C113.34 164.3 103.72 109.35 103.72 109.35C103.72 109.35 100.14 118.03 78.55 111.53C56.96 105.03 82.32 254.42 82.32 254.42Z" />
					<path id="Path 87" class="shp8" d="M108.51 64.61C108.51 64.61 95.66 85.71 105.53 101.96C105.53 101.96 94.6 115.22 82.73 110.52C58.06 100.73 69.63 76.03 69.63 76.03C69.63 76.03 72.74 76.6 86.12 46.8L108.51 64.61Z" />
					<path id="Path 88" class="shp1" d="M110.9 73.04C110.9 73.04 79.29 62.19 86.35 42.61C93.42 23.02 94.09 8.43 114.57 14.54C135.06 20.64 136.26 29.52 135.49 36.63C134.72 43.74 119.3 75.36 110.9 73.04Z" />
					<path id="Path 89" class="shp4" d="M101.74 8.25C101.74 8.25 130.93 0.79 137.08 32.18C139.7 45.57 127.59 32.83 115.33 33.27C103.06 33.71 86.12 46.8 86.12 46.8C86.12 46.8 70.8 23.18 101.74 8.25Z" />
					<path id="Path 90" class="shp9" d="M97.47 175.83C97.26 190.94 96.89 207.36 96.43 224.01C94.52 293.61 91.08 367.31 91.08 367.31L1.44 367.31C-2.95 318.15 17.31 165.44 30.67 123.43C44.04 81.42 66.92 80.68 66.92 80.68L87.71 104.53C89.94 111.01 97.99 139.52 97.47 175.83Z" />
					<path id="Path 91" class="shp0" d="M107.38 106.51C107.38 106.51 104.27 110.42 104.37 113.24C107.39 200.87 115.57 367.32 115.57 367.32L134.27 367.32L107.38 106.51Z" />
					<path id="Path 92" class="shp8" d="M198.39 245.43C193.12 245.57 195.06 244.81 187.63 245.15C180.39 245.5 173.57 242.24 170.79 237.78C167.73 236.73 163.9 235.31 159.62 233.63C138.08 225.21 104.92 210.38 99.12 204.63C90.94 196.54 51.45 124.85 54.99 117.11C58.54 109.37 83.09 104.53 83.09 104.53L114.55 180.53L165.01 219.72L165.01 219.72L176.88 228.94C176.88 228.94 191.83 224.02 200.55 238.93C200.55 238.93 203.67 245.29 198.39 245.43Z" />
					<path id="Path 93" class="shp9" d="M98.83 110.29C98.83 110.29 72.45 79.48 73.15 72.3C73.15 72.3 62.9 72.99 59.47 79.15C59.47 79.15 92.33 120.56 98.83 123.64L98.83 110.29Z" />
					<path id="Path 94" class="shp9" d="M101.98 92.2C101.98 92.2 109.19 96.34 110.03 102.43C110.03 102.43 108.53 119.03 102.5 123.57L98.7 110.1C98.7 110.1 101.25 100.99 101.98 92.2Z" />
					<path id="Path 95" class="shp0" d="M97.47 175.83C97.26 190.94 96.89 207.36 96.43 224.01C96.4 224.01 96.38 224.01 96.35 224C86.9 221.35 71.09 190.33 63.77 168.68C56.46 147.02 52.14 119.31 55 117.11L97.47 175.83Z" />
					<path id="Path 96" class="shp9" d="M70.36 93.7C70.36 93.7 87.01 94.43 93.62 120.19C100.23 145.94 113.16 176.37 115.57 178.57C117.98 180.76 146.96 203.81 146.96 203.81C146.96 203.81 140.68 221.17 140.52 225.76C140.52 225.76 101.32 210.86 96.92 204.7C92.53 198.54 50.61 127.21 52.14 119.31C53.68 111.41 54.56 102.33 70.36 93.7Z" />
					<path id="Path 97" class="shp0" d="M36.4 158.55C31.59 218.38 38.92 328.08 41.86 367.31L1.44 367.31C-2.95 318.15 17.31 165.44 30.67 123.43C44.04 81.42 66.92 80.68 66.92 80.68C66.92 80.68 42.33 84.81 36.4 158.55Z" />
					<path id="Path 98" class="shp7" d="M198.39 245.43C193.12 245.57 195.06 244.81 187.63 245.15C180.39 245.5 173.57 242.24 170.79 237.78C167.73 236.73 163.9 235.31 159.62 233.63C162.7 229.96 165.01 219.72 165.01 219.72L165.01 219.72L176.88 228.94C176.88 228.94 191.83 224.02 200.55 238.93C200.55 238.93 203.67 245.29 198.39 245.43Z" />
					<path id="Path 99" class="shp7" d="M226.84 193.29C222.31 194.59 223.82 193.49 217.49 195.45C211.43 197.32 204.97 196.11 201.52 193.01C200.07 193.12 198.47 193.23 196.75 193.34C197.72 189.4 197.92 184.81 197.94 181.84C200.19 182.46 202.49 183.08 204.86 183.7C206.6 182.7 217.33 177.2 227.25 187.2C227.25 187.2 231.36 192 226.84 193.29Z" />
					<g id="test tube">
						<g id="Group 84">
							<path id="Path 100" class="shp9" d="M226.65 199.67C226.65 200.08 226.63 200.48 226.58 200.87C225.98 206.19 221.47 210.33 215.99 210.33C210.65 210.33 206.23 206.41 205.45 201.29C205.37 200.76 205.33 200.22 205.33 199.67C205.33 195.16 208.13 191.3 212.08 189.75L212.08 176.24L219.89 176.24L219.89 189.75C223.85 191.3 226.65 195.16 226.65 199.67Z" />
							<path id="Path 101" class="shp0" d="M216.63 176.24L213.2 176.24L213.2 189.57C213.2 189.57 207.48 196.04 208.63 202.18L214.11 202.18C214.11 202.18 213.95 192.31 216.63 189.57L216.63 176.24Z" />
						</g>
						<path id="Path 102" class="shp5" d="M226.58 200.87C225.98 206.19 221.47 210.33 215.99 210.33C210.65 210.33 206.23 206.41 205.45 201.29C208.25 201.26 213.01 201.29 217.32 201.74C221 202.12 224.34 201.5 226.58 200.87Z" />
					</g>
				</g>
				<g id="test tube">
					<g id="Group 89">
						<g id="Group 85">
							<path id="Path 103" class="shp9" d="M250.15 196.98L250.15 244.42C250.15 246.67 248.33 248.48 246.09 248.48C243.84 248.48 242.02 246.67 242.02 244.42L242.02 196.98L250.15 196.98Z" />
							<path id="Path 104" class="shp16" d="M250.15 230.6L250.15 244.42C250.15 246.67 248.33 248.48 246.09 248.48C243.84 248.48 242.02 246.67 242.02 244.42L242.02 230.6L250.15 230.6Z" />
						</g>
						<g id="Group 86">
							<path id="Path 105" class="shp9" d="M262 196.98L262 244.42C262 246.67 260.18 248.48 257.94 248.48C255.69 248.48 253.88 246.67 253.88 244.42L253.88 196.98L262 196.98Z" />
							<path id="Path 106" class="shp16" d="M262 230.6L262 244.42C262 246.67 260.18 248.48 257.94 248.48C255.69 248.48 253.88 246.67 253.88 244.42L253.88 230.6L262 230.6Z" />
						</g>
						<g id="Group 87">
							<path id="Path 107" class="shp9" d="M273.85 196.98L273.85 244.42C273.85 246.67 272.03 248.48 269.79 248.48C267.55 248.48 265.73 246.67 265.73 244.42L265.73 196.98L273.85 196.98Z" />
							<path id="Path 108" class="shp16" d="M273.85 230.6L273.85 244.42C273.85 246.67 272.03 248.48 269.79 248.48C267.55 248.48 265.73 246.67 265.73 244.42L265.73 230.6L273.85 230.6Z" />
						</g>
						<g id="Group 88">
							<path id="Path 109" class="shp9" d="M286.65 196.98L286.65 244.42C286.65 246.67 284.83 248.48 282.59 248.48C280.34 248.48 278.53 246.67 278.53 244.42L278.53 196.98L286.65 196.98Z" />
							<path id="Path 110" class="shp16" d="M286.65 230.6L286.65 244.42C286.65 246.67 284.83 248.48 282.59 248.48C280.34 248.48 278.53 246.67 278.53 244.42L278.53 230.6L286.65 230.6Z" />
						</g>
						<path id="Rectangle 11" class="shp9" d="M233.61 244.38L294.92 244.38L294.92 251.39L233.61 251.39L233.61 244.38Z" />
						<path id="Rectangle 12" class="shp0" d="M243.16 196.98L244.33 196.98L244.33 229L243.16 229L243.16 196.98Z" />
						<path id="Rectangle 13" class="shp0" d="M255.3 196.98L256.47 196.98L256.47 229L255.3 229L255.3 196.98Z" />
						<path id="Rectangle 14" class="shp0" d="M266.92 196.98L268.09 196.98L268.09 229L266.92 229L266.92 196.98Z" />
						<path id="Rectangle 15" class="shp0" d="M279.88 196.98L281.05 196.98L281.05 229L279.88 229L279.88 196.98Z" />
					</g>
					<g id="Group 91">
						<g id="Group 90">
							<path id="Path 111" class="shp9" d="M511.67 239.38C511.67 239.84 511.65 240.3 511.6 240.74C510.92 246.73 505.84 251.39 499.67 251.39C493.66 251.39 488.68 246.97 487.8 241.21C487.71 240.61 487.66 240 487.66 239.38C487.66 234.3 490.81 229.96 495.27 228.21L495.27 212.99L504.07 212.99L504.07 228.21C508.52 229.96 511.67 234.3 511.67 239.38Z" />
							<path id="Path 112" class="shp0" d="M500.39 212.99L496.53 212.99L496.53 228.01C496.53 228.01 490.09 235.3 491.38 242.22L497.56 242.22C497.56 242.22 497.37 231.1 500.39 228.01L500.39 212.99Z" />
						</g>
						<path id="Path 113" class="shp16" d="M511.6 240.74C510.92 246.73 505.84 251.39 499.67 251.39C493.66 251.39 488.68 246.97 487.8 241.21C490.95 241.17 496.32 241.21 501.17 241.72C505.31 242.15 509.07 241.45 511.6 240.74Z" />
					</g>
					<g id="Group 93">
						<g id="Group 92">
							<path id="Path 114" class="shp9" d="M543.28 239.38C543.28 239.84 543.25 240.3 543.2 240.74C542.52 246.73 537.44 251.39 531.27 251.39C525.26 251.39 520.28 246.97 519.4 241.21C519.31 240.61 519.26 240 519.26 239.38C519.26 234.3 522.42 229.96 526.87 228.21L526.87 212.99L535.67 212.99L535.67 228.21C540.12 229.96 543.28 234.3 543.28 239.38Z" />
							<path id="Path 115" class="shp0" d="M531.99 212.99L528.13 212.99L528.13 228.01C528.13 228.01 521.69 235.3 522.98 242.22L529.16 242.22C529.16 242.22 528.98 231.1 531.99 228.01L531.99 212.99Z" />
						</g>
						<path id="Path 116" class="shp16" d="M543.2 240.74C542.52 246.73 537.44 251.39 531.27 251.39C525.26 251.39 520.28 246.97 519.4 241.21C522.55 241.17 527.92 241.21 532.77 241.72C536.91 242.15 540.67 241.45 543.2 240.74Z" />
					</g>
				</g>
			</g>
		</g>
	</g>
</svg>