<svg xmlns="http://www.w3.org/2000/svg" viewBox="0 0 661 652" width="661" height="652">
	<defs>
		<clipPath clipPathUnits="userSpaceOnUse" id="cp1">
			<path d="M-843 -2577L757 -2577L757 3335L-843 3335Z" />
		</clipPath>
	</defs>
	<style>
		tspan { white-space:pre }
		.shp0 { fill: #f2f5fc;stroke: #333383;stroke-width: 8 } 
		.shp1 { fill: #333383 } 
		.shp2 { fill: #d0d6ec } 
		.shp3 { fill: #adb6d9 } 
		.shp4 { fill: #ffffff } 
		.shp5 { fill: #ebebeb } 
		.shp6 { fill: #dbdbdb } 
		.shp7 { fill: none;stroke: #adb6d9 } 
		.shp8 { fill: none;stroke: #263238;stroke-linecap:round } 
		.shp9 { fill: #555ca5 } 
		.shp10 { fill: #263238 } 
		.shp11 { fill: #37474f } 
		.shp12 { fill: #dc8d39 } 
		.shp13 { fill: #ad6359 } 
		.shp14 { fill: #2b295e } 
		.shp15 { fill: #f0d170 } 
		.shp16 { fill: #a6a6a6 } 
		.shp17 { fill: #c7c7c7 } 
		.shp18 { fill: #ff9cbd } 
		.shp19 { opacity: 0.102;fill: #000000 } 
		.shp20 { opacity: 0.102;fill: #eeecff } 
		.shp21 { fill: #fffffd } 
	</style>
	<g id="Medical Healthcare Landing Page" clip-path="url(#cp1)">
		<g id="Why Choose US">
			<g id="Illustration">
				<path id="Ellipse 13" class="shp0" d="M557.5 208C500.26 208 454 161.74 454 104.5C454 47.26 500.26 1 557.5 1C614.74 1 661 47.26 661 104.5C661 161.74 614.74 208 557.5 208Z" />
				<path id="Rectangle 135" class="shp1" d="M501 100L615 100C617.76 100 620 102.23 620 105L620 105C620 107.76 617.76 110 615 110L501 110C498.23 110 496 107.76 496 105L496 105C496 102.23 498.23 100 501 100Z" />
				<path id="Rectangle 136" class="shp1" d="M563 48L563 162C563 164.76 560.76 167 558 167L558 167C555.23 167 553 164.76 553 162L553 48C553 45.23 555.23 43 558 43L558 43C560.76 43 563 45.23 563 48Z" />
				<g id="illustration">
					<g id="Background Complete">
						<g id="Group 2542">
							<path id="Ellipse 2" class="shp2" d="M112.37 161.65C85.36 161.65 63.53 139.82 63.53 112.81C63.53 85.81 85.36 63.98 112.37 63.98C139.38 63.98 161.21 85.81 161.21 112.81C161.21 139.82 139.38 161.65 112.37 161.65Z" />
							<path id="Ellipse 3" class="shp3" d="M147.56 146.85C129.34 165.08 99.88 165.08 81.66 146.85C63.43 128.63 63.43 99.17 81.66 80.95C99.88 62.73 129.34 62.73 147.56 80.95C165.78 99.17 165.78 128.63 147.56 146.85Z" />
							<path id="Ellipse 4" class="shp4" d="M131.02 154.36C108.65 163.43 83.23 152.69 74.15 130.31C65.08 107.94 75.82 82.52 98.2 73.45C120.57 64.37 145.99 75.12 155.06 97.49C164.14 119.86 153.39 145.28 131.02 154.36Z" />
							<g id="Group 2541">
								<path id="Rectangle 101" class="shp5" d="M114.05 73.41L115.17 73.41L115.17 80.03L114.05 80.03L114.05 73.41Z" />
								<path id="Rectangle 102" class="shp5" d="M93.88 79.12L94.85 78.56L98.16 84.29L97.19 84.85L93.88 79.12Z" />
								<path id="Rectangle 103" class="shp5" d="M79.26 94.14L79.82 93.17L85.55 96.48L85 97.45L79.26 94.14Z" />
								<path id="Rectangle 104" class="shp5" d="M74.12 113.34L80.74 113.34L80.74 114.46L74.12 114.46L74.12 113.34Z" />
								<path id="Rectangle 105" class="shp5" d="M79.26 133.66L85 130.35L85.55 131.32L79.82 134.63L79.26 133.66Z" />
								<path id="Rectangle 106" class="shp5" d="M93.88 148.69L97.19 142.96L98.15 143.51L94.85 149.25L93.88 148.69Z" />
								<path id="Rectangle 107" class="shp5" d="M114.05 147.77L115.17 147.77L115.17 154.39L114.05 154.39L114.05 147.77Z" />
								<path id="Rectangle 108" class="shp5" d="M131.06 143.52L132.03 142.96L135.34 148.69L134.37 149.25L131.06 143.52Z" />
								<path id="Rectangle 109" class="shp5" d="M143.66 131.32L144.22 130.35L149.95 133.66L149.39 134.63L143.66 131.32Z" />
								<path id="Rectangle 110" class="shp5" d="M148.48 113.34L155.1 113.34L155.1 114.46L148.48 114.46L148.48 113.34Z" />
								<path id="Rectangle 111" class="shp5" d="M143.66 96.48L149.39 93.17L149.95 94.14L144.22 97.45L143.66 96.48Z" />
								<path id="Rectangle 112" class="shp5" d="M131.06 84.29L134.37 78.56L135.33 79.12L132.03 84.85L131.06 84.29Z" />
								<path id="Rectangle 113" class="shp5" d="M101.93 137.56L121.08 99.9L122.08 100.41L102.92 138.06L101.93 137.56Z" />
								<path id="Rectangle 114" class="shp6" d="M110.91 99.21L112.37 98.91L120.53 139.71L119.07 140L110.91 99.21Z" />
							</g>
						</g>
						<g id="Group 2548">
							<path id="Rectangle 115" class="shp2" d="M439.05 98.56L566.64 98.56L566.64 498.96L439.05 498.96L439.05 98.56Z" />
							<path id="Rectangle 116" class="shp4" d="M457.17 118.49L548.52 118.49L548.52 372.71L457.17 372.71L457.17 118.49Z" />
							<g id="Group 2543">
								<path id="Path 4755" class="shp2" d="M468.37 539.26L454.39 539.26L454.39 498.96L479.27 498.96L468.37 539.26Z" />
								<path id="Path 4756" class="shp3" d="M479.27 498.96L475.25 513.81L454.38 513.81L454.38 498.96L479.27 498.96Z" />
							</g>
							<g id="Group 2544">
								<path id="Path 4757" class="shp2" d="M537.31 539.26L551.3 539.26L551.3 498.96L526.42 498.96L537.31 539.26Z" />
								<path id="Path 4758" class="shp3" d="M526.41 498.96L530.43 513.81L551.3 513.81L551.3 498.96L526.41 498.96Z" />
							</g>
							<g id="Group 2545">
								<path id="Path 4759" class="shp7" d="M548.52 390.84L469.69 390.84L469.69 470.13" />
								<path id="Path 4760" class="shp7" d="M469.69 481.45L548.52 481.45L548.52 403.67" />
								<path id="Path 4989" class="shp3" d="M484.49 446.19L478.52 446.19L478.52 423.31L484.49 423.31L484.49 446.19Z" />
							</g>
							<g id="Group 2546">
								<path id="Path 4761" class="shp7" d="M457.17 390.84L535.99 390.84L535.99 470.13" />
								<path id="Path 4762" class="shp7" d="M535.99 481.45L457.17 481.45L457.17 403.67" />
								<path id="Rectangle 118" class="shp3" d="M521.19 423.31L527.16 423.31L527.16 446.19L521.19 446.19L521.19 423.31Z" />
							</g>
							<g id="Group 2547">
								<path id="Rectangle 119" class="shp3" d="M457.17 199.67L548.52 199.67L548.52 202.39L457.17 202.39L457.17 199.67Z" />
								<path id="Rectangle 120" class="shp3" d="M457.17 254.86L548.52 254.86L548.52 257.58L457.17 257.58L457.17 254.86Z" />
								<path id="Rectangle 121" class="shp3" d="M457.17 310.04L548.52 310.04L548.52 312.76L457.17 312.76L457.17 310.04Z" />
							</g>
							<path id="Rectangle 122" class="shp5" d="M500.82 118.49L504.86 118.49L504.86 372.71L500.82 372.71L500.82 118.49Z" />
						</g>
						<g id="Group 2558">
							<g id="Group 2551">
								<g id="Group 2550">
									<g id="Group 2549">
										<path id="Path 4763" class="shp2" d="M211.72 386.36L215.29 407.73L239.42 538.06L243.31 538.06L225.76 407.73L223.17 386.36L211.72 386.36Z" />
									</g>
								</g>
								<path id="Path 4764" class="shp3" d="M223.17 386.36L211.72 386.36L215.29 407.73L225.76 407.73L223.17 386.36Z" />
							</g>
							<g id="Group 2554">
								<g id="Group 2553">
									<g id="Group 2552">
										<path id="Path 4765" class="shp2" d="M135.93 538.06L139.82 538.06L163.96 407.73L167.52 386.36L156.08 386.36L153.48 407.73L135.93 538.06Z" />
									</g>
								</g>
								<path id="Path 4766" class="shp3" d="M156.08 386.36L153.48 407.73L163.96 407.73L167.52 386.36L156.08 386.36Z" />
							</g>
							<g id="Group 2557">
								<g id="Group 2556">
									<g id="Group 2555">
										<path id="Path 4767" class="shp2" d="M63.55 538.06L67.44 538.06L91.57 407.73L95.13 386.36L83.69 386.36L81.1 407.73L63.55 538.06Z" />
									</g>
								</g>
								<path id="Path 4768" class="shp3" d="M81.1 407.73L91.57 407.73L95.13 386.36L83.69 386.36L81.1 407.73Z" />
							</g>
							<path id="Path 4769" class="shp2" d="M69.72 396.4L246.56 396.4L246.56 382.06L180.36 377.77L158.11 249.43L76.46 249.43L69.72 396.4Z" />
							<path id="Path 4770" class="shp3" d="M69.72 396.4L79.36 396.4L85.64 249.43L76.46 249.43L69.72 396.4Z" />
						</g>
					</g>
					<g id="Shadow">
						<g id="Group 2559">
							<path id="Ellipse 5" class="shp2" d="M323.5 651.02C212.06 651.02 121.99 635.92 121.99 617.24C121.99 598.56 212.06 583.46 323.5 583.46C434.93 583.46 525.01 598.56 525.01 617.24C525.01 635.92 434.93 651.02 323.5 651.02Z" />
						</g>
						<g id="Group 2560">
							<path id="Ellipse 6" class="shp2" d="M83.6 631.48C42.51 631.48 9.3 624.48 9.3 615.81C9.3 607.14 42.51 600.13 83.6 600.13C124.68 600.13 157.89 607.14 157.89 615.81C157.89 624.48 124.68 631.48 83.6 631.48Z" />
						</g>
						<g id="Group 2561">
							<path id="Ellipse 7" class="shp2" d="M547.43 631.48C506.34 631.48 473.13 624.48 473.13 615.81C473.13 607.14 506.34 600.13 547.43 600.13C588.52 600.13 621.73 607.14 621.73 615.81C621.73 624.48 588.52 631.48 547.43 631.48Z" />
						</g>
					</g>
					<g id="Floor">
						<path id="Line 4" class="shp8" d="M1 539.26L646 539.26L1 539.26Z" />
					</g>
					<g id="Desk">
						<g id="Group 2566">
							<g id="Group 2565">
								<g id="Group 2562">
									<path id="Path 4990" class="shp9" d="M244.38 329.01L358.7 329.01L358.7 539.04L244.38 539.04L244.38 329.01Z" />
									<path id="Rectangle 124" class="shp1" d="M244.38 329.01L358.7 329.01L358.7 342.7L244.38 342.7L244.38 329.01Z" />
								</g>
								<path id="Rectangle 125" class="shp9" d="M13.35 317.96L407.79 317.96L407.79 329.01L13.35 329.01L13.35 317.96Z" />
								<g id="Group 2563">
									<path id="Path 4771" class="shp9" d="M37.73 329.01L37.36 342.7L32.54 539.04L23.81 539.04L23.81 329.01L37.73 329.01Z" />
									<path id="Path 4772" class="shp10" d="M23.81 329.01L37.73 329.01L37.36 342.7L23.81 342.7L23.81 329.01Z" />
								</g>
								<g id="Group 2564">
									<path id="Rectangle 126" class="shp11" d="M358.7 329.01L397.44 329.01L397.44 539.04L358.7 539.04L358.7 329.01Z" />
									<path id="Rectangle 127" class="shp10" d="M358.7 329.01L397.44 329.01L397.44 342.7L358.7 342.7L358.7 329.01Z" />
								</g>
							</g>
						</g>
					</g>
					<g id="Plant">
						<g id="Group 2583">
							<g id="Group 2569">
								<path id="Path 4773" class="shp10" d="M128.79 453.74C123.73 448.78 117.2 442.8 109.47 444.94C102.2 446.94 99.41 454.88 98.11 461.5C96.43 470.02 95.13 478.63 93.77 487.21C92.41 495.88 91.12 504.55 89.87 513.24C89.17 518.14 88.47 523.04 87.79 527.94C87.45 530.39 87.11 532.85 86.77 535.3C86.43 537.7 86.03 540.1 85.9 542.53C85.86 543.3 87.07 543.42 87.24 542.68C88.18 538.59 88.56 534.34 89.16 530.19C89.77 526.01 90.37 521.84 90.98 517.67C92.19 509.38 93.45 501.09 94.7 492.81C95.95 484.52 97.24 476.24 98.56 467.96C99.68 460.94 100.21 452.22 106.44 447.59C109.85 445.05 114.2 445.02 118.07 446.5C122.17 448.06 125.44 450.99 128.64 453.89C128.74 453.99 128.89 453.83 128.79 453.74Z" />
								<g id="Group 2568">
									<path id="Path 4774" class="shp12" d="M121.87 448.68C121.87 448.68 111.53 444.96 106.43 452.5C101.33 460.04 107.43 479.23 154.49 490.05C154.49 490.05 153.25 469.51 143.17 447.51C133.08 425.51 115.1 433.84 121.87 448.68Z" />
									<g id="Group 2567">
										<path id="Path 4775" class="shp10" d="M151.78 486.91C151.13 485.58 150.22 484.34 149.42 483.09C148.63 481.88 147.83 480.67 147.03 479.47C146.42 478.57 145.81 477.67 145.19 476.78C145.23 476.56 145.25 476.33 145.28 476.1C145.33 475.7 145.38 475.29 145.44 474.88C145.55 474 145.68 473.12 145.81 472.24C145.94 471.36 146.09 470.49 146.25 469.62C146.42 468.72 146.51 467.67 146.87 466.84C146.93 466.7 146.68 466.64 146.66 466.8C146.61 467.32 146.38 467.85 146.24 468.36C146.13 468.75 146.03 469.15 145.93 469.55C145.7 470.44 145.48 471.33 145.28 472.23C145.1 473.06 144.94 473.89 144.8 474.73C144.73 475.13 144.67 475.54 144.61 475.94C143.78 474.74 142.92 473.56 142.04 472.39C139.54 469.1 136.9 465.94 134.16 462.85C134.17 462.81 134.2 462.8 134.2 462.76C134.45 457.81 134.33 452.92 135.43 448.06C135.46 447.93 135.26 447.85 135.23 447.98C134.2 452.55 133.17 457.34 133.47 462.05C132.49 460.96 131.5 459.87 130.49 458.79C128.2 456.33 125.87 453.9 123.48 451.53C123.39 451.43 123.23 451.57 123.33 451.67C127.29 455.94 131.06 460.38 134.73 464.91C131.87 464.82 128.96 465.02 126.12 465.23C122.93 465.47 119.76 465.87 116.59 466.31C116.46 466.33 116.5 466.54 116.64 466.52C119.79 466.05 122.97 465.8 126.15 465.67C129.22 465.54 132.27 465.68 135.34 465.67C137.32 468.13 139.28 470.6 141.22 473.1C141.08 473.09 140.93 473.09 140.78 473.09C140.06 473.08 139.33 473.06 138.61 473.08C137.18 473.1 135.75 473.2 134.33 473.32C131.41 473.57 128.5 473.98 125.64 474.62C125.5 474.65 125.54 474.85 125.68 474.83C128.57 474.51 131.47 474.23 134.38 474.13C135.76 474.08 137.15 474.08 138.54 474.08C139.26 474.08 139.98 474.08 140.7 474.09C141.14 474.1 141.53 474.14 141.89 473.98C143.16 475.62 144.42 477.27 145.68 478.92C146.67 480.23 147.66 481.56 148.63 482.9C149.62 484.26 150.51 485.75 151.61 487.03C151.69 487.13 151.83 487.02 151.78 486.91Z" />
										<path id="Path 4776" class="shp10" d="M126.37 459.36C124.72 459.1 123.01 459.12 121.34 459.12C119.66 459.12 117.98 459.17 116.3 459.23C116.15 459.23 116.16 459.45 116.31 459.44C118.01 459.32 119.72 459.29 121.42 459.31C123.07 459.34 124.72 459.49 126.36 459.45C126.42 459.45 126.42 459.37 126.37 459.36Z" />
										<path id="Path 4777" class="shp10" d="M141.14 463.16C141.33 461.55 141.53 459.94 141.88 458.35C141.91 458.2 141.69 458.16 141.67 458.31C141.43 459.89 141.12 461.46 140.89 463.05C140.77 463.84 140.66 464.63 140.57 465.43C140.48 466.15 140.31 466.94 140.37 467.67C140.39 467.81 140.61 467.82 140.65 467.69C140.84 466.98 140.82 466.18 140.89 465.45C140.96 464.69 141.05 463.92 141.14 463.16Z" />
										<path id="Path 4778" class="shp10" d="M138.04 445.35C137.63 446.92 137.22 448.5 136.94 450.09C136.79 450.9 136.66 451.71 136.56 452.52C136.45 453.3 136.31 454.12 136.4 454.9C136.41 454.96 136.5 454.97 136.52 454.91C136.75 454.18 136.79 453.39 136.89 452.64C137 451.86 137.12 451.08 137.25 450.3C137.54 448.66 137.83 447.04 138.24 445.42C138.28 445.29 138.08 445.22 138.04 445.35Z" />
									</g>
								</g>
							</g>
							<g id="Group 2571">
								<path id="Path 4779" class="shp10" d="M76.77 540.79C76.51 537.83 76.22 534.87 75.91 531.91C75.29 526.05 74.57 520.2 73.79 514.36C73 508.53 72.25 502.7 71.32 496.89C70.89 494.23 70.45 491.51 69.52 488.96C68.73 486.78 67.42 484.8 65.13 484.01C59.6 482.1 55.86 487.84 53.63 491.9C53.56 492.02 53.73 492.11 53.81 492C55.15 490.08 58.85 484.68 63.05 484.93C65.87 485.1 68.14 487.1 69.49 494.15C72.87 511.7 75.92 547.33 76.27 549.67C76.46 550.9 77.34 550.85 77.34 549.52C77.36 546.61 77.02 543.69 76.77 540.79Z" />
								<path id="Path 4780" class="shp12" d="M55.12 489.71C55.12 489.71 59.96 472.63 49.26 481.17C31.45 495.39 30.82 526.33 30.82 526.33C30.82 526.33 62.47 507.94 66.41 495.82C72.27 477.75 55.12 489.71 55.12 489.71Z" />
								<g id="Group 2570">
									<path id="Path 4781" class="shp10" d="M61.11 498.1C58.62 498.61 56.11 498.94 53.6 499.3C52.41 499.47 51.22 499.64 50.04 499.8C49.23 499.91 48.42 499.99 47.61 500.09C49.97 496.84 52.35 493.6 54.61 490.29C54.7 490.16 54.5 490.03 54.4 490.13C52.52 492.04 50.78 494.11 49.11 496.24C48.64 494.91 48.17 493.59 47.71 492.27C47.17 490.74 46.59 489.22 46.2 487.64C46.17 487.51 45.96 487.57 46 487.7C46.43 489.27 46.73 490.87 47.15 492.44C47.56 493.95 48.02 495.45 48.56 496.93C47.4 498.43 46.28 499.97 45.2 501.53C44.66 499.99 43.98 498.49 43.51 496.92C43.46 496.79 43.26 496.86 43.3 496.99C43.87 498.72 44.18 500.52 44.71 502.27C43.98 503.33 43.25 504.39 42.56 505.46C41.28 507.44 40.08 509.45 38.9 511.48C38.71 511.58 38.6 511.73 38.62 511.95C36.62 515.41 34.72 518.92 32.84 522.46C32.78 522.59 32.96 522.69 33.03 522.57C34.91 519.07 37 515.66 39.17 512.32C39.18 512.31 39.19 512.32 39.19 512.31C39.42 512.19 39.95 512.17 40.23 512.11C40.59 512.04 40.96 511.96 41.32 511.88C42.14 511.7 42.95 511.49 43.77 511.28C45.37 510.89 46.96 510.51 48.59 510.23C48.72 510.2 48.66 510 48.53 510.02C46.61 510.39 44.69 510.61 42.75 510.83C41.84 510.94 40.93 511.05 40.02 511.2C39.98 511.2 39.93 511.21 39.89 511.22C41.03 509.49 42.18 507.77 43.35 506.07C44.5 504.41 45.68 502.76 46.87 501.11C47.96 500.96 49.05 500.67 50.14 500.46C51.37 500.23 52.59 499.99 53.82 499.75C56.27 499.26 58.71 498.71 61.17 498.31C61.3 498.28 61.24 498.08 61.11 498.1Z" />
									<path id="Path 4782" class="shp10" d="M42.08 499.79C41.94 499.34 41.8 498.88 41.66 498.43C41.36 497.48 41.13 496.53 40.93 495.56C40.91 495.43 40.7 495.49 40.73 495.62C40.94 496.59 41.16 497.55 41.38 498.51C41.6 499.46 41.84 500.46 42.21 501.35C42.3 501.58 42.64 501.48 42.57 501.24C42.44 500.75 42.24 500.27 42.08 499.79Z" />
									<path id="Path 4783" class="shp10" d="M64.35 494.15C62.9 494.36 61.45 494.47 59.99 494.59C58.53 494.72 57.09 494.92 55.64 495.14C55.57 495.15 55.56 495.27 55.65 495.27C57.11 495.17 58.55 495.05 60 494.86C61.45 494.68 62.9 494.46 64.35 494.36C64.49 494.35 64.48 494.13 64.35 494.15Z" />
								</g>
							</g>
							<g id="Group 2574">
								<path id="Path 4784" class="shp10" d="M100.06 519.16C99.5 506.58 98.7 494.02 97.44 481.49C96.81 475.25 96.1 469.01 95.23 462.8C94.36 456.71 93.31 450.63 91.62 444.71C90.33 440.18 88.63 435.64 85.6 431.96C82.62 428.33 78.21 426.06 73.44 426.65C67.93 427.33 63.5 430.8 59.66 434.57C55.36 438.8 51.42 443.41 47.43 447.94C46.43 449.08 45.43 450.23 44.43 451.39C44.35 451.49 44.5 451.64 44.59 451.54C48.48 447.06 52.53 442.71 56.77 438.55C60.68 434.71 64.71 430.51 70.14 428.93C72.65 428.19 75.37 427.99 77.9 428.74C79.95 429.35 81.74 430.57 83.21 432.1C86.26 435.28 87.97 439.58 89.19 443.74C92.58 455.3 93.79 467.43 95.04 479.37C96.32 491.5 97.18 503.67 97.79 515.85C98.41 528.1 98.88 540.36 100.06 552.58C100.21 554.08 100.4 555.59 100.59 557.09C100.72 558.1 102.29 558.1 102.21 557.05C101.21 544.43 100.63 531.8 100.06 519.16Z" />
								<g id="Group 2573">
									<path id="Path 4785" class="shp12" d="M58.97 435.93C58.97 435.93 66.15 422.63 57.66 418.37C49.17 414.11 20.76 445.82 12.46 492.19C12.46 492.19 58.35 471.89 73.93 451.66C89.52 431.43 71.85 426.97 58.97 435.93Z" />
									<g id="Group 2572">
										<path id="Path 4786" class="shp10" d="M65.72 446.74C60.56 446.76 55.41 446.35 50.26 446.39C51.22 445.28 52.19 444.17 53.16 443.07C54.51 441.55 56.05 440.07 57.19 438.39C57.27 438.28 57.11 438.13 57.01 438.21C55.58 439.33 54.35 440.8 53.1 442.12C51.81 443.5 50.53 444.87 49.25 446.26C47.28 448.39 45.35 450.56 43.42 452.73C43.41 452.52 43.41 452.31 43.41 452.11C43.42 451.2 43.41 450.3 43.42 449.4C43.43 447.65 43.45 445.9 43.47 444.15C43.5 440.6 43.5 437.04 43.74 433.5C43.75 433.36 43.54 433.37 43.53 433.51C43.28 437.06 42.92 440.6 42.74 444.17C42.65 445.92 42.61 447.66 42.59 449.42C42.58 450.32 42.57 451.22 42.57 452.13C42.58 452.62 42.56 453.14 42.6 453.65C42.29 453.99 41.98 454.32 41.68 454.66C37.57 459.36 33.65 464.22 29.84 469.18C29.84 468.9 29.8 468.62 29.78 468.35C29.72 467.81 29.66 467.26 29.6 466.72C29.46 465.53 29.3 464.36 29.12 463.18C28.96 462.07 28.78 460.97 28.6 459.86C28.39 458.63 28.09 457.37 27.99 456.11C27.98 455.96 27.75 456 27.78 456.15C28.05 457.38 28.1 458.68 28.21 459.92C28.32 461.06 28.43 462.19 28.53 463.33C28.63 464.47 28.73 465.6 28.85 466.74C28.91 467.28 28.96 467.83 29.01 468.37C29.04 468.65 29.08 468.92 29.11 469.19C29.16 469.55 29.22 469.6 29.34 469.84C28.68 470.69 28.02 471.54 27.37 472.4C24.77 475.85 22.22 479.33 19.66 482.81C19.58 482.91 19.73 483.06 19.82 482.95C22.24 479.8 24.73 476.7 27.25 473.63C29.14 473.71 31.06 473.57 32.95 473.54C34.94 473.51 36.93 473.5 38.92 473.49C39.06 473.49 39.05 473.28 38.91 473.28C36.92 473.31 34.93 473.34 32.94 473.35C31.13 473.36 29.28 473.27 27.46 473.37C29.68 470.67 31.93 467.99 34.17 465.32C34.99 464.34 35.82 463.37 36.64 462.4C37.38 462.55 38.19 462.47 38.94 462.47C39.85 462.47 40.75 462.47 41.66 462.47C43.35 462.46 45.05 462.42 46.74 462.4C50.24 462.34 53.75 462.23 57.25 462.22C57.39 462.22 57.38 462.01 57.24 462.01C53.74 461.96 50.23 461.81 46.72 461.72C45.03 461.68 43.33 461.62 41.63 461.6C40.73 461.59 39.83 461.58 38.92 461.57C38.41 461.57 37.88 461.53 37.35 461.55C39.28 459.26 41.2 456.98 43.13 454.7C43.18 454.67 43.22 454.63 43.24 454.57C45.12 452.35 47 450.14 48.9 447.94C49.16 447.63 49.43 447.34 49.69 447.04C55.04 447.2 60.38 446.85 65.72 446.96C65.86 446.96 65.85 446.74 65.72 446.74Z" />
										<path id="Path 4787" class="shp10" d="M63.08 455.86C62.66 455.87 62.24 455.87 61.83 455.87C61.71 455.87 61.71 456.06 61.83 456.07C62.25 456.07 62.67 456.07 63.08 456.08C63.22 456.08 63.22 455.86 63.08 455.86Z" />
										<path id="Path 4788" class="shp10" d="M60.3 455.88C58.65 455.86 57 455.82 55.34 455.77C54.52 455.75 53.69 455.72 52.87 455.69C52.13 455.67 51.28 455.55 50.56 455.72C50.48 455.74 50.49 455.85 50.56 455.88C51.28 456.09 52.13 456.02 52.87 456.04C53.7 456.05 54.53 456.07 55.35 456.07C57 456.09 58.65 456.1 60.31 456.09C60.44 456.09 60.44 455.88 60.3 455.88Z" />
										<path id="Path 4789" class="shp10" d="M45.87 471.37C42.52 470.89 39.12 470.42 35.73 470.45C35.68 470.45 35.68 470.52 35.73 470.52C39.1 470.84 42.48 471.03 45.82 471.57C45.96 471.59 46.01 471.38 45.87 471.37Z" />
										<path id="Path 4790" class="shp10" d="M32.08 456.6C32.05 456.31 32.01 456.01 31.97 455.72C31.89 455.05 31.78 454.39 31.68 453.73C31.48 452.47 31.26 451.21 31.02 449.96C31 449.84 30.8 449.87 30.81 449.99C30.97 451.29 31.11 452.59 31.23 453.89C31.29 454.53 31.34 455.17 31.4 455.8C31.45 456.38 31.4 457.1 31.65 457.62C31.75 457.82 32.05 457.74 32.1 457.55C32.19 457.24 32.12 456.92 32.08 456.6Z" />
									</g>
								</g>
							</g>
							<g id="Group 2577">
								<path id="Path 4791" class="shp10" d="M99.61 418.86C97.97 415.8 95.88 411.76 91.78 412.02C88.39 412.23 86.87 415.68 86.14 418.54C83.91 427.37 83.75 436.68 83.32 445.73C82.4 464.86 81.57 484.01 81.45 503.16C81.42 508.47 81.43 513.78 81.48 519.08C81.53 524.5 81.52 529.94 81.86 535.35C81.9 535.86 82.65 535.84 82.66 535.33C82.69 530.7 82.52 526.06 82.51 521.43C82.49 516.91 82.52 512.39 82.6 507.87C82.74 498.72 82.99 489.57 83.33 480.42C83.66 471.33 84.06 462.24 84.45 453.15C84.64 448.6 84.83 444.06 85.04 439.52C85.24 435.12 85.43 430.71 85.93 426.33C86.21 423.88 86.58 421.43 87.09 419.01C87.45 417.29 87.98 415.43 89.2 414.11C90.82 412.36 93.27 412.49 95.19 413.67C97.17 414.9 98.38 416.94 99.43 418.97C99.49 419.09 99.68 418.98 99.61 418.86Z" />
								<g id="Group 2576">
									<path id="Path 4792" class="shp12" d="M98.5 417.4C98.5 417.4 95.13 405.49 102.58 411.44C114.99 421.35 115.43 442.9 115.43 442.9C115.43 442.9 93.38 430.09 90.64 421.65C86.55 409.06 98.5 417.4 98.5 417.4Z" />
									<g id="Group 2575">
										<path id="Path 4793" class="shp10" d="M110.79 434.07C110.59 433.74 110.37 433.42 110.16 433.09C110.22 432.76 110.16 432.39 110.16 432.08C110.16 431.56 110.15 431.05 110.17 430.54C110.19 429.53 110.23 428.53 110.28 427.53C110.28 427.39 110.07 427.39 110.06 427.53C110.01 428.52 109.97 429.5 109.94 430.49C109.93 430.98 109.91 431.48 109.89 431.97C109.89 432.16 109.86 432.38 109.85 432.6C108.98 431.26 108.1 429.93 107.18 428.62C106.91 428.24 106.63 427.87 106.36 427.5C106.16 426.23 106.28 424.89 106.29 423.61C106.31 422.23 106.33 420.85 106.38 419.46C106.38 419.33 106.17 419.33 106.16 419.47C106.12 420.91 106.05 422.34 105.98 423.78C105.93 424.8 105.83 425.84 105.9 426.86C103.76 423.97 101.51 421.17 99.22 418.4C99.14 418.3 98.98 418.43 99.05 418.53C100.47 420.32 101.83 422.16 103.16 424.02C100.56 423.41 97.93 423.07 95.29 422.69C95.16 422.67 95.1 422.87 95.24 422.89C98.03 423.31 100.77 424.01 103.52 424.62C103.55 424.63 103.56 424.61 103.58 424.61C104.64 426.1 105.68 427.6 106.72 429.09C107.14 429.7 107.55 430.32 107.97 430.94C107.93 430.93 107.89 430.93 107.85 430.92C107.56 430.88 107.28 430.84 106.99 430.8C106.38 430.73 105.77 430.68 105.16 430.63C103.89 430.53 102.61 430.47 101.34 430.4C101.2 430.39 101.21 430.61 101.34 430.61C102.6 430.64 103.84 430.73 105.09 430.87C105.75 430.94 106.41 431.03 107.06 431.11C107.35 431.14 107.64 431.17 107.92 431.21C108.01 431.22 108.09 431.23 108.18 431.25C108.88 432.29 109.59 433.33 110.3 434.37C111.54 436.21 112.65 438.18 113.98 439.96C114.06 440.07 114.21 439.97 114.16 439.86C113.23 437.85 111.95 435.95 110.79 434.07Z" />
										<path id="Path 4794" class="shp10" d="M105.3 420.62C105.3 420.16 105.31 419.7 105.31 419.23C105.3 418.26 105.29 417.28 105.42 416.32C105.44 416.16 105.21 416.14 105.21 416.29C105.21 417.26 105.11 418.22 105.06 419.18C105.04 419.66 105.04 420.15 105.04 420.63C105.04 420.85 105.04 421.07 105.04 421.3C105.04 421.52 105.01 421.78 105.09 421.99C105.12 422.08 105.24 422.07 105.27 421.98C105.34 421.78 105.31 421.56 105.3 421.35C105.3 421.11 105.3 420.86 105.3 420.62Z" />
										<path id="Path 4795" class="shp10" d="M102.57 425.55C101.75 425.41 100.91 425.37 100.08 425.3C99.17 425.22 98.27 425.14 97.36 425.03C97.21 425.01 97.18 425.23 97.34 425.24C99.08 425.35 100.81 425.66 102.55 425.72C102.65 425.72 102.67 425.57 102.57 425.55Z" />
									</g>
								</g>
								<path id="Path 4796" class="shp10" d="M109.5 425.63C109.56 425.72 109.52 425.98 109.52 426.08L109.52 426.47C109.52 426.75 109.52 427.02 109.51 427.3C109.51 427.58 109.51 427.85 109.51 428.13C109.51 428.35 109.45 428.66 109.55 428.86C109.56 428.89 109.62 428.89 109.63 428.86C109.68 428.75 109.67 428.63 109.67 428.51C109.67 428.38 109.67 428.26 109.67 428.13C109.67 427.85 109.66 427.57 109.66 427.3C109.66 427.02 109.66 426.74 109.66 426.46L109.66 426.08C109.66 425.96 109.61 425.72 109.68 425.62C109.82 425.43 109.36 425.43 109.5 425.63Z" />
							</g>
							<g id="Group 2580">
								<path id="Path 4797" class="shp10" d="M100.12 482.37C95.49 478.89 91.32 473.88 85.08 473.64C79.93 473.44 76.33 477.31 74.26 481.63C73.18 483.9 72.43 486.32 71.74 488.74C70.81 492 69.93 495.27 69.11 498.56C67.5 505.02 66.11 511.55 64.98 518.12C64.36 521.78 63.77 525.46 63.31 529.14C62.84 532.86 62.23 536.68 62.23 540.43C62.23 541.08 63.25 541.21 63.38 540.56C64.01 537.47 64.27 534.29 64.72 531.18C65.18 528.04 65.65 524.91 66.18 521.79C67.25 515.54 68.47 509.32 69.88 503.14C71.21 497.31 72.52 491.38 74.4 485.7C75.75 481.63 77.91 476.87 82.31 475.41C89 473.18 95.08 478.85 99.98 482.52C100.09 482.6 100.23 482.45 100.12 482.37Z" />
								<g id="Group 2579">
									<path id="Path 4798" class="shp12" d="M95.32 479.04C95.32 479.04 91.05 466.83 97.23 464.44C106.5 460.85 130.75 488.17 126 530.02C126 530.02 107.26 519.7 93.43 508.08C79.59 496.47 76.05 481.3 82.15 477.38C88.24 473.46 95.32 479.04 95.32 479.04Z" />
									<g id="Group 2578">
										<path id="Path 4799" class="shp10" d="M123.2 521.05C122.66 519.57 121.71 518.2 120.95 516.83C120.16 515.4 119.36 513.97 118.53 512.55C116.92 509.8 115.32 507.04 113.67 504.31C113.4 503.87 113.13 503.43 112.86 502.99C112.89 502.82 112.92 502.66 112.96 502.5L113.24 501.28C113.44 500.38 113.6 499.46 113.77 498.55C114.11 496.75 114.42 494.94 114.9 493.18C114.94 493.05 114.72 493.01 114.69 493.14C114.31 494.93 113.74 496.69 113.21 498.45C112.95 499.31 112.68 500.17 112.45 501.04C112.37 501.34 112.29 501.64 112.21 501.94C110.22 498.67 108.2 495.42 106.01 492.28C106.19 491.87 106.18 491.41 106.23 490.94C106.29 490.33 106.37 489.71 106.44 489.1C106.6 487.73 106.76 486.35 106.96 484.98C107.36 482.28 107.76 479.6 108.43 476.96C108.46 476.83 108.25 476.79 108.22 476.92C107.55 479.56 106.83 482.19 106.33 484.87C106.08 486.18 105.85 487.49 105.67 488.81C105.59 489.47 105.52 490.14 105.45 490.8C105.43 491 105.4 491.2 105.37 491.4C104.7 490.45 104.03 489.5 103.32 488.58C101.18 485.76 98.97 483.01 96.73 480.27C96.64 480.17 96.47 480.29 96.55 480.4C100.48 485.2 103.81 490.53 107.09 495.79C107.71 496.77 108.31 497.76 108.91 498.74C108.71 498.72 108.51 498.69 108.31 498.67C107.53 498.57 106.73 498.52 105.95 498.45C104.37 498.3 102.8 498.16 101.22 498.04C98.06 497.79 94.89 497.59 91.75 497.26C91.61 497.24 91.57 497.45 91.71 497.46C94.9 497.83 98.08 498.34 101.25 498.79C102.82 499.02 104.38 499.23 105.95 499.43C107.03 499.56 108.38 499.89 109.56 499.8C110.8 501.81 112.05 503.82 113.28 505.84C113.01 505.8 112.72 505.81 112.44 505.81C111.92 505.8 111.39 505.8 110.87 505.8C109.89 505.8 108.91 505.8 107.93 505.8C105.9 505.8 103.87 505.84 101.83 505.84C101.7 505.84 101.72 506.05 101.86 506.05C103.92 506.08 105.97 506.18 108.03 506.29C109 506.34 109.98 506.4 110.95 506.46C111.44 506.5 111.93 506.54 112.41 506.57C112.84 506.6 113.3 506.68 113.7 506.52C114.75 508.24 115.82 509.94 116.87 511.66C117.84 513.24 118.82 514.82 119.82 516.38C120.83 517.95 121.76 519.76 123 521.16C123.08 521.25 123.25 521.18 123.2 521.05Z" />
										<path id="Path 4800" class="shp10" d="M114.27 487.22C114.13 488.56 113.77 489.9 113.44 491.2C113.09 492.56 112.7 493.9 112.26 495.23C112.2 495.41 112.45 495.49 112.51 495.31C112.92 493.99 113.3 492.66 113.62 491.32C113.95 489.97 114.16 488.6 114.48 487.26C114.52 487.12 114.29 487.08 114.27 487.22Z" />
										<path id="Path 4801" class="shp10" d="M100.51 495.4C100.22 495.1 99.89 495.07 99.49 495.02C98.9 494.93 98.31 494.85 97.72 494.77C96.62 494.62 95.52 494.5 94.42 494.37C92.14 494.11 89.85 493.89 87.57 493.6C87.44 493.58 87.4 493.79 87.54 493.81C89.69 494.07 91.83 494.39 93.98 494.68C95.03 494.81 96.09 494.96 97.14 495.09C97.65 495.15 98.16 495.2 98.67 495.26C99.23 495.32 99.89 495.3 100.41 495.56C100.51 495.6 100.58 495.47 100.51 495.4Z" />
										<path id="Path 4802" class="shp10" d="M114.24 513.8C113.17 513.71 112.08 513.68 111 513.64C110.45 513.62 109.91 513.61 109.36 513.59C109.1 513.58 108.84 513.58 108.58 513.57C108.25 513.56 107.88 513.59 107.56 513.51C107.4 513.47 107.39 513.74 107.55 513.72C107.85 513.67 108.2 513.73 108.5 513.75C108.79 513.76 109.07 513.78 109.35 513.8C109.9 513.83 110.44 513.86 110.99 513.9C112.07 513.96 113.15 514.03 114.23 514.03C114.36 514.03 114.37 513.81 114.24 513.8Z" />
										<path id="Path 4803" class="shp10" d="M120.85 509.12C120.97 508.51 121.09 507.89 121.2 507.28C121.42 506.07 121.64 504.87 121.87 503.66C121.89 503.52 121.69 503.49 121.66 503.62C121.39 504.8 121.13 505.97 120.86 507.15C120.73 507.73 120.6 508.32 120.47 508.91C120.42 509.18 120.36 509.46 120.31 509.73C120.25 510.01 120.16 510.3 120.21 510.59C120.23 510.69 120.37 510.77 120.44 510.67C120.73 510.24 120.75 509.62 120.85 509.12Z" />
									</g>
								</g>
							</g>
							<g id="Group 2582">
								<g id="Group 2581">
									<path id="Path 4804" class="shp9" d="M118.35 545.19L117.31 562.49L114.23 613.56L51.09 613.56L48.01 562.49L46.97 545.19L118.35 545.19Z" />
									<path id="Path 4805" class="shp1" d="M118.35 545.19L117.31 562.49L48.01 562.49L46.97 545.19L118.35 545.19Z" />
								</g>
								<path id="Rectangle 128" class="shp9" d="M42.13 532.95L123.19 532.95L123.19 550.26L42.13 550.26L42.13 532.95Z" />
							</g>
						</g>
					</g>
					<g id="Character 3">
						<g id="Group 2632">
							<g id="Group 2594">
								<g id="Group 2588">
									<g id="Group 2584">
										<path id="Path 4806" class="shp13" d="M314.01 528.51C314.01 528.51 305.29 592.62 305.29 592.66C305.13 604.93 304.77 615.67 304.07 621.21C304.07 621.24 304.07 621.27 304.06 621.3C303.79 623.4 303.48 624.73 303.1 625.08C303.07 625.11 303.06 625.14 303.03 625.16C299.35 627.58 201.33 629.18 197.9 628.08C194.44 627 197.31 617.1 201.06 614.01C204.85 610.91 242.09 593.51 242.09 593.51L251.41 529.44L314.01 528.51Z" />
										<path id="Path 4807" class="shp1" d="M305.15 600.55C304.96 609.44 304.62 616.9 304.07 621.22C304.07 621.25 304.07 621.28 304.05 621.31C303.8 623.39 303.49 624.73 303.1 625.07C303.07 625.1 303.07 625.13 303.04 625.15C299.35 627.58 201.33 629.17 197.89 628.08C194.44 627 197.31 617.11 201.06 614.01C202.87 612.54 212.33 607.79 221.71 603.23C218.75 605.57 215.76 608.44 217.11 609.6C219.53 611.64 278.96 609.5 305.15 600.55Z" />
										<path id="Path 4808" class="shp1" d="M227.24 600.55C227.24 600.55 244.59 592.65 274.33 606.93" />
									</g>
									<g id="Group 2587">
										<g id="Group 2585">
											<path id="Path 4809" class="shp1" d="M328.65 572.7L243.24 571.33L286.22 250.82L344.12 250.82L328.65 572.7Z" />
										</g>
										<path id="Path 4810" class="shp9" d="M344.12 250.82L333.15 479.13L304.35 250.82L344.12 250.82Z" />
										<g id="Group 2586">
											<path id="Path 4811" class="shp9" d="M324.54 557.85C321.97 557.57 319.32 557.57 316.73 557.48C314.26 557.38 311.77 557.34 309.29 557.3C304.15 557.21 299 557.12 293.86 557.07C283.69 556.97 273.52 556.9 263.35 556.93C257.57 556.94 251.82 557.11 246.05 557.37C245.86 557.38 245.86 557.65 246.05 557.66C256.27 558.27 266.49 558.43 276.74 558.56C286.91 558.68 297.07 558.72 307.24 558.71C310.09 558.71 312.95 558.69 315.8 558.66C318.69 558.63 321.66 558.66 324.54 558.39C324.89 558.36 324.89 557.89 324.54 557.85Z" />
											<path id="Path 4812" class="shp9" d="M297.15 267.53C292.11 303.92 287.45 340.37 282.5 376.77C277.58 413.03 272.35 449.24 267.09 485.45C264.13 505.76 261.02 526.06 258.3 546.41C258.26 546.72 258.72 546.85 258.78 546.53C265.45 510.4 270.73 473.99 275.99 437.64C281.24 401.43 286.12 365.16 290.6 328.85C293.12 308.45 295.55 288.03 297.62 267.58C297.65 267.32 297.19 267.26 297.15 267.53Z" />
										</g>
									</g>
								</g>
								<g id="Group 2593">
									<g id="Group 2589">
										<path id="Path 4813" class="shp13" d="M344.2 529.45C344.2 529.45 352.41 590.57 352.41 590.61C352.49 602.88 352.78 613.62 353.44 619.17C353.44 619.2 353.44 619.23 353.46 619.26C353.71 621.35 354.01 622.69 354.39 623.04C354.41 623.07 354.43 623.1 354.46 623.12C358.12 625.57 445.64 627.79 449.08 626.72C452.54 625.66 449.74 615.75 446.01 612.63C442.24 609.5 415.6 591.87 415.6 591.87L405.32 527.83L344.2 529.45Z" />
										<path id="Path 4814" class="shp1" d="M449.09 626.73C445.65 627.8 358.13 625.57 354.45 623.12C354.42 623.11 354.42 623.06 354.39 623.03C354 622.69 353.71 621.35 353.45 619.25C353.44 619.22 353.44 619.19 353.44 619.16C352.84 614.07 352.62 610.79 352.52 599.77C366.82 608.82 403.82 612.86 415.58 610.29C426 607.99 423.72 599.6 421.53 595.82C429.6 601.19 443.37 610.44 446 612.63C449.74 615.74 452.54 625.66 449.09 626.73Z" />
										<path id="Path 4815" class="shp1" d="M421.53 595.82C421.53 595.82 392.07 591.02 371.93 606.93" />
									</g>
									<g id="Group 2592">
										<path id="Path 4816" class="shp1" d="M292.1 250.76C292.1 250.76 292.1 250.78 292.11 250.82C292.37 252.01 296.42 270.8 300.62 286.94C303.67 298.73 306.81 309.1 308.61 310.17C310.65 311.38 320.6 315.78 323.93 317.17L336.94 572.09L425.32 570.11L379.16 292.05L371.35 250.76L292.1 250.76Z" />
										<g id="Group 2591">
											<g id="Group 2590">
												<path id="Path 4817" class="shp9" d="M303.32 307.53C310.42 309.98 317.27 313.45 323.82 317.08C324.08 317.23 323.91 317.62 323.63 317.5C316.72 314.54 309.68 311.7 302.95 308.36C302.42 308.1 302.77 307.35 303.32 307.53Z" />
												<path id="Path 4818" class="shp9" d="M301.24 260.23C301.26 259.99 301.68 259.93 301.68 260.19C301.62 268.39 302.14 275.61 302.83 283.27C303.15 286.83 306.02 306.49 312.18 305.05C313.22 304.81 313.74 303.8 313.91 302.24C314.1 300.37 313.4 298.07 313.09 296.21C312.4 292.1 311.85 287.97 311.5 283.81C310.84 276.05 310.81 268.29 311.75 260.55C311.78 260.3 312.15 260.31 312.15 260.57C312.14 271.32 312.42 282.04 314.03 292.68C314.8 297.79 317.37 305.49 312.03 306.28C306.58 307.08 303.05 294.18 302.39 290.66C300.53 280.81 300.46 270.19 301.24 260.23Z" />
												<path id="Path 4819" class="shp9" d="M312.02 305.58C312.58 306.9 313.03 308.28 313.41 309.66C313.7 310.73 314.11 311.89 313.98 313.01C313.96 313.23 313.67 313.25 313.56 313.1C312.83 312.18 312.53 310.93 312.12 309.84C311.66 308.58 311.16 307.33 310.72 306.06C310.44 305.21 311.68 304.77 312.02 305.58Z" />
											</g>
											<path id="Path 4820" class="shp9" d="M420.27 557.94C417.69 557.72 415.04 557.81 412.45 557.78C409.97 557.76 407.49 557.78 405.01 557.81C399.86 557.88 394.71 557.93 389.57 558.03C379.4 558.22 369.24 558.44 359.07 558.76C353.3 558.94 347.55 559.28 341.79 559.7C341.61 559.71 341.61 559.98 341.8 559.99C352.03 560.3 362.26 560.17 372.5 560.01C382.67 559.84 392.83 559.59 403 559.29C405.85 559.21 408.7 559.1 411.55 558.99C414.44 558.88 417.41 558.83 420.28 558.47C420.62 558.43 420.61 557.96 420.27 557.94Z" />
											<path id="Path 4821" class="shp9" d="M381.55 523.61C380.79 515.83 379.97 508.04 379.16 500.26C377.55 484.84 375.88 469.43 374.19 454.02C370.8 423.19 367.31 392.37 363.78 361.55C361.8 344.27 360.17 326.92 357.92 309.66C357.9 309.51 357.66 309.51 357.67 309.67C359.01 325.26 360.92 340.81 362.5 356.38C364.07 371.8 365.59 387.22 367.19 402.63C370.39 433.46 373.7 464.29 377.06 495.1C378 503.76 378.96 512.41 379.98 521.05C381 529.71 382.19 538.34 383.27 546.99C383.3 547.2 383.63 547.2 383.61 546.98C382.9 539.19 382.32 531.4 381.55 523.61Z" />
										</g>
									</g>
								</g>
								<path id="Path 4822" class="shp1" d="M285.53 285.97L300.62 286.94L344.58 289.8L379.16 292.05L371.35 250.76L292.1 250.76C292.1 250.76 292.1 250.78 292.11 250.82L286.22 250.82L285.53 285.97Z" />
							</g>
							<g id="Group 2631">
								<g id="Group 2595">
									<path id="Path 4823" class="shp14" d="M306.64 89.52C292.2 101.9 296.22 119.95 290.19 129.74C286.5 135.73 274.5 142.06 272.11 148.96C268.18 160.29 277.79 164.36 275.64 170.52C272.6 179.25 260.91 178.57 258.81 192.86C256.7 207.14 272.42 222.33 309.71 226.44C347 230.56 367.49 216.9 368.82 204.79C370.16 192.67 357.75 188.64 356.91 179.59C356.37 173.81 364.03 169.78 364.42 159.14C364.8 148.5 354.43 145.04 352.95 136C351.46 126.93 356.25 105.01 342.97 93.79C329.69 82.58 313.77 83.42 306.64 89.52Z" />
									<path id="Path 4824" class="shp14" d="M308.31 89.85C304.2 92.74 301.07 96.46 298.73 100.91C296.3 105.52 294.69 110.53 293.4 115.57C292.63 118.54 291.93 121.6 290.5 124.34C289.27 126.72 287.47 128.73 285.5 130.52C281.46 134.17 276.65 136.94 273.02 141.04C269.59 144.93 266.92 150.12 268.29 155.41C269.04 158.29 270.94 160.64 272.12 163.32C273.23 165.87 273.68 169.03 271.5 171.14C269.63 172.95 266.93 173.78 264.81 175.26C262.74 176.71 260.88 178.5 259.37 180.54C256.3 184.7 254.97 189.77 255.94 194.88C258.13 206.48 269.02 213.08 279.06 217.23C280.47 217.81 281.87 218.37 283.28 218.93C283.5 219.02 283.68 218.71 283.46 218.61C273.38 214.1 261.68 208.8 257.8 197.52C256.06 192.45 256.63 187.08 259.54 182.56C260.94 180.38 262.79 178.48 264.87 176.95C266.9 175.45 269.24 174.53 271.3 173.11C273.39 171.67 274.59 169.56 274.47 166.98C274.34 164.26 273.01 161.88 271.7 159.57C270.3 157.12 269.12 154.65 269.32 151.76C269.5 149.05 270.76 146.49 272.3 144.3C275.44 139.86 280.09 136.94 284.25 133.58C288.44 130.19 291.8 126.28 293.33 121.03C294.1 118.36 294.58 115.63 295.25 112.94C295.87 110.45 296.59 107.98 297.47 105.57C299.23 100.8 301.72 96.18 305.36 92.57C306.31 91.63 307.32 90.79 308.44 90.05C308.56 89.96 308.44 89.76 308.31 89.85Z" />
									<path id="Path 4825" class="shp14" d="M370.48 195.9C370.02 193.94 369.15 192.06 367.9 190.47C366.6 188.83 365.03 187.44 363.6 185.93C362.24 184.49 360.94 182.88 360.55 180.89C360.07 178.51 361.07 176.22 362.19 174.17C363.36 172.02 364.67 169.98 365.53 167.67C366.36 165.45 366.82 163.09 366.95 160.72C367.22 155.76 365.76 151.06 363.2 146.85C361.92 144.77 360.49 142.79 359.21 140.72C357.79 138.44 356.67 136.05 355.9 133.47C354.22 127.86 353.86 121.94 352.48 116.24C351.08 110.41 348.98 104.76 346.43 99.33C346.37 99.2 346.17 99.32 346.23 99.45C348.54 104.35 350.28 109.47 351.53 114.73C352.71 119.72 353.17 124.81 354.05 129.85C354.48 132.32 355.03 134.78 355.94 137.12C356.79 139.31 357.95 141.35 359.18 143.35C361.7 147.46 364.3 151.52 365 156.39C365.68 161.21 364.87 166.04 362.59 170.35C360.63 174.05 357.88 178.14 359.6 182.48C361.05 186.16 364.56 188.36 366.88 191.4C369.45 194.76 370.19 199.08 369.4 203.19C367.4 213.63 356.93 218.81 347.13 219.33C346.83 219.35 346.84 219.81 347.15 219.81C355.66 219.7 364.93 215.96 368.93 207.99C370.78 204.29 371.43 199.95 370.48 195.9Z" />
								</g>
								<g id="Group 2596">
									<path id="Path 4826" class="shp13" d="M315 163.88C312.35 174.72 280.85 276.33 274.62 277.74C256.25 281.88 234.2 284.91 234.53 269.85C235.04 246.21 279.48 183.97 300.77 163.29C314.79 149.67 317.61 153.17 315 163.88Z" />
								</g>
								<g id="Group 2598">
									<g id="Group 2597">
										<path id="Path 4827" class="shp13" d="M315 163.88C312.35 174.72 280.85 276.33 274.62 277.74C256.25 281.88 234.2 284.91 234.53 269.85C235.04 246.21 279.48 183.97 300.77 163.29C314.79 149.67 317.61 153.17 315 163.88Z" />
										<path id="Path 4828" class="shp5" d="M234.39 275.27C226.77 248.48 291.2 169.68 303.73 159.66C316.27 149.63 317.91 152.76 315.35 165.43C312.8 178.1 282.35 274.01 275.91 277.49C269.48 280.96 237.85 287.41 234.39 275.27Z" />
									</g>
								</g>
								<path id="Path 4829" class="shp15" d="M287.06 224.68L279.98 273.34C279.98 273.34 359.28 274.51 378.96 273.12C378.96 273.12 362.91 182.15 341.74 159.17C331.15 147.68 318.72 148.54 310.8 156.57C308.8 158.61 284.88 190.22 282.36 202.29C280.16 212.95 287.06 224.68 287.06 224.68Z" />
								<g id="Group 2599">
									<path id="Path 4830" class="shp5" d="M332.96 152.43C332.96 152.43 323.73 406.08 328.64 418.13C333.54 430.17 407.25 442.12 407.25 442.12C407.25 442.12 385.62 260.57 365.99 205.47C347.8 154.39 332.96 152.43 332.96 152.43Z" />
									<path id="Path 4831" fill-rule="evenodd" class="shp16" d="M382.69 324.44C383.03 335.28 382.53 347.55 380.22 349.81C375.9 354.03 364.39 353.67 360.79 353.64C357.21 353.62 344.29 353.6 341.26 346.96C339.93 344.03 339.58 328.89 339.61 323.53C339.63 321.48 340.07 311.77 340.25 309.73C340.21 309.5 340.33 309.01 340.52 309.02C343.22 309.05 352.6 309.97 362.04 309.97C371.17 309.97 382.18 308.4 382.21 308.4C382.52 308.49 382.53 319.24 382.69 324.44ZM340.32 309.83C340.56 309.86 340.85 309.9 341.16 309.94C341.15 309.72 341.13 309.54 341.11 309.39C341.08 309.21 340.31 309.18 340.28 309.46C340.27 309.52 340.26 309.61 340.25 309.73C340.26 309.79 340.28 309.83 340.32 309.83ZM341.16 309.94C341.27 311.6 341.18 315.16 341.24 315.91C361.99 318.57 374.83 316.34 381.48 315.06C381.48 313.06 381.48 311.5 381.52 309.5C378.66 310.22 369.06 311.36 361.87 311.36C355.18 311.36 345.34 310.43 341.16 309.94ZM378.96 348.57C381.25 345.94 381.54 338.36 381.53 333.84C381.53 327.6 381.51 322.62 381.49 316.39C365.52 320.1 347.94 318.27 341.27 316.92C341.29 317.19 341.15 330.35 341.27 334.54C341.43 339.89 341.6 344.74 343.66 347.52C345.42 349.9 350.39 352.3 361.82 352.28C370.08 352.27 377.05 350.77 378.96 348.57Z" />
								</g>
								<g id="Group 2600">
									<path id="Path 4832" class="shp5" d="M284.36 419.25C280.28 428.91 255.89 435.46 255.89 435.46L286.62 223.79C286.62 223.79 280.27 214.38 282.33 202.5C284.4 190.62 309.26 156.19 313.27 154.41C313.27 154.41 307.59 176.64 304.65 208.4C297.75 282.8 288.81 408.73 284.36 419.25Z" />
									<path id="Path 4833" class="shp10" d="M290.17 186.42C292.38 182.89 294.65 179.4 296.83 175.85C296.89 175.75 296.73 175.63 296.66 175.73C294.44 178.64 292.28 181.59 290.13 184.55C290.84 182.97 291.53 181.37 292.17 179.75C292.25 179.57 291.99 179.41 291.9 179.6C290.91 181.69 290.02 183.81 289.15 185.94C287.27 188.61 285.51 191.37 284.08 194.31C281.06 200.52 279.76 207.31 281.4 214.1C281.85 215.98 282.51 217.79 283.37 219.51C283.96 220.69 285.87 223.23 285.85 223.3C284.62 230.24 283.68 237.26 282.7 244.24C281.71 251.3 280.71 258.36 279.89 265.44C279.42 269.46 279.12 273.5 278.54 277.49C278.52 277.64 278.74 277.7 278.77 277.55C279.27 274.07 280.03 270.62 280.65 267.16C281.26 263.69 281.85 260.21 282.41 256.74C283.54 249.71 284.54 242.66 285.56 235.62C286.14 231.63 286.77 227.65 287.22 223.65C287.27 223.21 285.47 220.36 284.94 219.27C284.22 217.81 283.64 216.26 283.19 214.69C282.29 211.51 281.98 208.13 282.36 204.84C283.13 198.09 286.62 192.08 290.17 186.42Z" />
									<path id="Path 4834" class="shp16" d="M313.08 155.19C310.74 158.73 308.38 162.24 305.96 165.72C303.54 169.19 301.16 172.69 298.69 176.13L298.64 175.31L304.58 181.53L305.07 182.05L304.55 182.55C302.05 184.98 299.5 187.35 296.97 189.74L297.18 189.12C298.1 195.57 299.08 202.01 299.9 208.48C300.77 214.94 301.59 221.41 302.31 227.89C301.08 221.49 299.95 215.07 298.88 208.64C297.76 202.21 296.8 195.77 295.78 189.33L295.72 188.97L295.99 188.71C298.5 186.3 301.01 183.88 303.55 181.5L303.52 182.52L297.69 176.19L297.33 175.8L297.64 175.37C300.14 171.95 302.74 168.61 305.28 165.22C307.84 161.85 310.44 158.51 313.08 155.19Z" />
								</g>
								<g id="Group 2605">
									<path id="Path 4835" class="shp13" d="M339.69 170.42C346.48 179.29 377.02 214.83 378.96 217.96C380.28 220.06 372.9 229.96 373.07 231.39C373.72 237.2 385.67 274.46 390.62 270.41C397.12 265.06 427.09 227.92 422.73 211.93C418.38 195.94 350.18 157.52 339.69 154.41C329.21 151.3 333 161.67 339.69 170.42Z" />
									<g id="Group 2602">
										<path id="Path 4836" class="shp5" d="M378.17 218.45C378.21 216.19 342.39 178.14 335.87 165.43C329.35 152.72 332.65 150 349.4 158.17C366.15 166.34 417.64 196.21 423.75 211.07C429.86 225.92 396.35 266.77 396.35 266.77L372.92 227.32C372.92 227.32 378.14 220.31 378.17 218.45Z" />
										<g id="Group 2601">
											<path id="Path 4837" class="shp10" d="M400.86 255.39C392.78 240.37 382.01 225.81 380.31 223.14C380.23 223.01 380.03 223.16 380.12 223.28C381.92 225.81 392.43 243.79 400.66 255.54C400.75 255.68 400.94 255.53 400.86 255.39Z" />
											<path id="Path 4838" class="shp10" d="M364.91 202C363.42 200.16 362.01 198.26 360.49 196.44C358.95 194.6 357.37 192.78 355.78 190.98C352.57 187.31 349.31 183.72 345.99 180.16C345.94 180.11 345.84 180.19 345.89 180.25C347.6 182.4 349.33 184.53 351.08 186.64L351.05 186.62C349.94 185.7 348.76 184.84 347.58 184.02C347.52 183.98 347.46 184.07 347.51 184.11C348.55 185.13 349.61 186.12 350.73 187.05C351.28 187.5 351.82 187.95 352.36 188.4C352.52 188.52 352.69 188.64 352.85 188.76C353.56 189.6 354.25 190.45 354.97 191.29C356.53 193.13 358.09 194.96 359.69 196.76C361.33 198.59 363.06 200.34 364.73 202.15C364.82 202.24 364.99 202.1 364.91 202Z" />
										</g>
									</g>
									<g id="Group 2604">
										<path id="Path 4839" class="shp13" d="M369.2 280.13C365.71 277.13 371.25 274.74 371.25 274.74C371.25 274.74 362.45 276.26 360.06 271.77C357.76 267.44 364.55 264.79 365.03 264.59C364.56 264.67 356.44 265.85 354.5 261.09C352.48 256.15 359.76 254.66 360.23 254.56C359.76 254.5 353.66 253.52 353.01 249.57C351.88 242.78 369.59 244.09 373.86 240.52C373.86 240.52 373.17 231.65 373.07 231.39C373.07 231.39 374.61 235 377.58 236.23C381.26 237.75 384.62 238.77 385.95 240.78C388.14 244.1 385.83 246.8 385.83 246.8C385.83 246.8 390.71 246.81 392.35 250.5C393.2 252.4 390.9 255.44 390.9 255.44C390.9 255.44 394.81 255.61 396.07 258.99C397.09 261.68 394.63 264.31 394.63 264.31C394.63 264.31 398.31 266.21 398.45 269.3C398.76 275.53 376.67 286.56 369.2 280.13Z" />
										<g id="Group 2603">
											<path id="Path 4840" class="shp10" d="M394.31 264.78C394.38 264.74 394.45 264.83 394.39 264.89C388.01 270.29 379.35 274.26 370.96 274.9C370.69 274.92 370.53 274.48 370.83 274.4C379.35 272.09 386.72 269.37 394.31 264.78Z" />
											<path id="Path 4841" class="shp10" d="M391.04 255.43C391.12 255.38 391.2 255.52 391.12 255.58C384.52 261.11 374.64 265.32 364.89 264.92C364.56 264.9 364.27 264.55 364.66 264.54C371.16 264.32 384.23 259.59 391.04 255.43Z" />
											<path id="Path 4842" class="shp10" d="M359.56 254.3C368.92 254.33 377.35 251.35 385.57 247.05C385.67 246.99 385.74 247.15 385.66 247.22C382.22 250.42 376.69 252.62 372.25 253.96C368 255.25 363.9 255.56 359.56 254.63C359.39 254.59 359.36 254.3 359.56 254.3Z" />
										</g>
										<path id="Path 4843" class="shp10" d="M394.88 264.31C396.45 262.76 397.63 260.71 396.95 258.45C396.65 257.42 395.95 256.57 395.05 255.99C393.93 255.28 392.28 255.29 391.48 255.24C392.9 253.38 393.63 250.83 392.35 248.71C391.75 247.73 390.82 247.25 389.72 246.89C389.13 246.7 386.65 246.47 385.94 246.6C387.13 245.53 387.74 243.85 387.56 242.27C387.35 240.42 386.14 239.07 384.59 238.14C382.81 237.08 380.74 236.67 378.79 236.05C377.77 235.73 376.76 235.41 375.84 234.86C375 234.36 373.82 233.43 373.71 232.37C373.68 232.16 373.39 232.29 373.49 232.43C373.97 233.07 374.27 233.81 374.83 234.41C375.39 235.03 376.03 235.55 376.73 236C378.42 237.07 380.39 237.51 382.2 238.32C383.79 239.03 385.3 240.07 386.14 241.64C387.01 243.25 386.74 245.17 385.72 246.64C385.66 246.7 385.69 246.83 385.83 246.83C386.66 246.86 388.64 247.37 389.14 247.61C390 248.02 390.86 248.52 391.32 249.35C392.37 251.2 392.03 253.63 390.9 255.44C390.86 255.51 392.89 255.72 394.32 256.77C395 257.26 395.49 258.03 395.77 258.81C396.45 260.65 395.95 262.83 394.58 264.22C394.56 264.25 394.56 264.27 394.55 264.29L394.55 264.3C394.55 264.32 394.55 264.33 394.55 264.35C394.55 264.37 394.57 264.39 394.59 264.41L394.59 264.42C394.6 264.43 395.76 265.07 395.82 265.08C395.85 265.09 395.85 265.04 395.83 265.01C395.79 264.97 395.05 264.39 394.88 264.31Z" />
									</g>
									<path id="Path 4844" class="shp16" d="M334.15 154.47C335.95 158.3 337.71 162.15 339.43 166.02C341.12 169.9 342.88 173.76 344.53 177.66L344.73 178.14L344.29 178.44L337.15 183.26L337.36 182.27C339.29 185.16 341.17 188.1 343.06 191.02L343.25 191.31L343.15 191.62C341.24 197.55 339.39 203.49 337.38 209.38C335.43 215.29 333.42 221.19 331.31 227.05C332.92 221.03 334.63 215.05 336.4 209.08C338.11 203.09 339.98 197.15 341.79 191.2L341.88 191.8C339.96 188.89 338.03 185.99 336.15 183.06L335.76 182.45L336.36 182.06L343.57 177.37L343.33 178.15C341.71 174.24 340.21 170.28 338.65 166.35C337.1 162.41 335.6 158.45 334.15 154.47Z" />
								</g>
								<g id="Group 2611">
									<path id="Path 4845" class="shp1" d="M341.73 161.84C341.37 153.18 330.57 150.91 324.03 150.74C316.28 150.53 311.27 151.73 308.42 159.54C305.41 167.77 304.39 177.06 303.81 185.76C303.71 187.39 301.18 187.27 301.28 185.64C301.94 175.6 302.43 156.96 311.64 150.53C320.12 144.62 343.65 147.28 344.26 161.97C344.33 163.6 341.8 163.46 341.73 161.84L341.73 161.84Z" />
									<g id="Group 2606">
										<path id="Path 4846" class="shp14" d="M296.5 190.19C296.33 193.4 298.8 196.13 302.01 196.29C305.22 196.46 307.96 193.99 308.12 190.77C308.28 187.56 305.81 184.83 302.6 184.67C299.39 184.51 296.66 186.98 296.5 190.19Z" />
										<path id="Path 4847" class="shp5" d="M298.81 190.31C298.71 192.24 300.2 193.88 302.13 193.98C304.06 194.08 305.71 192.59 305.81 190.66C305.9 188.73 304.41 187.08 302.48 186.98C300.55 186.89 298.91 188.37 298.81 190.31Z" />
									</g>
									<g id="Group 2610">
										<g id="Group 2609">
											<g id="Group 2607">
												<path id="Path 4848" class="shp17" d="M335.97 189.76C332.28 214.63 333.92 220.43 336.23 222.99C338.67 225.68 342.26 226.89 342.41 226.94L342.97 225.26L342.69 226.1L342.97 225.26C342.93 225.25 339.66 224.14 337.54 221.8C335.87 219.95 334.07 214.65 337.72 190.02L335.97 189.76Z" />
												<path id="Rectangle 129" class="shp14" d="M339.88 225.73L340.47 224.31C340.71 223.74 341.36 223.47 341.93 223.71L345.51 225.21C346.08 225.45 346.35 226.1 346.11 226.67L345.52 228.08C345.28 228.65 344.63 228.92 344.06 228.68L340.48 227.18C339.91 226.95 339.64 226.29 339.88 225.73Z" />
											</g>
											<g id="Group 2608">
												<path id="Path 4849" class="shp17" d="M351.82 188.62C358.63 206.3 360.89 216.14 358.93 219.59C357.37 222.35 354.43 224.14 354.4 224.15L355.3 225.67C355.44 225.59 358.68 223.62 360.47 220.46C362.8 216.36 360.77 206.95 353.46 187.98L351.82 188.62Z" />
												<path id="Rectangle 130" class="shp14" d="M352.52 227.46L351.64 226.21C351.28 225.71 351.4 225.01 351.9 224.66L355.08 222.42C355.58 222.06 356.27 222.18 356.63 222.68L357.51 223.93C357.87 224.44 357.75 225.13 357.25 225.49L354.07 227.73C353.57 228.09 352.88 227.97 352.52 227.46Z" />
											</g>
										</g>
										<path id="Path 4850" class="shp14" d="M353.98 187.15C353.2 184.69 351.06 178.6 349.53 175.59C348.28 173.12 345.54 171.67 345.54 171.67C345.19 171.67 345 168.59 344.9 166.06C344.82 163.83 344.76 161.23 344.16 160.58C343.57 159.95 342.23 160.05 341.73 160.72C341.2 161.44 341.45 164.03 341.62 166.25C341.82 168.77 341.98 171.86 341.63 171.9C341.63 171.9 339.26 173.76 338.33 176.29C337.29 179.11 335.68 186.5 335.46 188.64C335.18 191.3 336.07 191.52 336.84 191.7C337.93 191.94 338.52 191.15 339.02 188.19C339.83 183.5 340.63 175.68 343.8 175.35L343.79 175.35C346.97 175.32 349.13 183.27 350.64 187.67C351.58 190.43 352.21 190.64 353.27 190.27C354.01 190.01 354.76 189.61 353.98 187.15Z" />
									</g>
								</g>
								<g id="Group 2624">
									<g id="Group 2623">
										<g id="Group 2612">
											<path id="Path 4851" class="shp13" d="M331.15 153.95C330.57 155.44 324.86 165.43 317.73 165.43C313.24 165.43 314.34 150.06 314.34 150.06L314.26 149.1L313.22 135.69L329.9 128.08L332.29 127.1C332.29 127.1 332.33 130.79 332.34 135.39C332.34 135.6 332.34 135.81 332.34 136.04C332.35 136.3 332.36 136.55 332.35 136.79C332.36 137.47 332.37 138.17 332.36 138.87C332.36 139.4 332.36 139.92 332.33 140.48C332.32 141.04 332.3 141.58 332.29 142.14C332.08 147.66 331.39 153.32 331.15 153.95Z" />
											<path id="Path 4852" class="shp14" d="M332.34 135.39C327.13 145.19 318.26 148.22 314.26 149.1L313.22 135.69L329.9 128.08L332.29 127.1C332.29 127.1 332.33 130.79 332.34 135.39Z" />
										</g>
										<g id="Group 2622">
											<path id="Path 4853" class="shp13" d="M296.46 115.72C294.26 139.23 308.1 143.2 313.17 143.67C317.77 144.09 333.49 144.95 338.1 121.79C342.71 98.64 332.48 90.19 322 88.66C311.53 87.13 298.65 92.21 296.46 115.72Z" />
											<g id="Group 2619">
												<path id="Path 4854" class="shp14" d="M304.06 110.48C304.62 110.44 305.12 110.31 305.67 110.21C306.28 110.09 306.79 110.07 307.25 109.61C307.5 109.37 307.5 108.85 307.29 108.59C306.79 107.97 306 107.92 305.26 108.02C304.45 108.14 303.85 108.43 303.3 109.03C302.76 109.61 303.33 110.54 304.06 110.48Z" />
												<path id="Path 4855" class="shp14" d="M320.25 111.11C319.7 111.03 319.2 110.86 318.67 110.72C318.06 110.56 317.56 110.5 317.13 110.01C316.9 109.74 316.94 109.23 317.17 108.98C317.72 108.4 318.5 108.41 319.24 108.57C320.04 108.75 320.61 109.09 321.12 109.73C321.61 110.35 320.98 111.23 320.25 111.11Z" />
												<g id="Group 2614">
													<g id="Group 2613">
														<path id="Path 4856" class="shp14" d="M316.65 116.95C316.67 116.89 316.77 117.03 316.77 117.1C316.62 118.7 316.72 120.56 318.14 121.18C318.18 121.2 318.17 121.28 318.12 121.27C316.36 120.91 316.26 118.44 316.65 116.95Z" />
														<path id="Path 4857" class="shp14" d="M318.19 115.36C320.78 115.32 320.67 120.51 318.27 120.55C315.9 120.58 316.02 115.39 318.19 115.36Z" />
													</g>
													<path id="Path 4858" class="shp14" d="M319.2 115.66C319.65 115.96 320.08 116.49 320.63 116.55C321.26 116.63 321.75 116.1 322.17 115.58C322.21 115.53 322.26 115.58 322.26 115.65C322.25 116.64 321.85 117.65 320.78 117.78C319.8 117.89 319.12 116.99 318.9 115.99C318.85 115.8 319.02 115.53 319.2 115.66Z" />
												</g>
												<g id="Group 2616">
													<g id="Group 2615">
														<path id="Path 4859" class="shp14" d="M306.95 116.48C306.94 116.42 306.83 116.55 306.83 116.62C306.86 118.23 306.62 120.08 305.15 120.59C305.11 120.6 305.11 120.69 305.17 120.68C306.95 120.45 307.24 118 306.95 116.48Z" />
														<path id="Path 4860" class="shp14" d="M305.54 114.78C302.96 114.55 302.68 119.73 305.08 119.95C307.43 120.16 307.71 114.98 305.54 114.78Z" />
													</g>
													<path id="Path 4861" class="shp14" d="M304.44 115.07C304.02 115.32 303.59 115.79 303.1 115.8C302.53 115.81 302.14 115.23 301.8 114.67C301.77 114.61 301.72 114.65 301.72 114.72C301.64 115.71 301.91 116.76 302.85 117C303.71 117.22 304.4 116.4 304.68 115.43C304.74 115.25 304.61 114.96 304.44 115.07Z" />
												</g>
												<path id="Path 4862" class="shp14" d="M315.35 129.74C314.97 130.12 314.6 130.65 314.02 130.71C313.46 130.77 312.8 130.53 312.28 130.35C312.23 130.33 312.18 130.38 312.21 130.43C312.64 131.04 313.53 131.4 314.27 131.26C315 131.11 315.34 130.48 315.5 129.81C315.53 129.71 315.4 129.68 315.35 129.74Z" />
												<g id="Group 2617">
													<path id="Path 4863" class="shp14" d="M308.82 123.7C308.82 123.7 308.41 126.09 308.37 127.22C308.37 127.33 308.64 127.39 309.03 127.42C309.04 127.43 309.05 127.44 309.07 127.43C311.06 127.81 313.09 127.18 314.36 125.59C314.45 125.48 314.31 125.36 314.2 125.43C312.67 126.48 311.01 126.7 309.24 126.67C309.17 126.36 310.08 122.61 309.9 122.59C309.29 122.51 308.05 122.89 307.31 123.08C308.03 118.08 309.54 113.24 310.17 108.25C310.19 108.07 309.94 108.01 309.88 108.16C307.94 113.13 306.99 118.87 306.12 124.01C306.01 124.65 308.36 123.88 308.82 123.7Z" />
												</g>
												<g id="Group 2618">
													<path id="Path 4864" class="shp14" d="M309.8 126.84C309.8 126.84 310.68 128.24 311.98 128.81C312.46 129.03 312.99 129.14 313.56 129.03C314.72 128.82 314.83 127.77 314.69 126.86C314.58 126.11 314.28 125.44 314.28 125.44C314.28 125.44 312.49 126.88 309.8 126.84Z" />
													<path id="Path 4865" class="shp18" d="M311.98 128.81C312.46 129.03 312.99 129.14 313.56 129.03C314.72 128.82 314.83 127.77 314.69 126.86C313.45 126.89 312.18 127.63 311.98 128.81Z" />
												</g>
											</g>
											<path id="Path 4866" class="shp14" d="M297.84 107.4C300.62 108.3 310.48 102.17 314.45 93.34C314.45 93.34 314.99 100.74 321.42 106.7C327.85 112.66 333.95 113.1 333.95 113.1C333.95 113.1 335.86 123.75 337.62 123.97C339.37 124.2 350.43 87.81 319.49 87.4C319.49 87.4 310.43 86.49 304.78 91.77C299.12 97.05 297.84 107.4 297.84 107.4Z" />
											<g id="Group 2621">
												<g id="Group 2620">
													<path id="Path 4867" class="shp13" d="M334.2 120.93C334.2 120.93 339.4 113.6 342.73 115.45C346.06 117.31 342.12 127.97 338.18 129.41C334.25 130.84 332.85 127.23 332.85 127.23L334.2 120.93Z" />
													<path id="Path 4868" class="shp14" d="M341.53 118.48C341.59 118.48 341.6 118.56 341.55 118.59C338.79 119.68 337.32 122.23 336.29 124.87C337.11 123.85 338.23 123.3 339.59 124.29C339.66 124.34 339.59 124.45 339.51 124.43C338.39 124.18 337.57 124.37 336.81 125.27C336.26 125.91 335.89 126.71 335.5 127.45C335.37 127.7 334.92 127.56 335.02 127.28L335.04 127.21C335 123.7 337.75 118.81 341.53 118.48Z" />
												</g>
											</g>
										</g>
									</g>
									<path id="Path 4869" class="shp13" d="M314.22 153.74C313.19 154.27 314.7 173.43 315.35 174.5C315.6 174.9 328.15 164.97 332.34 152.21C332.34 152.21 324.93 148.18 314.22 153.74Z" />
								</g>
								<g id="Group 2630">
									<g id="Group 2626">
										<path id="Rectangle 131" class="shp1" d="M234.88 209.9L292.19 192.05L315.42 266.66L258.1 284.51L234.88 209.9Z" />
										<g id="Group 2625">
											<path id="Rectangle 132" class="shp2" d="M278.24 201.2L251.09 209.69L248.52 201.46L275.67 192.98L278.24 201.2Z" />
											<path id="Path 4870" class="shp2" d="M254.69 199.54L258.03 198.49L256.84 194.7L264.97 192.16L266.16 195.95L269.5 194.91L267.34 188L252.48 192.64L254.69 199.54Z" />
										</g>
									</g>
									<g id="Group 2629">
										<path id="Path 4871" class="shp13" d="M303.3 220.51C306.43 223.48 304.47 227.49 304.47 227.49C304.47 227.49 307.86 228.08 309.8 230.76C312.02 233.83 308.18 238.66 308.18 238.66C308.18 238.66 311.49 239.97 313.26 243.01C315.09 246.17 311.91 251.59 311.91 251.59C311.91 251.59 314.33 254.51 313.97 258.23C313.36 264.59 304.62 268.94 299.1 271.77C293.58 274.59 275.26 277.44 271.83 278.33L253.39 243.04C253.39 243.04 274.55 223.32 281.52 220.92C287.39 218.9 299.79 217.17 303.3 220.51Z" />
										<path id="Path 4872" class="shp13" d="M255.89 240.75C249.57 245.59 230.61 264.29 235.07 273.8C239.52 283.31 254.76 282.35 275.91 277.49L255.89 240.75Z" />
										<g id="Group 2627">
											<path id="Path 4873" class="shp5" d="M255.89 240.75C249.57 245.59 229.62 263.84 234.67 276.05C238.68 285.76 256.62 286.94 277.77 282.08L255.89 240.75Z" />
											<path id="Path 4874" class="shp10" d="M266.89 282.42C260.27 266.7 250.93 251.18 249.5 248.36C249.43 248.23 249.22 248.35 249.3 248.48C250.85 251.18 259.6 270.07 266.67 282.56C266.75 282.7 266.95 282.57 266.89 282.42Z" />
										</g>
										<g id="Group 2628">
											<path id="Path 4875" class="shp10" d="M303.93 227.05C297.17 227.7 290.98 230.32 284.65 232.58C284.51 232.63 284.59 232.85 284.73 232.79C291 230.48 297.65 229.43 304 227.37C304.17 227.31 304.11 227.03 303.93 227.05Z" />
											<path id="Path 4876" class="shp10" d="M307.83 238.26C306.31 238.46 304.85 239.15 303.44 239.73C301.93 240.36 300.42 241.01 298.93 241.69C295.94 243.05 292.98 244.47 290.07 245.98C289.94 246.04 290.01 246.26 290.15 246.2C293.13 244.85 296.13 243.55 299.17 242.33C300.69 241.72 302.21 241.13 303.74 240.54C305.16 239.99 306.71 239.54 307.98 238.68C308.17 238.56 308.06 238.23 307.83 238.26Z" />
											<path id="Path 4877" class="shp10" d="M311.78 251.65C310.45 251.76 309.1 252.61 307.91 253.18C306.56 253.83 305.2 254.47 303.85 255.1C301.13 256.36 298.42 257.62 295.67 258.78C295.53 258.84 295.61 259.06 295.75 259C298.55 257.83 301.37 256.7 304.17 255.5C305.54 254.92 306.91 254.32 308.28 253.72C309.44 253.21 310.95 252.7 311.85 251.78C311.9 251.73 311.85 251.64 311.78 251.65Z" />
										</g>
										<path id="Path 4878" class="shp10" d="M255.06 241.06C252.77 242.9 250.88 244.23 248.78 246.4C248.29 246.91 247.79 247.42 247.3 247.94C247.08 248.07 246.87 248.21 246.66 248.35C245.76 248.94 244.87 249.56 244.03 250.23C242.41 251.53 240.9 252.97 239.46 254.47C239.35 254.58 239.52 254.73 239.62 254.63C241.14 253.18 242.79 251.87 244.51 250.67C244.73 250.51 244.97 250.36 245.19 250.2C244.36 251.12 243.56 252.05 242.81 253.03C240.81 255.63 238.95 258.24 237.28 261.08C237.2 261.21 237.4 261.32 237.48 261.19C240.56 256.24 254 243.01 255.47 241.43C256.97 239.8 256.18 240.16 255.06 241.06Z" />
									</g>
								</g>
							</g>
						</g>
					</g>
					<g id="Heart">
						<g id="Group 2633">
							<path id="Path 4879" class="shp12" d="M460.52 132.04C444.44 153.32 425.23 162.66 425.23 162.66C425.23 162.66 406.03 153.32 389.95 132.04C377.53 115.6 378.14 89.86 395.91 84.29C415.57 78.13 425.23 107.71 425.23 107.71C425.23 107.71 435.03 77.94 454.56 84.29C472.27 90.05 472.94 115.6 460.52 132.04Z" />
							<path id="Path 4880" class="shp4" d="M411.37 149.67L406.01 127.36L402.51 135.22L380.87 135.22L380.87 132.71L400.88 132.71L406.72 119.56L410.9 136.95L416.8 100.91L422.02 129.42L426.14 117.51L432.64 137L434.08 132.69L469.62 132.69L469.62 135.21L435.89 135.21L432.63 144.95L426.09 125.34L421.26 139.29L416.94 115.65L411.37 149.67Z" />
						</g>
					</g>
					<g id="Bag">
						<g id="Group 2636">
							<g id="Group 2635">
								<g id="Group 2634">
									<path id="Path 4881" class="shp12" d="M553.79 533.49L553.79 551.25L546.7 551.25L546.7 541.14L522.12 541.14L522.12 551.25L515.03 551.25L515.03 533.49L553.79 533.49Z" />
								</g>
								<path id="Rectangle 133" class="shp19" d="M515.03 543.44L522.12 543.44L522.12 551.25L515.03 551.25L515.03 543.44Z" />
								<path id="Rectangle 134" class="shp19" d="M546.7 543.44L553.79 543.44L553.79 551.25L546.7 551.25L546.7 543.44Z" />
							</g>
							<path id="Path 4882" class="shp12" d="M586.98 613.09L481.87 613.09L487.67 547.34L581.19 547.34L586.98 613.09Z" />
							<path id="Path 4883" class="shp20" d="M534.43 613.09L481.87 613.09L487.67 547.34L534.43 547.34L534.43 613.09Z" />
							<path id="Path 4884" class="shp21" d="M550.61 576.39L550.61 584.04L538.25 584.04L538.25 596.4L530.61 596.4L530.61 584.04L518.25 584.04L518.25 576.39L530.61 576.39L530.61 564.04L538.25 564.04L538.25 576.39L550.61 576.39Z" />
						</g>
					</g>
				</g>
			</g>
		</g>
	</g>
</svg>