<svg xmlns="http://www.w3.org/2000/svg" viewBox="0 0 1289 654" width="1289" height="654">
	<defs>
		<clipPath clipPathUnits="userSpaceOnUse" id="cp1">
			<path d="M-215 -2577L1385 -2577L1385 3335L-215 3335Z" />
		</clipPath>
	</defs>
	<style>
		tspan { white-space:pre }
		.shp0 { fill: #eeecff } 
		.txt1 { font-size: 22px;line-height: 51px;fill: #333333;font-weight: 700;font-family: "Montserrat-Bold", "Montserrat" } 
		.txt2 { font-size: 17px;line-height: 28px;fill: #7f7e87;font-weight: 400;font-family: "Hind-Regular", "Hind" } 
		.shp3 { fill: #5347e8 } 
		.shp4 { fill: #ffffff } 
		.txt5 { font-size: 46px;fill: #333333;font-weight: 700;font-family: "Montserrat-Bold", "Montserrat" } 
		.shp6 { fill: #f2f5fc;stroke: #333383;stroke-width: 8 } 
		.shp7 { fill: #333383 } 
		.shp8 { fill: #d0d6ec } 
		.shp9 { fill: #adb6d9 } 
		.shp10 { fill: #ebebeb } 
		.shp11 { fill: #dbdbdb } 
		.shp12 { fill: none;stroke: #adb6d9 } 
		.shp13 { fill: none;stroke: #263238;stroke-linecap:round } 
		.shp14 { fill: #555ca5 } 
		.shp15 { fill: #263238 } 
		.shp16 { fill: #37474f } 
		.shp17 { fill: #dc8d39 } 
		.shp18 { fill: #ad6359 } 
		.shp19 { fill: #2b295e } 
		.shp20 { fill: #f0d170 } 
		.shp21 { fill: #a6a6a6 } 
		.shp22 { fill: #c7c7c7 } 
		.shp23 { fill: #ff9cbd } 
		.shp24 { opacity: 0.102;fill: #000000 } 
		.shp25 { opacity: 0.102;fill: #eeecff } 
		.shp26 { fill: #fffffd } 
	</style>
	<g id="Medical Healthcare Landing Page" clip-path="url(#cp1)">
		<g id="Why Choose US">
			<g id="All Texts">
				<g id="3">
					<path id="Rectangle 45" class="shp0" d="M20 507L520 507C531.06 507 540 515.94 540 527L540 633C540 644.06 531.06 653 520 653L20 653C8.94 653 0 644.06 0 633L0 527C0 515.94 8.94 507 20 507Z" />
					<g id="text icon">
						<text id="Ambulance Car" style="transform: matrix(1,0,0,1,150,553)" >
							<tspan x="0" y="0" class="txt1">Ambulance Car</tspan>
						</text>
						<text id="Consecteture adipiscing eliter Lorem ipsum dolor salmet conse dipiscing elite consequat." style="transform: matrix(1,0,0,1,150,573)" >
							<tspan x="0" y="17" class="txt2">Consecteture adipiscing eliter Lorem ipsum dolor salmet conse dipiscing elite consequat.</tspan>
						</text>
					</g>
					<g id="Group 1960">
						<path id="Path 1398" class="shp3" d="M46.15 530L94.44 530C107.78 530 118.59 541.09 118.59 554.77L118.59 604.3C118.59 617.98 107.78 629.07 94.44 629.07L46.15 629.07C32.81 629.07 22 617.98 22 604.3L22 554.77C22 541.09 32.81 530 46.15 530Z" />
						<g id="001-ambulance">
							<g id="Group 2452">
								<path id="Path 4732" class="shp4" d="M81.2 591.36L61.66 591.36C61.12 591.36 60.68 590.92 60.68 590.38C60.68 589.84 61.12 589.4 61.66 589.4L81.2 589.4C81.73 589.4 82.17 589.84 82.17 590.38C82.17 590.92 81.73 591.36 81.2 591.36Z" />
							</g>
							<g id="Group 2453">
								<path id="Path 4733" class="shp4" d="M90.97 591.36L89.01 591.36C88.47 591.36 88.03 590.92 88.03 590.38C88.03 589.84 88.47 589.4 89.01 589.4L90.97 589.4C91.5 589.4 91.94 588.96 91.94 588.43L91.94 578.21C91.94 577.53 91.7 576.86 91.27 576.34L83.57 567.02C83.01 566.34 82.19 565.95 81.31 565.95L51.88 565.95C50.27 565.95 48.95 567.27 48.95 568.88L48.95 588.43C48.95 588.96 49.39 589.4 49.93 589.4L53.62 589.4C54.16 589.4 54.6 589.84 54.6 590.38C54.6 590.92 54.16 591.36 53.62 591.36L49.93 591.36C48.32 591.36 47 590.04 47 588.43L47 568.88C47 566.19 49.19 564 51.88 564L81.31 564C82.77 564 84.14 564.65 85.08 565.77L92.78 575.09C93.5 575.97 93.9 577.07 93.9 578.21L93.9 588.43C93.9 590.04 92.58 591.36 90.97 591.36Z" />
							</g>
							<g id="Group 2454">
								<path id="Path 4734" fill-rule="evenodd" class="shp4" d="M57.75 595.26C55.05 595.26 52.86 593.07 52.86 590.38C52.86 587.69 55.05 585.49 57.75 585.49C60.44 585.49 62.63 587.69 62.63 590.38C62.63 593.07 60.44 595.26 57.75 595.26ZM57.75 587.45C56.13 587.45 54.82 588.76 54.82 590.38C54.82 592 56.13 593.31 57.75 593.31C59.36 593.31 60.68 592 60.68 590.38C60.68 588.76 59.36 587.45 57.75 587.45Z" />
							</g>
							<g id="Group 2455">
								<path id="Path 4735" fill-rule="evenodd" class="shp4" d="M85.1 595.26C82.41 595.26 80.22 593.07 80.22 590.38C80.22 587.69 82.41 585.49 85.1 585.49C87.8 585.49 89.99 587.69 89.99 590.38C89.99 593.07 87.8 595.26 85.1 595.26ZM85.1 587.45C83.49 587.45 82.17 588.76 82.17 590.38C82.17 592 83.49 593.31 85.1 593.31C86.72 593.31 88.03 592 88.03 590.38C88.03 588.76 86.72 587.45 85.1 587.45Z" />
							</g>
							<g id="Group 2456">
								<path id="Path 4736" class="shp4" d="M63.61 583.54C63.07 583.54 62.63 583.1 62.63 582.56L62.63 570.84C62.63 570.3 63.07 569.86 63.61 569.86C64.15 569.86 64.59 570.3 64.59 570.84L64.59 582.56C64.59 583.1 64.15 583.54 63.61 583.54Z" />
							</g>
							<g id="Group 2457">
								<path id="Path 4737" class="shp4" d="M69.47 577.68L57.75 577.68C57.21 577.68 56.77 577.24 56.77 576.7C56.77 576.16 57.21 575.72 57.75 575.72L69.47 575.72C70.01 575.72 70.45 576.16 70.45 576.7C70.45 577.24 70.01 577.68 69.47 577.68Z" />
							</g>
							<g id="Group 2458">
								<path id="Path 4738" class="shp4" d="M87.06 579.63L83.15 579.63C80.45 579.63 78.26 577.44 78.26 574.75L78.26 570.84C78.26 570.3 78.7 569.86 79.24 569.86C79.78 569.86 80.22 570.3 80.22 570.84L80.22 574.75C80.22 576.36 81.53 577.68 83.15 577.68L87.06 577.68C87.6 577.68 88.03 578.12 88.03 578.66C88.03 579.19 87.6 579.63 87.06 579.63Z" />
							</g>
						</g>
					</g>
				</g>
				<g id="2">
					<path id="Rectangle 45" class="shp0" d="M20 321L520 321C531.06 321 540 329.94 540 341L540 447C540 458.06 531.06 467 520 467L20 467C8.94 467 0 458.06 0 447L0 341C0 329.94 8.94 321 20 321Z" />
					<g id="text icon">
						<text id="Intensive care" style="transform: matrix(1,0,0,1,150,367)" >
							<tspan x="0" y="0" class="txt1">Intensive care</tspan>
						</text>
						<text id="Consecteture adipiscing eliter Lorem ipsum dolor salmet conse dipiscing elite consequat." style="transform: matrix(1,0,0,1,150,387)" >
							<tspan x="0" y="17" class="txt2">Consecteture adipiscing eliter Lorem ipsum dolor salmet conse dipiscing elite consequat.</tspan>
						</text>
					</g>
					<g id="Group 1960">
						<path id="Path 1398" class="shp3" d="M46.15 344L94.44 344C107.78 344 118.59 355.09 118.59 368.77L118.59 418.3C118.59 431.98 107.78 443.07 94.44 443.07L46.15 443.07C32.81 443.07 22 431.98 22 418.3L22 368.77C22 355.09 32.81 344 46.15 344Z" />
						<g id="003-operation">
							<g id="Group 2445">
								<path id="Path 4725" fill-rule="evenodd" class="shp4" d="M77.27 416.33L48.94 416.33C48.42 416.33 48 415.9 48 415.38L48 407.83C48 404.18 50.96 401.22 54.61 401.22L71.61 401.22C75.25 401.22 78.22 404.18 78.22 407.83L78.22 415.38C78.22 415.9 77.79 416.33 77.27 416.33ZM49.89 414.44L76.33 414.44L76.33 407.83C76.33 405.22 74.21 403.11 71.61 403.11L54.61 403.11C52.01 403.11 49.89 405.22 49.89 407.83L49.89 414.44Z" />
							</g>
							<g id="Group 2446">
								<path id="Path 4726" fill-rule="evenodd" class="shp4" d="M63.11 397.44C59.46 397.44 56.5 394.47 56.5 390.83C56.5 390.31 56.92 389.89 57.44 389.89C60.69 389.89 62.16 387.44 62.16 385.16C62.16 384.64 62.59 384.22 63.11 384.22C63.63 384.22 64.05 384.64 64.05 385.16C64.05 387.44 65.53 389.89 68.77 389.89C69.3 389.89 69.72 390.31 69.72 390.83C69.72 394.47 66.75 397.44 63.11 397.44ZM58.47 391.71C58.88 393.89 60.8 395.55 63.11 395.55C65.41 395.55 67.33 393.89 67.75 391.71C65.57 391.42 64.02 390.24 63.11 388.69C62.2 390.24 60.64 391.42 58.47 391.71Z" />
							</g>
							<g id="Group 2447">
								<path id="Path 4727" fill-rule="evenodd" class="shp4" d="M70.66 397.44L55.55 397.44C53.99 397.44 52.72 396.17 52.72 394.61L52.72 388.94C52.72 383.21 57.38 378.55 63.11 378.55C68.83 378.55 73.5 383.21 73.5 388.94L73.5 394.61C73.5 396.17 72.22 397.44 70.66 397.44ZM63.11 380.44C58.42 380.44 54.61 384.26 54.61 388.94L54.61 394.61C54.61 395.13 55.03 395.55 55.55 395.55L70.66 395.55C71.18 395.55 71.61 395.13 71.61 394.61L71.61 388.94C71.61 384.26 67.79 380.44 63.11 380.44Z" />
							</g>
							<g id="Group 2448">
								<path id="Path 4728" fill-rule="evenodd" class="shp4" d="M84.83 391.77C80.14 391.77 76.33 387.96 76.33 383.28L76.33 373.83C76.33 372.27 77.6 371 79.16 371L90.49 371C92.05 371 93.33 372.27 93.33 373.83L93.33 383.28C93.33 387.96 89.51 391.77 84.83 391.77ZM79.16 372.89C78.64 372.89 78.22 373.31 78.22 373.83L78.22 383.28C78.22 386.92 81.18 389.89 84.83 389.89C88.47 389.89 91.44 386.92 91.44 383.28L91.44 373.83C91.44 373.31 91.01 372.89 90.49 372.89L79.16 372.89Z" />
							</g>
							<g id="Group 2449">
								<path id="Path 4729" class="shp4" d="M81.05 410.66L77.27 410.66C76.75 410.66 76.33 410.24 76.33 409.72C76.33 409.19 76.75 408.77 77.27 408.77L81.05 408.77C82.61 408.77 83.88 407.5 83.88 405.94L83.88 390.83C83.88 390.31 84.31 389.89 84.83 389.89C85.35 389.89 85.77 390.31 85.77 390.83L85.77 405.94C85.77 408.54 83.65 410.66 81.05 410.66Z" />
							</g>
							<g id="Group 2450">
								<path id="Path 4730" class="shp4" d="M84.83 384.22C84.31 384.22 83.88 383.8 83.88 383.28L83.88 377.61C83.88 377.09 84.31 376.67 84.83 376.67C85.35 376.67 85.77 377.09 85.77 377.61L85.77 383.28C85.77 383.8 85.35 384.22 84.83 384.22Z" />
							</g>
							<g id="Group 2451">
								<path id="Path 4731" class="shp4" d="M87.66 381.39L81.99 381.39C81.47 381.39 81.05 380.96 81.05 380.44C81.05 379.92 81.47 379.5 81.99 379.5L87.66 379.5C88.18 379.5 88.6 379.92 88.6 380.44C88.6 380.96 88.18 381.39 87.66 381.39Z" />
							</g>
						</g>
					</g>
				</g>
				<g id="1">
					<path id="Rectangle 45" class="shp0" d="M20 135L520 135C531.06 135 540 143.94 540 155L540 261C540 272.06 531.06 281 520 281L20 281C8.94 281 0 272.06 0 261L0 155C0 143.94 8.94 135 20 135Z" />
					<g id="text icon">
						<text id="Medical &amp; Surgical" style="transform: matrix(1,0,0,1,150,181)" >
							<tspan x="0" y="0" class="txt1">Medical &amp; Surgical</tspan>
						</text>
						<text id="Consecteture adipiscing eliter Lorem ipsum dolor salmet conse dipiscing elite consequat." style="transform: matrix(1,0,0,1,150,201)" >
							<tspan x="0" y="17" class="txt2">Consecteture adipiscing eliter Lorem ipsum dolor salmet conse dipiscing elite consequat.</tspan>
						</text>
					</g>
					<g id="Group 1960">
						<path id="Path 1398" class="shp3" d="M46.15 158L94.44 158C107.78 158 118.59 169.09 118.59 182.77L118.59 232.3C118.59 245.98 107.78 257.07 94.44 257.07L46.15 257.07C32.81 257.07 22 245.98 22 232.3L22 182.77C22 169.09 32.81 158 46.15 158Z" />
						<g id="002-hospital">
							<g id="Group 2430">
								<path id="Path 4699" fill-rule="evenodd" class="shp4" d="M81.38 231.15L59.75 231.15C59.21 231.15 58.77 230.71 58.77 230.17L58.77 188.89C58.77 186.18 60.97 183.97 63.68 183.97L77.44 183.97C80.15 183.97 82.36 186.18 82.36 188.89L82.36 230.17C82.36 230.71 81.92 231.15 81.38 231.15ZM60.73 229.19L80.39 229.19L80.39 188.89C80.39 187.26 79.07 185.94 77.44 185.94L63.68 185.94C62.06 185.94 60.73 187.26 60.73 188.89L60.73 229.19Z" />
							</g>
							<g id="Group 2431">
								<path id="Path 4700" class="shp4" d="M91.2 231.15L81.38 231.15C80.83 231.15 80.39 230.71 80.39 230.17C80.39 229.63 80.83 229.19 81.38 229.19L91.2 229.19C91.75 229.19 92.19 228.75 92.19 228.2L92.19 209.01C92.19 207.89 91.56 206.88 90.56 206.37L80.94 201.56C80.45 201.32 80.25 200.73 80.49 200.24C80.74 199.76 81.33 199.56 81.81 199.8L91.44 204.61C93.11 205.45 94.15 207.14 94.15 209.01L94.15 228.2C94.15 229.83 92.83 231.15 91.2 231.15L91.2 231.15Z" />
							</g>
							<g id="Group 2432">
								<path id="Path 4701" class="shp4" d="M59.75 231.15L49.92 231.15C48.3 231.15 46.97 229.83 46.97 228.2L46.97 209.01C46.97 207.14 48.01 205.45 49.69 204.61L59.31 199.8C59.8 199.56 60.39 199.76 60.63 200.24C60.87 200.73 60.67 201.32 60.19 201.56L50.57 206.37C49.56 206.88 48.94 207.89 48.94 209.01L48.94 228.2C48.94 228.75 49.38 229.19 49.92 229.19L59.75 229.19C60.29 229.19 60.73 229.63 60.73 230.17C60.73 230.71 60.29 231.15 59.75 231.15Z" />
							</g>
							<g id="Group 2433">
								<path id="Path 4702" class="shp4" d="M67.61 199.7C67.07 199.7 66.63 199.26 66.63 198.72L66.63 190.85C66.63 190.31 67.07 189.87 67.61 189.87C68.16 189.87 68.6 190.31 68.6 190.85L68.6 198.72C68.6 199.26 68.16 199.7 67.61 199.7Z" />
							</g>
							<g id="Group 2434">
								<path id="Path 4703" class="shp4" d="M73.51 199.7C72.97 199.7 72.53 199.26 72.53 198.72L72.53 190.85C72.53 190.31 72.97 189.87 73.51 189.87C74.05 189.87 74.49 190.31 74.49 190.85L74.49 198.72C74.49 199.26 74.05 199.7 73.51 199.7Z" />
							</g>
							<g id="Group 2435">
								<path id="Path 4704" class="shp4" d="M73.51 195.77L67.61 195.77C67.07 195.77 66.63 195.33 66.63 194.78C66.63 194.24 67.07 193.8 67.61 193.8L73.51 193.8C74.05 193.8 74.49 194.24 74.49 194.78C74.49 195.33 74.05 195.77 73.51 195.77Z" />
							</g>
							<g id="Group 2436">
								<path id="Path 4705" class="shp4" d="M75.48 231.15C74.94 231.15 74.49 230.71 74.49 230.17L74.49 223.29C74.49 221.12 72.73 219.36 70.56 219.36C68.39 219.36 66.63 221.12 66.63 223.29L66.63 230.17C66.63 230.71 66.19 231.15 65.65 231.15C65.11 231.15 64.67 230.71 64.67 230.17L64.67 223.29C64.67 220.04 67.31 217.39 70.56 217.39C73.81 217.39 76.46 220.04 76.46 223.29L76.46 230.17C76.46 230.71 76.02 231.15 75.48 231.15Z" />
							</g>
							<g id="Group 2437">
								<path id="Path 4706" class="shp4" d="M75.48 205.6L65.65 205.6C65.11 205.6 64.67 205.16 64.67 204.61C64.67 204.07 65.11 203.63 65.65 203.63L75.48 203.63C76.02 203.63 76.46 204.07 76.46 204.61C76.46 205.16 76.02 205.6 75.48 205.6Z" />
							</g>
							<g id="Group 2438">
								<path id="Path 4707" class="shp4" d="M75.48 211.49L65.65 211.49C65.11 211.49 64.67 211.05 64.67 210.51C64.67 209.97 65.11 209.53 65.65 209.53L75.48 209.53C76.02 209.53 76.46 209.97 76.46 210.51C76.46 211.05 76.02 211.49 75.48 211.49Z" />
							</g>
							<g id="Group 2439">
								<path id="Path 4708" class="shp4" d="M55.82 225.26L51.89 225.26C51.34 225.26 50.9 224.82 50.9 224.27C50.9 223.73 51.34 223.29 51.89 223.29L55.82 223.29C56.36 223.29 56.8 223.73 56.8 224.27C56.8 224.82 56.36 225.26 55.82 225.26Z" />
							</g>
							<g id="Group 2440">
								<path id="Path 4709" class="shp4" d="M55.82 219.36L51.89 219.36C51.34 219.36 50.9 218.92 50.9 218.38C50.9 217.83 51.34 217.39 51.89 217.39L55.82 217.39C56.36 217.39 56.8 217.83 56.8 218.38C56.8 218.92 56.36 219.36 55.82 219.36Z" />
							</g>
							<g id="Group 2441">
								<path id="Path 4710" class="shp4" d="M55.82 213.46L51.89 213.46C51.34 213.46 50.9 213.02 50.9 212.48C50.9 211.94 51.34 211.49 51.89 211.49L55.82 211.49C56.36 211.49 56.8 211.94 56.8 212.48C56.8 213.02 56.36 213.46 55.82 213.46Z" />
							</g>
							<g id="Group 2442">
								<path id="Path 4711" class="shp4" d="M89.24 225.26L85.31 225.26C84.76 225.26 84.32 224.82 84.32 224.27C84.32 223.73 84.76 223.29 85.31 223.29L89.24 223.29C89.78 223.29 90.22 223.73 90.22 224.27C90.22 224.82 89.78 225.26 89.24 225.26Z" />
							</g>
							<g id="Group 2443">
								<path id="Path 4712" class="shp4" d="M89.24 219.36L85.31 219.36C84.76 219.36 84.32 218.92 84.32 218.38C84.32 217.83 84.76 217.39 85.31 217.39L89.24 217.39C89.78 217.39 90.22 217.83 90.22 218.38C90.22 218.92 89.78 219.36 89.24 219.36Z" />
							</g>
							<g id="Group 2444">
								<path id="Path 4713" class="shp4" d="M89.24 213.46L85.31 213.46C84.76 213.46 84.32 213.02 84.32 212.48C84.32 211.94 84.76 211.49 85.31 211.49L89.24 211.49C89.78 211.49 90.22 211.94 90.22 212.48C90.22 213.02 89.78 213.46 89.24 213.46Z" />
							</g>
						</g>
					</g>
				</g>
				<g id="head line">
					<path id="Rectangle 15" class="shp3" d="M2 81L134 81C135.11 81 136 81.89 136 83L136 83C136 84.11 135.11 85 134 85L2 85C0.89 85 0 84.11 0 83L0 83C0 81.89 0.89 81 2 81Z" />
					<text id="Why Choose Us" style="transform: matrix(1,0,0,1,0,45)" >
						<tspan x="0" y="0" class="txt5">Why Choose Us</tspan>
					</text>
				</g>
			</g>
			<g id="Illustration">
				<path id="Ellipse 13" class="shp6" d="M1185.5 208C1128.26 208 1082 161.74 1082 104.5C1082 47.26 1128.26 1 1185.5 1C1242.74 1 1289 47.26 1289 104.5C1289 161.74 1242.74 208 1185.5 208Z" />
				<path id="Rectangle 135" class="shp7" d="M1129 100L1243 100C1245.76 100 1248 102.23 1248 105L1248 105C1248 107.76 1245.76 110 1243 110L1129 110C1126.23 110 1124 107.76 1124 105L1124 105C1124 102.23 1126.23 100 1129 100Z" />
				<path id="Rectangle 136" class="shp7" d="M1191 48L1191 162C1191 164.76 1188.76 167 1186 167L1186 167C1183.23 167 1181 164.76 1181 162L1181 48C1181 45.23 1183.23 43 1186 43L1186 43C1188.76 43 1191 45.23 1191 48Z" />
				<g id="illustration">
					<g id="Background Complete">
						<g id="Group 2542">
							<path id="Ellipse 2" class="shp8" d="M740.37 161.65C713.36 161.65 691.53 139.82 691.53 112.81C691.53 85.81 713.36 63.98 740.37 63.98C767.38 63.98 789.21 85.81 789.21 112.81C789.21 139.82 767.38 161.65 740.37 161.65Z" />
							<path id="Ellipse 3" class="shp9" d="M775.56 146.85C757.34 165.08 727.88 165.08 709.66 146.85C691.43 128.63 691.43 99.17 709.66 80.95C727.88 62.73 757.34 62.73 775.56 80.95C793.78 99.17 793.78 128.63 775.56 146.85Z" />
							<path id="Ellipse 4" class="shp4" d="M759.02 154.36C736.65 163.43 711.23 152.69 702.15 130.31C693.08 107.94 703.82 82.52 726.2 73.45C748.57 64.37 773.99 75.12 783.06 97.49C792.14 119.86 781.39 145.28 759.02 154.36Z" />
							<g id="Group 2541">
								<path id="Rectangle 101" class="shp10" d="M742.05 73.41L743.17 73.41L743.17 80.03L742.05 80.03L742.05 73.41Z" />
								<path id="Rectangle 102" class="shp10" d="M721.88 79.12L722.85 78.56L726.16 84.29L725.19 84.85L721.88 79.12Z" />
								<path id="Rectangle 103" class="shp10" d="M707.26 94.14L707.82 93.17L713.55 96.48L713 97.45L707.26 94.14Z" />
								<path id="Rectangle 104" class="shp10" d="M702.12 113.34L708.74 113.34L708.74 114.46L702.12 114.46L702.12 113.34Z" />
								<path id="Rectangle 105" class="shp10" d="M707.26 133.66L713 130.35L713.55 131.32L707.82 134.63L707.26 133.66Z" />
								<path id="Rectangle 106" class="shp10" d="M721.88 148.69L725.19 142.96L726.15 143.51L722.85 149.25L721.88 148.69Z" />
								<path id="Rectangle 107" class="shp10" d="M742.05 147.77L743.17 147.77L743.17 154.39L742.05 154.39L742.05 147.77Z" />
								<path id="Rectangle 108" class="shp10" d="M759.06 143.52L760.03 142.96L763.34 148.69L762.37 149.25L759.06 143.52Z" />
								<path id="Rectangle 109" class="shp10" d="M771.66 131.32L772.22 130.35L777.95 133.66L777.39 134.63L771.66 131.32Z" />
								<path id="Rectangle 110" class="shp10" d="M776.48 113.34L783.1 113.34L783.1 114.46L776.48 114.46L776.48 113.34Z" />
								<path id="Rectangle 111" class="shp10" d="M771.66 96.48L777.39 93.17L777.95 94.14L772.22 97.45L771.66 96.48Z" />
								<path id="Rectangle 112" class="shp10" d="M759.06 84.29L762.37 78.56L763.33 79.12L760.03 84.85L759.06 84.29Z" />
								<path id="Rectangle 113" class="shp10" d="M729.93 137.56L749.08 99.9L750.08 100.41L730.92 138.06L729.93 137.56Z" />
								<path id="Rectangle 114" class="shp11" d="M738.91 99.21L740.37 98.91L748.53 139.71L747.07 140L738.91 99.21Z" />
							</g>
						</g>
						<g id="Group 2548">
							<path id="Rectangle 115" class="shp8" d="M1067.05 98.56L1194.64 98.56L1194.64 498.96L1067.05 498.96L1067.05 98.56Z" />
							<path id="Rectangle 116" class="shp4" d="M1085.17 118.49L1176.52 118.49L1176.52 372.71L1085.17 372.71L1085.17 118.49Z" />
							<g id="Group 2543">
								<path id="Path 4755" class="shp8" d="M1096.37 539.26L1082.39 539.26L1082.39 498.96L1107.27 498.96L1096.37 539.26Z" />
								<path id="Path 4756" class="shp9" d="M1107.27 498.96L1103.25 513.81L1082.38 513.81L1082.38 498.96L1107.27 498.96Z" />
							</g>
							<g id="Group 2544">
								<path id="Path 4757" class="shp8" d="M1165.31 539.26L1179.3 539.26L1179.3 498.96L1154.42 498.96L1165.31 539.26Z" />
								<path id="Path 4758" class="shp9" d="M1154.41 498.96L1158.43 513.81L1179.3 513.81L1179.3 498.96L1154.41 498.96Z" />
							</g>
							<g id="Group 2545">
								<path id="Path 4759" class="shp12" d="M1176.52 390.84L1097.69 390.84L1097.69 470.13" />
								<path id="Path 4760" class="shp12" d="M1097.69 481.45L1176.52 481.45L1176.52 403.67" />
								<path id="Path 4989" class="shp9" d="M1112.49 446.19L1106.52 446.19L1106.52 423.31L1112.49 423.31L1112.49 446.19Z" />
							</g>
							<g id="Group 2546">
								<path id="Path 4761" class="shp12" d="M1085.17 390.84L1163.99 390.84L1163.99 470.13" />
								<path id="Path 4762" class="shp12" d="M1163.99 481.45L1085.17 481.45L1085.17 403.67" />
								<path id="Rectangle 118" class="shp9" d="M1149.19 423.31L1155.16 423.31L1155.16 446.19L1149.19 446.19L1149.19 423.31Z" />
							</g>
							<g id="Group 2547">
								<path id="Rectangle 119" class="shp9" d="M1085.17 199.67L1176.52 199.67L1176.52 202.39L1085.17 202.39L1085.17 199.67Z" />
								<path id="Rectangle 120" class="shp9" d="M1085.17 254.86L1176.52 254.86L1176.52 257.58L1085.17 257.58L1085.17 254.86Z" />
								<path id="Rectangle 121" class="shp9" d="M1085.17 310.04L1176.52 310.04L1176.52 312.76L1085.17 312.76L1085.17 310.04Z" />
							</g>
							<path id="Rectangle 122" class="shp10" d="M1128.82 118.49L1132.86 118.49L1132.86 372.71L1128.82 372.71L1128.82 118.49Z" />
						</g>
						<g id="Group 2558">
							<g id="Group 2551">
								<g id="Group 2550">
									<g id="Group 2549">
										<path id="Path 4763" class="shp8" d="M839.72 386.36L843.29 407.73L867.42 538.06L871.31 538.06L853.76 407.73L851.17 386.36L839.72 386.36Z" />
									</g>
								</g>
								<path id="Path 4764" class="shp9" d="M851.17 386.36L839.72 386.36L843.29 407.73L853.76 407.73L851.17 386.36Z" />
							</g>
							<g id="Group 2554">
								<g id="Group 2553">
									<g id="Group 2552">
										<path id="Path 4765" class="shp8" d="M763.93 538.06L767.82 538.06L791.96 407.73L795.52 386.36L784.08 386.36L781.48 407.73L763.93 538.06Z" />
									</g>
								</g>
								<path id="Path 4766" class="shp9" d="M784.08 386.36L781.48 407.73L791.96 407.73L795.52 386.36L784.08 386.36Z" />
							</g>
							<g id="Group 2557">
								<g id="Group 2556">
									<g id="Group 2555">
										<path id="Path 4767" class="shp8" d="M691.55 538.06L695.44 538.06L719.57 407.73L723.13 386.36L711.69 386.36L709.1 407.73L691.55 538.06Z" />
									</g>
								</g>
								<path id="Path 4768" class="shp9" d="M709.1 407.73L719.57 407.73L723.13 386.36L711.69 386.36L709.1 407.73Z" />
							</g>
							<path id="Path 4769" class="shp8" d="M697.72 396.4L874.56 396.4L874.56 382.06L808.36 377.77L786.11 249.43L704.46 249.43L697.72 396.4Z" />
							<path id="Path 4770" class="shp9" d="M697.72 396.4L707.36 396.4L713.64 249.43L704.46 249.43L697.72 396.4Z" />
						</g>
					</g>
					<g id="Shadow">
						<g id="Group 2559">
							<path id="Ellipse 5" class="shp8" d="M951.5 651.02C840.06 651.02 749.99 635.92 749.99 617.24C749.99 598.56 840.06 583.46 951.5 583.46C1062.93 583.46 1153.01 598.56 1153.01 617.24C1153.01 635.92 1062.93 651.02 951.5 651.02Z" />
						</g>
						<g id="Group 2560">
							<path id="Ellipse 6" class="shp8" d="M711.6 631.48C670.51 631.48 637.3 624.48 637.3 615.81C637.3 607.14 670.51 600.13 711.6 600.13C752.68 600.13 785.89 607.14 785.89 615.81C785.89 624.48 752.68 631.48 711.6 631.48Z" />
						</g>
						<g id="Group 2561">
							<path id="Ellipse 7" class="shp8" d="M1175.43 631.48C1134.34 631.48 1101.13 624.48 1101.13 615.81C1101.13 607.14 1134.34 600.13 1175.43 600.13C1216.52 600.13 1249.73 607.14 1249.73 615.81C1249.73 624.48 1216.52 631.48 1175.43 631.48Z" />
						</g>
					</g>
					<g id="Floor">
						<path id="Line 4" class="shp13" d="M629 539.26L1274 539.26L629 539.26Z" />
					</g>
					<g id="Desk">
						<g id="Group 2566">
							<g id="Group 2565">
								<g id="Group 2562">
									<path id="Path 4990" class="shp14" d="M872.38 329.01L986.7 329.01L986.7 539.04L872.38 539.04L872.38 329.01Z" />
									<path id="Rectangle 124" class="shp7" d="M872.38 329.01L986.7 329.01L986.7 342.7L872.38 342.7L872.38 329.01Z" />
								</g>
								<path id="Rectangle 125" class="shp14" d="M641.35 317.96L1035.79 317.96L1035.79 329.01L641.35 329.01L641.35 317.96Z" />
								<g id="Group 2563">
									<path id="Path 4771" class="shp14" d="M665.73 329.01L665.36 342.7L660.54 539.04L651.81 539.04L651.81 329.01L665.73 329.01Z" />
									<path id="Path 4772" class="shp15" d="M651.81 329.01L665.73 329.01L665.36 342.7L651.81 342.7L651.81 329.01Z" />
								</g>
								<g id="Group 2564">
									<path id="Rectangle 126" class="shp16" d="M986.7 329.01L1025.44 329.01L1025.44 539.04L986.7 539.04L986.7 329.01Z" />
									<path id="Rectangle 127" class="shp15" d="M986.7 329.01L1025.44 329.01L1025.44 342.7L986.7 342.7L986.7 329.01Z" />
								</g>
							</g>
						</g>
					</g>
					<g id="Plant">
						<g id="Group 2583">
							<g id="Group 2569">
								<path id="Path 4773" class="shp15" d="M756.79 453.74C751.73 448.78 745.2 442.8 737.47 444.94C730.2 446.94 727.41 454.88 726.11 461.5C724.43 470.02 723.13 478.63 721.77 487.21C720.41 495.88 719.12 504.55 717.87 513.24C717.17 518.14 716.47 523.04 715.79 527.94C715.45 530.39 715.11 532.85 714.77 535.3C714.43 537.7 714.03 540.1 713.9 542.53C713.86 543.3 715.07 543.42 715.24 542.68C716.18 538.59 716.56 534.34 717.16 530.19C717.77 526.01 718.37 521.84 718.98 517.67C720.19 509.38 721.45 501.09 722.7 492.81C723.95 484.52 725.24 476.24 726.56 467.96C727.68 460.94 728.21 452.22 734.44 447.59C737.85 445.05 742.2 445.02 746.07 446.5C750.17 448.06 753.44 450.99 756.64 453.89C756.74 453.99 756.89 453.83 756.79 453.74Z" />
								<g id="Group 2568">
									<path id="Path 4774" class="shp17" d="M749.87 448.68C749.87 448.68 739.53 444.96 734.43 452.5C729.33 460.04 735.43 479.23 782.49 490.05C782.49 490.05 781.25 469.51 771.17 447.51C761.08 425.51 743.1 433.84 749.87 448.68Z" />
									<g id="Group 2567">
										<path id="Path 4775" class="shp15" d="M779.78 486.91C779.13 485.58 778.22 484.34 777.42 483.09C776.63 481.88 775.83 480.67 775.03 479.47C774.42 478.57 773.81 477.67 773.19 476.78C773.23 476.56 773.25 476.33 773.28 476.1C773.33 475.7 773.38 475.29 773.44 474.88C773.55 474 773.68 473.12 773.81 472.24C773.94 471.36 774.09 470.49 774.25 469.62C774.42 468.72 774.51 467.67 774.87 466.84C774.93 466.7 774.68 466.64 774.66 466.8C774.61 467.32 774.38 467.85 774.24 468.36C774.13 468.75 774.03 469.15 773.93 469.55C773.7 470.44 773.48 471.33 773.28 472.23C773.1 473.06 772.94 473.89 772.8 474.73C772.73 475.13 772.67 475.54 772.61 475.94C771.78 474.74 770.92 473.56 770.04 472.39C767.54 469.1 764.9 465.94 762.16 462.85C762.17 462.81 762.2 462.8 762.2 462.76C762.45 457.81 762.33 452.92 763.43 448.06C763.46 447.93 763.26 447.85 763.23 447.98C762.2 452.55 761.17 457.34 761.47 462.05C760.49 460.96 759.5 459.87 758.49 458.79C756.2 456.33 753.87 453.9 751.48 451.53C751.39 451.43 751.23 451.57 751.33 451.67C755.29 455.94 759.06 460.38 762.73 464.91C759.87 464.82 756.96 465.02 754.12 465.23C750.93 465.47 747.76 465.87 744.59 466.31C744.46 466.33 744.5 466.54 744.64 466.52C747.79 466.05 750.97 465.8 754.15 465.67C757.22 465.54 760.27 465.68 763.34 465.67C765.32 468.13 767.28 470.6 769.22 473.1C769.08 473.09 768.93 473.09 768.78 473.09C768.06 473.08 767.33 473.06 766.61 473.08C765.18 473.1 763.75 473.2 762.33 473.32C759.41 473.57 756.5 473.98 753.64 474.62C753.5 474.65 753.54 474.85 753.68 474.83C756.57 474.51 759.47 474.23 762.38 474.13C763.76 474.08 765.15 474.08 766.54 474.08C767.26 474.08 767.98 474.08 768.7 474.09C769.14 474.1 769.53 474.14 769.89 473.98C771.16 475.62 772.42 477.27 773.68 478.92C774.67 480.23 775.66 481.56 776.63 482.9C777.62 484.26 778.51 485.75 779.61 487.03C779.69 487.13 779.83 487.02 779.78 486.91Z" />
										<path id="Path 4776" class="shp15" d="M754.37 459.36C752.72 459.1 751.01 459.12 749.34 459.12C747.66 459.12 745.98 459.17 744.3 459.23C744.15 459.23 744.16 459.45 744.31 459.44C746.01 459.32 747.72 459.29 749.42 459.31C751.07 459.34 752.72 459.49 754.36 459.45C754.42 459.45 754.42 459.37 754.37 459.36Z" />
										<path id="Path 4777" class="shp15" d="M769.14 463.16C769.33 461.55 769.53 459.94 769.88 458.35C769.91 458.2 769.69 458.16 769.67 458.31C769.43 459.89 769.12 461.46 768.89 463.05C768.77 463.84 768.66 464.63 768.57 465.43C768.48 466.15 768.31 466.94 768.37 467.67C768.39 467.81 768.61 467.82 768.65 467.69C768.84 466.98 768.82 466.18 768.89 465.45C768.96 464.69 769.05 463.92 769.14 463.16Z" />
										<path id="Path 4778" class="shp15" d="M766.04 445.35C765.63 446.92 765.22 448.5 764.94 450.09C764.79 450.9 764.66 451.71 764.56 452.52C764.45 453.3 764.31 454.12 764.4 454.9C764.41 454.96 764.5 454.97 764.52 454.91C764.75 454.18 764.79 453.39 764.89 452.64C765 451.86 765.12 451.08 765.25 450.3C765.54 448.66 765.83 447.04 766.24 445.42C766.28 445.29 766.08 445.22 766.04 445.35Z" />
									</g>
								</g>
							</g>
							<g id="Group 2571">
								<path id="Path 4779" class="shp15" d="M704.77 540.79C704.51 537.83 704.22 534.87 703.91 531.91C703.29 526.05 702.57 520.2 701.79 514.36C701 508.53 700.25 502.7 699.32 496.89C698.89 494.23 698.45 491.51 697.52 488.96C696.73 486.78 695.42 484.8 693.13 484.01C687.6 482.1 683.86 487.84 681.63 491.9C681.56 492.02 681.73 492.11 681.81 492C683.15 490.08 686.85 484.68 691.05 484.93C693.87 485.1 696.14 487.1 697.49 494.15C700.87 511.7 703.92 547.33 704.27 549.67C704.46 550.9 705.34 550.85 705.34 549.52C705.36 546.61 705.02 543.69 704.77 540.79Z" />
								<path id="Path 4780" class="shp17" d="M683.12 489.71C683.12 489.71 687.96 472.63 677.26 481.17C659.45 495.39 658.82 526.33 658.82 526.33C658.82 526.33 690.47 507.94 694.41 495.82C700.27 477.75 683.12 489.71 683.12 489.71Z" />
								<g id="Group 2570">
									<path id="Path 4781" class="shp15" d="M689.11 498.1C686.62 498.61 684.11 498.94 681.6 499.3C680.41 499.47 679.22 499.64 678.04 499.8C677.23 499.91 676.42 499.99 675.61 500.09C677.97 496.84 680.35 493.6 682.61 490.29C682.7 490.16 682.5 490.03 682.4 490.13C680.52 492.04 678.78 494.11 677.11 496.24C676.64 494.91 676.17 493.59 675.71 492.27C675.17 490.74 674.59 489.22 674.2 487.64C674.17 487.51 673.96 487.57 674 487.7C674.43 489.27 674.73 490.87 675.15 492.44C675.56 493.95 676.02 495.45 676.56 496.93C675.4 498.43 674.28 499.97 673.2 501.53C672.66 499.99 671.98 498.49 671.51 496.92C671.46 496.79 671.26 496.86 671.3 496.99C671.87 498.72 672.18 500.52 672.71 502.27C671.98 503.33 671.25 504.39 670.56 505.46C669.28 507.44 668.08 509.45 666.9 511.48C666.71 511.58 666.6 511.73 666.62 511.95C664.62 515.41 662.72 518.92 660.84 522.46C660.78 522.59 660.96 522.69 661.03 522.57C662.91 519.07 665 515.66 667.17 512.32C667.18 512.31 667.19 512.32 667.19 512.31C667.42 512.19 667.95 512.17 668.23 512.11C668.59 512.04 668.96 511.96 669.32 511.88C670.14 511.7 670.95 511.49 671.77 511.28C673.37 510.89 674.96 510.51 676.59 510.23C676.72 510.2 676.66 510 676.53 510.02C674.61 510.39 672.69 510.61 670.75 510.83C669.84 510.94 668.93 511.05 668.02 511.2C667.98 511.2 667.93 511.21 667.89 511.22C669.03 509.49 670.18 507.77 671.35 506.07C672.5 504.41 673.68 502.76 674.87 501.11C675.96 500.96 677.05 500.67 678.14 500.46C679.37 500.23 680.59 499.99 681.82 499.75C684.27 499.26 686.71 498.71 689.17 498.31C689.3 498.28 689.24 498.08 689.11 498.1Z" />
									<path id="Path 4782" class="shp15" d="M670.08 499.79C669.94 499.34 669.8 498.88 669.66 498.43C669.36 497.48 669.13 496.53 668.93 495.56C668.91 495.43 668.7 495.49 668.73 495.62C668.94 496.59 669.16 497.55 669.38 498.51C669.6 499.46 669.84 500.46 670.21 501.35C670.3 501.58 670.64 501.48 670.57 501.24C670.44 500.75 670.24 500.27 670.08 499.79Z" />
									<path id="Path 4783" class="shp15" d="M692.35 494.15C690.9 494.36 689.45 494.47 687.99 494.59C686.53 494.72 685.09 494.92 683.64 495.14C683.57 495.15 683.56 495.27 683.65 495.27C685.11 495.17 686.55 495.05 688 494.86C689.45 494.68 690.9 494.46 692.35 494.36C692.49 494.35 692.48 494.13 692.35 494.15Z" />
								</g>
							</g>
							<g id="Group 2574">
								<path id="Path 4784" class="shp15" d="M728.06 519.16C727.5 506.58 726.7 494.02 725.44 481.49C724.81 475.25 724.1 469.01 723.23 462.8C722.36 456.71 721.31 450.63 719.62 444.71C718.33 440.18 716.63 435.64 713.6 431.96C710.62 428.33 706.21 426.06 701.44 426.65C695.93 427.33 691.5 430.8 687.66 434.57C683.36 438.8 679.42 443.41 675.43 447.94C674.43 449.08 673.43 450.23 672.43 451.39C672.35 451.49 672.5 451.64 672.59 451.54C676.48 447.06 680.53 442.71 684.77 438.55C688.68 434.71 692.71 430.51 698.14 428.93C700.65 428.19 703.37 427.99 705.9 428.74C707.95 429.35 709.74 430.57 711.21 432.1C714.26 435.28 715.97 439.58 717.19 443.74C720.58 455.3 721.79 467.43 723.04 479.37C724.32 491.5 725.18 503.67 725.79 515.85C726.41 528.1 726.88 540.36 728.06 552.58C728.21 554.08 728.4 555.59 728.59 557.09C728.72 558.1 730.29 558.1 730.21 557.05C729.21 544.43 728.63 531.8 728.06 519.16Z" />
								<g id="Group 2573">
									<path id="Path 4785" class="shp17" d="M686.97 435.93C686.97 435.93 694.15 422.63 685.66 418.37C677.17 414.11 648.76 445.82 640.46 492.19C640.46 492.19 686.35 471.89 701.93 451.66C717.52 431.43 699.85 426.97 686.97 435.93Z" />
									<g id="Group 2572">
										<path id="Path 4786" class="shp15" d="M693.72 446.74C688.56 446.76 683.41 446.35 678.26 446.39C679.22 445.28 680.19 444.17 681.16 443.07C682.51 441.55 684.05 440.07 685.19 438.39C685.27 438.28 685.11 438.13 685.01 438.21C683.58 439.33 682.35 440.8 681.1 442.12C679.81 443.5 678.53 444.87 677.25 446.26C675.28 448.39 673.35 450.56 671.42 452.73C671.41 452.52 671.41 452.31 671.41 452.11C671.42 451.2 671.41 450.3 671.42 449.4C671.43 447.65 671.45 445.9 671.47 444.15C671.5 440.6 671.5 437.04 671.74 433.5C671.75 433.36 671.54 433.37 671.53 433.51C671.28 437.06 670.92 440.6 670.74 444.17C670.65 445.92 670.61 447.66 670.59 449.42C670.58 450.32 670.57 451.22 670.57 452.13C670.58 452.62 670.56 453.14 670.6 453.65C670.29 453.99 669.98 454.32 669.68 454.66C665.57 459.36 661.65 464.22 657.84 469.18C657.84 468.9 657.8 468.62 657.78 468.35C657.72 467.81 657.66 467.26 657.6 466.72C657.46 465.53 657.3 464.36 657.12 463.18C656.96 462.07 656.78 460.97 656.6 459.86C656.39 458.63 656.09 457.37 655.99 456.11C655.98 455.96 655.75 456 655.78 456.15C656.05 457.38 656.1 458.68 656.21 459.92C656.32 461.06 656.43 462.19 656.53 463.33C656.63 464.47 656.73 465.6 656.85 466.74C656.91 467.28 656.96 467.83 657.01 468.37C657.04 468.65 657.08 468.92 657.11 469.19C657.16 469.55 657.22 469.6 657.34 469.84C656.68 470.69 656.02 471.54 655.37 472.4C652.77 475.85 650.22 479.33 647.66 482.81C647.58 482.91 647.73 483.06 647.82 482.95C650.24 479.8 652.73 476.7 655.25 473.63C657.14 473.71 659.06 473.57 660.95 473.54C662.94 473.51 664.93 473.5 666.92 473.49C667.06 473.49 667.05 473.28 666.91 473.28C664.92 473.31 662.93 473.34 660.94 473.35C659.13 473.36 657.28 473.27 655.46 473.37C657.68 470.67 659.93 467.99 662.17 465.32C662.99 464.34 663.82 463.37 664.64 462.4C665.38 462.55 666.19 462.47 666.94 462.47C667.85 462.47 668.75 462.47 669.66 462.47C671.35 462.46 673.05 462.42 674.74 462.4C678.24 462.34 681.75 462.23 685.25 462.22C685.39 462.22 685.38 462.01 685.24 462.01C681.74 461.96 678.23 461.81 674.72 461.72C673.03 461.68 671.33 461.62 669.63 461.6C668.73 461.59 667.83 461.58 666.92 461.57C666.41 461.57 665.88 461.53 665.35 461.55C667.28 459.26 669.2 456.98 671.13 454.7C671.18 454.67 671.22 454.63 671.24 454.57C673.12 452.35 675 450.14 676.9 447.94C677.16 447.63 677.43 447.34 677.69 447.04C683.04 447.2 688.38 446.85 693.72 446.96C693.86 446.96 693.85 446.74 693.72 446.74Z" />
										<path id="Path 4787" class="shp15" d="M691.08 455.86C690.66 455.87 690.24 455.87 689.83 455.87C689.71 455.87 689.71 456.06 689.83 456.07C690.25 456.07 690.67 456.07 691.08 456.08C691.22 456.08 691.22 455.86 691.08 455.86Z" />
										<path id="Path 4788" class="shp15" d="M688.3 455.88C686.65 455.86 685 455.82 683.34 455.77C682.52 455.75 681.69 455.72 680.87 455.69C680.13 455.67 679.28 455.55 678.56 455.72C678.48 455.74 678.49 455.85 678.56 455.88C679.28 456.09 680.13 456.02 680.87 456.04C681.7 456.05 682.53 456.07 683.35 456.07C685 456.09 686.65 456.1 688.31 456.09C688.44 456.09 688.44 455.88 688.3 455.88Z" />
										<path id="Path 4789" class="shp15" d="M673.87 471.37C670.52 470.89 667.12 470.42 663.73 470.45C663.68 470.45 663.68 470.52 663.73 470.52C667.1 470.84 670.48 471.03 673.82 471.57C673.96 471.59 674.01 471.38 673.87 471.37Z" />
										<path id="Path 4790" class="shp15" d="M660.08 456.6C660.05 456.31 660.01 456.01 659.97 455.72C659.89 455.05 659.78 454.39 659.68 453.73C659.48 452.47 659.26 451.21 659.02 449.96C659 449.84 658.8 449.87 658.81 449.99C658.97 451.29 659.11 452.59 659.23 453.89C659.29 454.53 659.34 455.17 659.4 455.8C659.45 456.38 659.4 457.1 659.65 457.62C659.75 457.82 660.05 457.74 660.1 457.55C660.19 457.24 660.12 456.92 660.08 456.6Z" />
									</g>
								</g>
							</g>
							<g id="Group 2577">
								<path id="Path 4791" class="shp15" d="M727.61 418.86C725.97 415.8 723.88 411.76 719.78 412.02C716.39 412.23 714.87 415.68 714.14 418.54C711.91 427.37 711.75 436.68 711.32 445.73C710.4 464.86 709.57 484.01 709.45 503.16C709.42 508.47 709.43 513.78 709.48 519.08C709.53 524.5 709.52 529.94 709.86 535.35C709.9 535.86 710.65 535.84 710.66 535.33C710.69 530.7 710.52 526.06 710.51 521.43C710.49 516.91 710.52 512.39 710.6 507.87C710.74 498.72 710.99 489.57 711.33 480.42C711.66 471.33 712.06 462.24 712.45 453.15C712.64 448.6 712.83 444.06 713.04 439.52C713.24 435.12 713.43 430.71 713.93 426.33C714.21 423.88 714.58 421.43 715.09 419.01C715.45 417.29 715.98 415.43 717.2 414.11C718.82 412.36 721.27 412.49 723.19 413.67C725.17 414.9 726.38 416.94 727.43 418.97C727.49 419.09 727.68 418.98 727.61 418.86Z" />
								<g id="Group 2576">
									<path id="Path 4792" class="shp17" d="M726.5 417.4C726.5 417.4 723.13 405.49 730.58 411.44C742.99 421.35 743.43 442.9 743.43 442.9C743.43 442.9 721.38 430.09 718.64 421.65C714.55 409.06 726.5 417.4 726.5 417.4Z" />
									<g id="Group 2575">
										<path id="Path 4793" class="shp15" d="M738.79 434.07C738.59 433.74 738.37 433.42 738.16 433.09C738.22 432.76 738.16 432.39 738.16 432.08C738.16 431.56 738.15 431.05 738.17 430.54C738.19 429.53 738.23 428.53 738.28 427.53C738.28 427.39 738.07 427.39 738.06 427.53C738.01 428.52 737.97 429.5 737.94 430.49C737.93 430.98 737.91 431.48 737.89 431.97C737.89 432.16 737.86 432.38 737.85 432.6C736.98 431.26 736.1 429.93 735.18 428.62C734.91 428.24 734.63 427.87 734.36 427.5C734.16 426.23 734.28 424.89 734.29 423.61C734.31 422.23 734.33 420.85 734.38 419.46C734.38 419.33 734.17 419.33 734.16 419.47C734.12 420.91 734.05 422.34 733.98 423.78C733.93 424.8 733.83 425.84 733.9 426.86C731.76 423.97 729.51 421.17 727.22 418.4C727.14 418.3 726.98 418.43 727.05 418.53C728.47 420.32 729.83 422.16 731.16 424.02C728.56 423.41 725.93 423.07 723.29 422.69C723.16 422.67 723.1 422.87 723.24 422.89C726.03 423.31 728.77 424.01 731.52 424.62C731.55 424.63 731.56 424.61 731.58 424.61C732.64 426.1 733.68 427.6 734.72 429.09C735.14 429.7 735.55 430.32 735.97 430.94C735.93 430.93 735.89 430.93 735.85 430.92C735.56 430.88 735.28 430.84 734.99 430.8C734.38 430.73 733.77 430.68 733.16 430.63C731.89 430.53 730.61 430.47 729.34 430.4C729.2 430.39 729.21 430.61 729.34 430.61C730.6 430.64 731.84 430.73 733.09 430.87C733.75 430.94 734.41 431.03 735.06 431.11C735.35 431.14 735.64 431.17 735.92 431.21C736.01 431.22 736.09 431.23 736.18 431.25C736.88 432.29 737.59 433.33 738.3 434.37C739.54 436.21 740.65 438.18 741.98 439.96C742.06 440.07 742.21 439.97 742.16 439.86C741.23 437.85 739.95 435.95 738.79 434.07Z" />
										<path id="Path 4794" class="shp15" d="M733.3 420.62C733.3 420.16 733.31 419.7 733.31 419.23C733.3 418.26 733.29 417.28 733.42 416.32C733.44 416.16 733.21 416.14 733.21 416.29C733.21 417.26 733.11 418.22 733.06 419.18C733.04 419.66 733.04 420.15 733.04 420.63C733.04 420.85 733.04 421.07 733.04 421.3C733.04 421.52 733.01 421.78 733.09 421.99C733.12 422.08 733.24 422.07 733.27 421.98C733.34 421.78 733.31 421.56 733.3 421.35C733.3 421.11 733.3 420.86 733.3 420.62Z" />
										<path id="Path 4795" class="shp15" d="M730.57 425.55C729.75 425.41 728.91 425.37 728.08 425.3C727.17 425.22 726.27 425.14 725.36 425.03C725.21 425.01 725.18 425.23 725.34 425.24C727.08 425.35 728.81 425.66 730.55 425.72C730.65 425.72 730.67 425.57 730.57 425.55Z" />
									</g>
								</g>
								<path id="Path 4796" class="shp15" d="M737.5 425.63C737.56 425.72 737.52 425.98 737.52 426.08L737.52 426.47C737.52 426.75 737.52 427.02 737.51 427.3C737.51 427.58 737.51 427.85 737.51 428.13C737.51 428.35 737.45 428.66 737.55 428.86C737.56 428.89 737.62 428.89 737.63 428.86C737.68 428.75 737.67 428.63 737.67 428.51C737.67 428.38 737.67 428.26 737.67 428.13C737.67 427.85 737.66 427.57 737.66 427.3C737.66 427.02 737.66 426.74 737.66 426.46L737.66 426.08C737.66 425.96 737.61 425.72 737.68 425.62C737.82 425.43 737.36 425.43 737.5 425.63Z" />
							</g>
							<g id="Group 2580">
								<path id="Path 4797" class="shp15" d="M728.12 482.37C723.49 478.89 719.32 473.88 713.08 473.64C707.93 473.44 704.33 477.31 702.26 481.63C701.18 483.9 700.43 486.32 699.74 488.74C698.81 492 697.93 495.27 697.11 498.56C695.5 505.02 694.11 511.55 692.98 518.12C692.36 521.78 691.77 525.46 691.31 529.14C690.84 532.86 690.23 536.68 690.23 540.43C690.23 541.08 691.25 541.21 691.38 540.56C692.01 537.47 692.27 534.29 692.72 531.18C693.18 528.04 693.65 524.91 694.18 521.79C695.25 515.54 696.47 509.32 697.88 503.14C699.21 497.31 700.52 491.38 702.4 485.7C703.75 481.63 705.91 476.87 710.31 475.41C717 473.18 723.08 478.85 727.98 482.52C728.09 482.6 728.23 482.45 728.12 482.37Z" />
								<g id="Group 2579">
									<path id="Path 4798" class="shp17" d="M723.32 479.04C723.32 479.04 719.05 466.83 725.23 464.44C734.5 460.85 758.75 488.17 754 530.02C754 530.02 735.26 519.7 721.43 508.08C707.59 496.47 704.05 481.3 710.15 477.38C716.24 473.46 723.32 479.04 723.32 479.04Z" />
									<g id="Group 2578">
										<path id="Path 4799" class="shp15" d="M751.2 521.05C750.66 519.57 749.71 518.2 748.95 516.83C748.16 515.4 747.36 513.97 746.53 512.55C744.92 509.8 743.32 507.04 741.67 504.31C741.4 503.87 741.13 503.43 740.86 502.99C740.89 502.82 740.92 502.66 740.96 502.5L741.24 501.28C741.44 500.38 741.6 499.46 741.77 498.55C742.11 496.75 742.42 494.94 742.9 493.18C742.94 493.05 742.72 493.01 742.69 493.14C742.31 494.93 741.74 496.69 741.21 498.45C740.95 499.31 740.68 500.17 740.45 501.04C740.37 501.34 740.29 501.64 740.21 501.94C738.22 498.67 736.2 495.42 734.01 492.28C734.19 491.87 734.18 491.41 734.23 490.94C734.29 490.33 734.37 489.71 734.44 489.1C734.6 487.73 734.76 486.35 734.96 484.98C735.36 482.28 735.76 479.6 736.43 476.96C736.46 476.83 736.25 476.79 736.22 476.92C735.55 479.56 734.83 482.19 734.33 484.87C734.08 486.18 733.85 487.49 733.67 488.81C733.59 489.47 733.52 490.14 733.45 490.8C733.43 491 733.4 491.2 733.37 491.4C732.7 490.45 732.03 489.5 731.32 488.58C729.18 485.76 726.97 483.01 724.73 480.27C724.64 480.17 724.47 480.29 724.55 480.4C728.48 485.2 731.81 490.53 735.09 495.79C735.71 496.77 736.31 497.76 736.91 498.74C736.71 498.72 736.51 498.69 736.31 498.67C735.53 498.57 734.73 498.52 733.95 498.45C732.37 498.3 730.8 498.16 729.22 498.04C726.06 497.79 722.89 497.59 719.75 497.26C719.61 497.24 719.57 497.45 719.71 497.46C722.9 497.83 726.08 498.34 729.25 498.79C730.82 499.02 732.38 499.23 733.95 499.43C735.03 499.56 736.38 499.89 737.56 499.8C738.8 501.81 740.05 503.82 741.28 505.84C741.01 505.8 740.72 505.81 740.44 505.81C739.92 505.8 739.39 505.8 738.87 505.8C737.89 505.8 736.91 505.8 735.93 505.8C733.9 505.8 731.87 505.84 729.83 505.84C729.7 505.84 729.72 506.05 729.86 506.05C731.92 506.08 733.97 506.18 736.03 506.29C737 506.34 737.98 506.4 738.95 506.46C739.44 506.5 739.93 506.54 740.41 506.57C740.84 506.6 741.3 506.68 741.7 506.52C742.75 508.24 743.82 509.94 744.87 511.66C745.84 513.24 746.82 514.82 747.82 516.38C748.83 517.95 749.76 519.76 751 521.16C751.08 521.25 751.25 521.18 751.2 521.05Z" />
										<path id="Path 4800" class="shp15" d="M742.27 487.22C742.13 488.56 741.77 489.9 741.44 491.2C741.09 492.56 740.7 493.9 740.26 495.23C740.2 495.41 740.45 495.49 740.51 495.31C740.92 493.99 741.3 492.66 741.62 491.32C741.95 489.97 742.16 488.6 742.48 487.26C742.52 487.12 742.29 487.08 742.27 487.22Z" />
										<path id="Path 4801" class="shp15" d="M728.51 495.4C728.22 495.1 727.89 495.07 727.49 495.02C726.9 494.93 726.31 494.85 725.72 494.77C724.62 494.62 723.52 494.5 722.42 494.37C720.14 494.11 717.85 493.89 715.57 493.6C715.44 493.58 715.4 493.79 715.54 493.81C717.69 494.07 719.83 494.39 721.98 494.68C723.03 494.81 724.09 494.96 725.14 495.09C725.65 495.15 726.16 495.2 726.67 495.26C727.23 495.32 727.89 495.3 728.41 495.56C728.51 495.6 728.58 495.47 728.51 495.4Z" />
										<path id="Path 4802" class="shp15" d="M742.24 513.8C741.17 513.71 740.08 513.68 739 513.64C738.45 513.62 737.91 513.61 737.36 513.59C737.1 513.58 736.84 513.58 736.58 513.57C736.25 513.56 735.88 513.59 735.56 513.51C735.4 513.47 735.39 513.74 735.55 513.72C735.85 513.67 736.2 513.73 736.5 513.75C736.79 513.76 737.07 513.78 737.35 513.8C737.9 513.83 738.44 513.86 738.99 513.9C740.07 513.96 741.15 514.03 742.23 514.03C742.36 514.03 742.37 513.81 742.24 513.8Z" />
										<path id="Path 4803" class="shp15" d="M748.85 509.12C748.97 508.51 749.09 507.89 749.2 507.28C749.42 506.07 749.64 504.87 749.87 503.66C749.89 503.52 749.69 503.49 749.66 503.62C749.39 504.8 749.13 505.97 748.86 507.15C748.73 507.73 748.6 508.32 748.47 508.91C748.42 509.18 748.36 509.46 748.31 509.73C748.25 510.01 748.16 510.3 748.21 510.59C748.23 510.69 748.37 510.77 748.44 510.67C748.73 510.24 748.75 509.62 748.85 509.12Z" />
									</g>
								</g>
							</g>
							<g id="Group 2582">
								<g id="Group 2581">
									<path id="Path 4804" class="shp14" d="M746.35 545.19L745.31 562.49L742.23 613.56L679.09 613.56L676.01 562.49L674.97 545.19L746.35 545.19Z" />
									<path id="Path 4805" class="shp7" d="M746.35 545.19L745.31 562.49L676.01 562.49L674.97 545.19L746.35 545.19Z" />
								</g>
								<path id="Rectangle 128" class="shp14" d="M670.13 532.95L751.19 532.95L751.19 550.26L670.13 550.26L670.13 532.95Z" />
							</g>
						</g>
					</g>
					<g id="Character 3">
						<g id="Group 2632">
							<g id="Group 2594">
								<g id="Group 2588">
									<g id="Group 2584">
										<path id="Path 4806" class="shp18" d="M942.01 528.51C942.01 528.51 933.29 592.62 933.29 592.66C933.13 604.93 932.77 615.67 932.07 621.21C932.07 621.24 932.07 621.27 932.06 621.3C931.79 623.4 931.48 624.73 931.1 625.08C931.07 625.11 931.06 625.14 931.03 625.16C927.35 627.58 829.33 629.18 825.9 628.08C822.44 627 825.31 617.1 829.06 614.01C832.85 610.91 870.09 593.51 870.09 593.51L879.41 529.44L942.01 528.51Z" />
										<path id="Path 4807" class="shp7" d="M933.15 600.55C932.96 609.44 932.62 616.9 932.07 621.22C932.07 621.25 932.07 621.28 932.05 621.31C931.8 623.39 931.49 624.73 931.1 625.07C931.07 625.1 931.07 625.13 931.04 625.15C927.35 627.58 829.33 629.17 825.89 628.08C822.44 627 825.31 617.11 829.06 614.01C830.87 612.54 840.33 607.79 849.71 603.23C846.75 605.57 843.76 608.44 845.11 609.6C847.53 611.64 906.96 609.5 933.15 600.55Z" />
										<path id="Path 4808" class="shp7" d="M855.24 600.55C855.24 600.55 872.59 592.65 902.33 606.93" />
									</g>
									<g id="Group 2587">
										<g id="Group 2585">
											<path id="Path 4809" class="shp7" d="M956.65 572.7L871.24 571.33L914.22 250.82L972.12 250.82L956.65 572.7Z" />
										</g>
										<path id="Path 4810" class="shp14" d="M972.12 250.82L961.15 479.13L932.35 250.82L972.12 250.82Z" />
										<g id="Group 2586">
											<path id="Path 4811" class="shp14" d="M952.54 557.85C949.97 557.57 947.32 557.57 944.73 557.48C942.26 557.38 939.77 557.34 937.29 557.3C932.15 557.21 927 557.12 921.86 557.07C911.69 556.97 901.52 556.9 891.35 556.93C885.57 556.94 879.82 557.11 874.05 557.37C873.86 557.38 873.86 557.65 874.05 557.66C884.27 558.27 894.49 558.43 904.74 558.56C914.91 558.68 925.07 558.72 935.24 558.71C938.09 558.71 940.95 558.69 943.8 558.66C946.69 558.63 949.66 558.66 952.54 558.39C952.89 558.36 952.89 557.89 952.54 557.85Z" />
											<path id="Path 4812" class="shp14" d="M925.15 267.53C920.11 303.92 915.45 340.37 910.5 376.77C905.58 413.03 900.35 449.24 895.09 485.45C892.13 505.76 889.02 526.06 886.3 546.41C886.26 546.72 886.72 546.85 886.78 546.53C893.45 510.4 898.73 473.99 903.99 437.64C909.24 401.43 914.12 365.16 918.6 328.85C921.12 308.45 923.55 288.03 925.62 267.58C925.65 267.32 925.19 267.26 925.15 267.53Z" />
										</g>
									</g>
								</g>
								<g id="Group 2593">
									<g id="Group 2589">
										<path id="Path 4813" class="shp18" d="M972.2 529.45C972.2 529.45 980.41 590.57 980.41 590.61C980.49 602.88 980.78 613.62 981.44 619.17C981.44 619.2 981.44 619.23 981.46 619.26C981.71 621.35 982.01 622.69 982.39 623.04C982.41 623.07 982.43 623.1 982.46 623.12C986.12 625.57 1073.64 627.79 1077.08 626.72C1080.54 625.66 1077.74 615.75 1074.01 612.63C1070.24 609.5 1043.6 591.87 1043.6 591.87L1033.32 527.83L972.2 529.45Z" />
										<path id="Path 4814" class="shp7" d="M1077.09 626.73C1073.65 627.8 986.13 625.57 982.45 623.12C982.42 623.11 982.42 623.06 982.39 623.03C982 622.69 981.71 621.35 981.45 619.25C981.44 619.22 981.44 619.19 981.44 619.16C980.84 614.07 980.62 610.79 980.52 599.77C994.82 608.82 1031.82 612.86 1043.58 610.29C1054 607.99 1051.72 599.6 1049.53 595.82C1057.6 601.19 1071.37 610.44 1074 612.63C1077.74 615.74 1080.54 625.66 1077.09 626.73Z" />
										<path id="Path 4815" class="shp7" d="M1049.53 595.82C1049.53 595.82 1020.07 591.02 999.93 606.93" />
									</g>
									<g id="Group 2592">
										<path id="Path 4816" class="shp7" d="M920.1 250.76C920.1 250.76 920.1 250.78 920.11 250.82C920.37 252.01 924.42 270.8 928.62 286.94C931.67 298.73 934.81 309.1 936.61 310.17C938.65 311.38 948.6 315.78 951.93 317.17L964.94 572.09L1053.32 570.11L1007.16 292.05L999.35 250.76L920.1 250.76Z" />
										<g id="Group 2591">
											<g id="Group 2590">
												<path id="Path 4817" class="shp14" d="M931.32 307.53C938.42 309.98 945.27 313.45 951.82 317.08C952.08 317.23 951.91 317.62 951.63 317.5C944.72 314.54 937.68 311.7 930.95 308.36C930.42 308.1 930.77 307.35 931.32 307.53Z" />
												<path id="Path 4818" class="shp14" d="M929.24 260.23C929.26 259.99 929.68 259.93 929.68 260.19C929.62 268.39 930.14 275.61 930.83 283.27C931.15 286.83 934.02 306.49 940.18 305.05C941.22 304.81 941.74 303.8 941.91 302.24C942.1 300.37 941.4 298.07 941.09 296.21C940.4 292.1 939.85 287.97 939.5 283.81C938.84 276.05 938.81 268.29 939.75 260.55C939.78 260.3 940.15 260.31 940.15 260.57C940.14 271.32 940.42 282.04 942.03 292.68C942.8 297.79 945.37 305.49 940.03 306.28C934.58 307.08 931.05 294.18 930.39 290.66C928.53 280.81 928.46 270.19 929.24 260.23Z" />
												<path id="Path 4819" class="shp14" d="M940.02 305.58C940.58 306.9 941.03 308.28 941.41 309.66C941.7 310.73 942.11 311.89 941.98 313.01C941.96 313.23 941.67 313.25 941.56 313.1C940.83 312.18 940.53 310.93 940.12 309.84C939.66 308.58 939.16 307.33 938.72 306.06C938.44 305.21 939.68 304.77 940.02 305.58Z" />
											</g>
											<path id="Path 4820" class="shp14" d="M1048.27 557.94C1045.69 557.72 1043.04 557.81 1040.45 557.78C1037.97 557.76 1035.49 557.78 1033.01 557.81C1027.86 557.88 1022.71 557.93 1017.57 558.03C1007.4 558.22 997.24 558.44 987.07 558.76C981.3 558.94 975.55 559.28 969.79 559.7C969.61 559.71 969.61 559.98 969.8 559.99C980.03 560.3 990.26 560.17 1000.5 560.01C1010.67 559.84 1020.83 559.59 1031 559.29C1033.85 559.21 1036.7 559.1 1039.55 558.99C1042.44 558.88 1045.41 558.83 1048.28 558.47C1048.62 558.43 1048.61 557.96 1048.27 557.94Z" />
											<path id="Path 4821" class="shp14" d="M1009.55 523.61C1008.79 515.83 1007.97 508.04 1007.16 500.26C1005.55 484.84 1003.88 469.43 1002.19 454.02C998.8 423.19 995.31 392.37 991.78 361.55C989.8 344.27 988.17 326.92 985.92 309.66C985.9 309.51 985.66 309.51 985.67 309.67C987.01 325.26 988.92 340.81 990.5 356.38C992.07 371.8 993.59 387.22 995.19 402.63C998.39 433.46 1001.7 464.29 1005.06 495.1C1006 503.76 1006.96 512.41 1007.98 521.05C1009 529.71 1010.19 538.34 1011.27 546.99C1011.3 547.2 1011.63 547.2 1011.61 546.98C1010.9 539.19 1010.32 531.4 1009.55 523.61Z" />
										</g>
									</g>
								</g>
								<path id="Path 4822" class="shp7" d="M913.53 285.97L928.62 286.94L972.58 289.8L1007.16 292.05L999.35 250.76L920.1 250.76C920.1 250.76 920.1 250.78 920.11 250.82L914.22 250.82L913.53 285.97Z" />
							</g>
							<g id="Group 2631">
								<g id="Group 2595">
									<path id="Path 4823" class="shp19" d="M934.64 89.52C920.2 101.9 924.22 119.95 918.19 129.74C914.5 135.73 902.5 142.06 900.11 148.96C896.18 160.29 905.79 164.36 903.64 170.52C900.6 179.25 888.91 178.57 886.81 192.86C884.7 207.14 900.42 222.33 937.71 226.44C975 230.56 995.49 216.9 996.82 204.79C998.16 192.67 985.75 188.64 984.91 179.59C984.37 173.81 992.03 169.78 992.42 159.14C992.8 148.5 982.43 145.04 980.95 136C979.46 126.93 984.25 105.01 970.97 93.79C957.69 82.58 941.77 83.42 934.64 89.52Z" />
									<path id="Path 4824" class="shp19" d="M936.31 89.85C932.2 92.74 929.07 96.46 926.73 100.91C924.3 105.52 922.69 110.53 921.4 115.57C920.63 118.54 919.93 121.6 918.5 124.34C917.27 126.72 915.47 128.73 913.5 130.52C909.46 134.17 904.65 136.94 901.02 141.04C897.59 144.93 894.92 150.12 896.29 155.41C897.04 158.29 898.94 160.64 900.12 163.32C901.23 165.87 901.68 169.03 899.5 171.14C897.63 172.95 894.93 173.78 892.81 175.26C890.74 176.71 888.88 178.5 887.37 180.54C884.3 184.7 882.97 189.77 883.94 194.88C886.13 206.48 897.02 213.08 907.06 217.23C908.47 217.81 909.87 218.37 911.28 218.93C911.5 219.02 911.68 218.71 911.46 218.61C901.38 214.1 889.68 208.8 885.8 197.52C884.06 192.45 884.63 187.08 887.54 182.56C888.94 180.38 890.79 178.48 892.87 176.95C894.9 175.45 897.24 174.53 899.3 173.11C901.39 171.67 902.59 169.56 902.47 166.98C902.34 164.26 901.01 161.88 899.7 159.57C898.3 157.12 897.12 154.65 897.32 151.76C897.5 149.05 898.76 146.49 900.3 144.3C903.44 139.86 908.09 136.94 912.25 133.58C916.44 130.19 919.8 126.28 921.33 121.03C922.1 118.36 922.58 115.63 923.25 112.94C923.87 110.45 924.59 107.98 925.47 105.57C927.23 100.8 929.72 96.18 933.36 92.57C934.31 91.63 935.32 90.79 936.44 90.05C936.56 89.96 936.44 89.76 936.31 89.85Z" />
									<path id="Path 4825" class="shp19" d="M998.48 195.9C998.02 193.94 997.15 192.06 995.9 190.47C994.6 188.83 993.03 187.44 991.6 185.93C990.24 184.49 988.94 182.88 988.55 180.89C988.07 178.51 989.07 176.22 990.19 174.17C991.36 172.02 992.67 169.98 993.53 167.67C994.36 165.45 994.82 163.09 994.95 160.72C995.22 155.76 993.76 151.06 991.2 146.85C989.92 144.77 988.49 142.79 987.21 140.72C985.79 138.44 984.67 136.05 983.9 133.47C982.22 127.86 981.86 121.94 980.48 116.24C979.08 110.41 976.98 104.76 974.43 99.33C974.37 99.2 974.17 99.32 974.23 99.45C976.54 104.35 978.28 109.47 979.53 114.73C980.71 119.72 981.17 124.81 982.05 129.85C982.48 132.32 983.03 134.78 983.94 137.12C984.79 139.31 985.95 141.35 987.18 143.35C989.7 147.46 992.3 151.52 993 156.39C993.68 161.21 992.87 166.04 990.59 170.35C988.63 174.05 985.88 178.14 987.6 182.48C989.05 186.16 992.56 188.36 994.88 191.4C997.45 194.76 998.19 199.08 997.4 203.19C995.4 213.63 984.93 218.81 975.13 219.33C974.83 219.35 974.84 219.81 975.15 219.81C983.66 219.7 992.93 215.96 996.93 207.99C998.78 204.29 999.43 199.95 998.48 195.9Z" />
								</g>
								<g id="Group 2596">
									<path id="Path 4826" class="shp18" d="M943 163.88C940.35 174.72 908.85 276.33 902.62 277.74C884.25 281.88 862.2 284.91 862.53 269.85C863.04 246.21 907.48 183.97 928.77 163.29C942.79 149.67 945.61 153.17 943 163.88Z" />
								</g>
								<g id="Group 2598">
									<g id="Group 2597">
										<path id="Path 4827" class="shp18" d="M943 163.88C940.35 174.72 908.85 276.33 902.62 277.74C884.25 281.88 862.2 284.91 862.53 269.85C863.04 246.21 907.48 183.97 928.77 163.29C942.79 149.67 945.61 153.17 943 163.88Z" />
										<path id="Path 4828" class="shp10" d="M862.39 275.27C854.77 248.48 919.2 169.68 931.73 159.66C944.27 149.63 945.91 152.76 943.35 165.43C940.8 178.1 910.35 274.01 903.91 277.49C897.48 280.96 865.85 287.41 862.39 275.27Z" />
									</g>
								</g>
								<path id="Path 4829" class="shp20" d="M915.06 224.68L907.98 273.34C907.98 273.34 987.28 274.51 1006.96 273.12C1006.96 273.12 990.91 182.15 969.74 159.17C959.15 147.68 946.72 148.54 938.8 156.57C936.8 158.61 912.88 190.22 910.36 202.29C908.16 212.95 915.06 224.68 915.06 224.68Z" />
								<g id="Group 2599">
									<path id="Path 4830" class="shp10" d="M960.96 152.43C960.96 152.43 951.73 406.08 956.64 418.13C961.54 430.17 1035.25 442.12 1035.25 442.12C1035.25 442.12 1013.62 260.57 993.99 205.47C975.8 154.39 960.96 152.43 960.96 152.43Z" />
									<path id="Path 4831" fill-rule="evenodd" class="shp21" d="M1010.69 324.44C1011.03 335.28 1010.53 347.55 1008.22 349.81C1003.9 354.03 992.39 353.67 988.79 353.64C985.21 353.62 972.29 353.6 969.26 346.96C967.93 344.03 967.58 328.89 967.61 323.53C967.63 321.48 968.07 311.77 968.25 309.73C968.21 309.5 968.33 309.01 968.52 309.02C971.22 309.05 980.6 309.97 990.04 309.97C999.17 309.97 1010.18 308.4 1010.21 308.4C1010.52 308.49 1010.53 319.24 1010.69 324.44ZM968.32 309.83C968.56 309.86 968.85 309.9 969.16 309.94C969.15 309.72 969.13 309.54 969.11 309.39C969.08 309.21 968.31 309.18 968.28 309.46C968.27 309.52 968.26 309.61 968.25 309.73C968.26 309.79 968.28 309.83 968.32 309.83ZM969.16 309.94C969.27 311.6 969.18 315.16 969.24 315.91C989.99 318.57 1002.83 316.34 1009.48 315.06C1009.48 313.06 1009.48 311.5 1009.52 309.5C1006.66 310.22 997.06 311.36 989.87 311.36C983.18 311.36 973.34 310.43 969.16 309.94ZM1006.96 348.57C1009.25 345.94 1009.54 338.36 1009.53 333.84C1009.53 327.6 1009.51 322.62 1009.49 316.39C993.52 320.1 975.94 318.27 969.27 316.92C969.29 317.19 969.15 330.35 969.27 334.54C969.43 339.89 969.6 344.74 971.66 347.52C973.42 349.9 978.39 352.3 989.82 352.28C998.08 352.27 1005.05 350.77 1006.96 348.57Z" />
								</g>
								<g id="Group 2600">
									<path id="Path 4832" class="shp10" d="M912.36 419.25C908.28 428.91 883.89 435.46 883.89 435.46L914.62 223.79C914.62 223.79 908.27 214.38 910.33 202.5C912.4 190.62 937.26 156.19 941.27 154.41C941.27 154.41 935.59 176.64 932.65 208.4C925.75 282.8 916.81 408.73 912.36 419.25Z" />
									<path id="Path 4833" class="shp15" d="M918.17 186.42C920.38 182.89 922.65 179.4 924.83 175.85C924.89 175.75 924.73 175.63 924.66 175.73C922.44 178.64 920.28 181.59 918.13 184.55C918.84 182.97 919.53 181.37 920.17 179.75C920.25 179.57 919.99 179.41 919.9 179.6C918.91 181.69 918.02 183.81 917.15 185.94C915.27 188.61 913.51 191.37 912.08 194.31C909.06 200.52 907.76 207.31 909.4 214.1C909.85 215.98 910.51 217.79 911.37 219.51C911.96 220.69 913.87 223.23 913.85 223.3C912.62 230.24 911.68 237.26 910.7 244.24C909.71 251.3 908.71 258.36 907.89 265.44C907.42 269.46 907.12 273.5 906.54 277.49C906.52 277.64 906.74 277.7 906.77 277.55C907.27 274.07 908.03 270.62 908.65 267.16C909.26 263.69 909.85 260.21 910.41 256.74C911.54 249.71 912.54 242.66 913.56 235.62C914.14 231.63 914.77 227.65 915.22 223.65C915.27 223.21 913.47 220.36 912.94 219.27C912.22 217.81 911.64 216.26 911.19 214.69C910.29 211.51 909.98 208.13 910.36 204.84C911.13 198.09 914.62 192.08 918.17 186.42Z" />
									<path id="Path 4834" class="shp21" d="M941.08 155.19C938.74 158.73 936.38 162.24 933.96 165.72C931.54 169.19 929.16 172.69 926.69 176.13L926.64 175.31L932.58 181.53L933.07 182.05L932.55 182.55C930.05 184.98 927.5 187.35 924.97 189.74L925.18 189.12C926.1 195.57 927.08 202.01 927.9 208.48C928.77 214.94 929.59 221.41 930.31 227.89C929.08 221.49 927.95 215.07 926.88 208.64C925.76 202.21 924.8 195.77 923.78 189.33L923.72 188.97L923.99 188.71C926.5 186.3 929.01 183.88 931.55 181.5L931.52 182.52L925.69 176.19L925.33 175.8L925.64 175.37C928.14 171.95 930.74 168.61 933.28 165.22C935.84 161.85 938.44 158.51 941.08 155.19Z" />
								</g>
								<g id="Group 2605">
									<path id="Path 4835" class="shp18" d="M967.69 170.42C974.48 179.29 1005.02 214.83 1006.96 217.96C1008.28 220.06 1000.9 229.96 1001.07 231.39C1001.72 237.2 1013.67 274.46 1018.62 270.41C1025.12 265.06 1055.09 227.92 1050.73 211.93C1046.38 195.94 978.18 157.52 967.69 154.41C957.21 151.3 961 161.67 967.69 170.42Z" />
									<g id="Group 2602">
										<path id="Path 4836" class="shp10" d="M1006.17 218.45C1006.21 216.19 970.39 178.14 963.87 165.43C957.35 152.72 960.65 150 977.4 158.17C994.15 166.34 1045.64 196.21 1051.75 211.07C1057.86 225.92 1024.35 266.77 1024.35 266.77L1000.92 227.32C1000.92 227.32 1006.14 220.31 1006.17 218.45Z" />
										<g id="Group 2601">
											<path id="Path 4837" class="shp15" d="M1028.86 255.39C1020.78 240.37 1010.01 225.81 1008.31 223.14C1008.23 223.01 1008.03 223.16 1008.12 223.28C1009.92 225.81 1020.43 243.79 1028.66 255.54C1028.75 255.68 1028.94 255.53 1028.86 255.39Z" />
											<path id="Path 4838" class="shp15" d="M992.91 202C991.42 200.16 990.01 198.26 988.49 196.44C986.95 194.6 985.37 192.78 983.78 190.98C980.57 187.31 977.31 183.72 973.99 180.16C973.94 180.11 973.84 180.19 973.89 180.25C975.6 182.4 977.33 184.53 979.08 186.64L979.05 186.62C977.94 185.7 976.76 184.84 975.58 184.02C975.52 183.98 975.46 184.07 975.51 184.11C976.55 185.13 977.61 186.12 978.73 187.05C979.28 187.5 979.82 187.95 980.36 188.4C980.52 188.52 980.69 188.64 980.85 188.76C981.56 189.6 982.25 190.45 982.97 191.29C984.53 193.13 986.09 194.96 987.69 196.76C989.33 198.59 991.06 200.34 992.73 202.15C992.82 202.24 992.99 202.1 992.91 202Z" />
										</g>
									</g>
									<g id="Group 2604">
										<path id="Path 4839" class="shp18" d="M997.2 280.13C993.71 277.13 999.25 274.74 999.25 274.74C999.25 274.74 990.45 276.26 988.06 271.77C985.76 267.44 992.55 264.79 993.03 264.59C992.56 264.67 984.44 265.85 982.5 261.09C980.48 256.15 987.76 254.66 988.23 254.56C987.76 254.5 981.66 253.52 981.01 249.57C979.88 242.78 997.59 244.09 1001.86 240.52C1001.86 240.52 1001.17 231.65 1001.07 231.39C1001.07 231.39 1002.61 235 1005.58 236.23C1009.26 237.75 1012.62 238.77 1013.95 240.78C1016.14 244.1 1013.83 246.8 1013.83 246.8C1013.83 246.8 1018.71 246.81 1020.35 250.5C1021.2 252.4 1018.9 255.44 1018.9 255.44C1018.9 255.44 1022.81 255.61 1024.07 258.99C1025.09 261.68 1022.63 264.31 1022.63 264.31C1022.63 264.31 1026.31 266.21 1026.45 269.3C1026.76 275.53 1004.67 286.56 997.2 280.13Z" />
										<g id="Group 2603">
											<path id="Path 4840" class="shp15" d="M1022.31 264.78C1022.38 264.74 1022.45 264.83 1022.39 264.89C1016.01 270.29 1007.35 274.26 998.96 274.9C998.69 274.92 998.53 274.48 998.83 274.4C1007.35 272.09 1014.72 269.37 1022.31 264.78Z" />
											<path id="Path 4841" class="shp15" d="M1019.04 255.43C1019.12 255.38 1019.2 255.52 1019.12 255.58C1012.52 261.11 1002.64 265.32 992.89 264.92C992.56 264.9 992.27 264.55 992.66 264.54C999.16 264.32 1012.23 259.59 1019.04 255.43Z" />
											<path id="Path 4842" class="shp15" d="M987.56 254.3C996.92 254.33 1005.35 251.35 1013.57 247.05C1013.67 246.99 1013.74 247.15 1013.66 247.22C1010.22 250.42 1004.69 252.62 1000.25 253.96C996 255.25 991.9 255.56 987.56 254.63C987.39 254.59 987.36 254.3 987.56 254.3Z" />
										</g>
										<path id="Path 4843" class="shp15" d="M1022.88 264.31C1024.45 262.76 1025.63 260.71 1024.95 258.45C1024.65 257.42 1023.95 256.57 1023.05 255.99C1021.93 255.28 1020.28 255.29 1019.48 255.24C1020.9 253.38 1021.63 250.83 1020.35 248.71C1019.75 247.73 1018.82 247.25 1017.72 246.89C1017.13 246.7 1014.65 246.47 1013.94 246.6C1015.13 245.53 1015.74 243.85 1015.56 242.27C1015.35 240.42 1014.14 239.07 1012.59 238.14C1010.81 237.08 1008.74 236.67 1006.79 236.05C1005.77 235.73 1004.76 235.41 1003.84 234.86C1003 234.36 1001.82 233.43 1001.71 232.37C1001.68 232.16 1001.39 232.29 1001.49 232.43C1001.97 233.07 1002.27 233.81 1002.83 234.41C1003.39 235.03 1004.03 235.55 1004.73 236C1006.42 237.07 1008.39 237.51 1010.2 238.32C1011.79 239.03 1013.3 240.07 1014.14 241.64C1015.01 243.25 1014.74 245.17 1013.72 246.64C1013.66 246.7 1013.69 246.83 1013.83 246.83C1014.66 246.86 1016.64 247.37 1017.14 247.61C1018 248.02 1018.86 248.52 1019.32 249.35C1020.37 251.2 1020.03 253.63 1018.9 255.44C1018.86 255.51 1020.89 255.72 1022.32 256.77C1023 257.26 1023.49 258.03 1023.77 258.81C1024.45 260.65 1023.95 262.83 1022.58 264.22C1022.56 264.25 1022.56 264.27 1022.55 264.29L1022.55 264.3C1022.55 264.32 1022.55 264.33 1022.55 264.35C1022.55 264.37 1022.57 264.39 1022.59 264.41L1022.59 264.42C1022.6 264.43 1023.76 265.07 1023.82 265.08C1023.85 265.09 1023.85 265.04 1023.83 265.01C1023.79 264.97 1023.05 264.39 1022.88 264.31Z" />
									</g>
									<path id="Path 4844" class="shp21" d="M962.15 154.47C963.95 158.3 965.71 162.15 967.43 166.02C969.12 169.9 970.88 173.76 972.53 177.66L972.73 178.14L972.29 178.44L965.15 183.26L965.36 182.27C967.29 185.16 969.17 188.1 971.06 191.02L971.25 191.31L971.15 191.62C969.24 197.55 967.39 203.49 965.38 209.38C963.43 215.29 961.42 221.19 959.31 227.05C960.92 221.03 962.63 215.05 964.4 209.08C966.11 203.09 967.98 197.15 969.79 191.2L969.88 191.8C967.96 188.89 966.03 185.99 964.15 183.06L963.76 182.45L964.36 182.06L971.57 177.37L971.33 178.15C969.71 174.24 968.21 170.28 966.65 166.35C965.1 162.41 963.6 158.45 962.15 154.47Z" />
								</g>
								<g id="Group 2611">
									<path id="Path 4845" class="shp7" d="M969.73 161.84C969.37 153.18 958.57 150.91 952.03 150.74C944.28 150.53 939.27 151.73 936.42 159.54C933.41 167.77 932.39 177.06 931.81 185.76C931.71 187.39 929.18 187.27 929.28 185.64C929.94 175.6 930.43 156.96 939.64 150.53C948.12 144.62 971.65 147.28 972.26 161.97C972.33 163.6 969.8 163.46 969.73 161.84L969.73 161.84Z" />
									<g id="Group 2606">
										<path id="Path 4846" class="shp19" d="M924.5 190.19C924.33 193.4 926.8 196.13 930.01 196.29C933.22 196.46 935.96 193.99 936.12 190.77C936.28 187.56 933.81 184.83 930.6 184.67C927.39 184.51 924.66 186.98 924.5 190.19Z" />
										<path id="Path 4847" class="shp10" d="M926.81 190.31C926.71 192.24 928.2 193.88 930.13 193.98C932.06 194.08 933.71 192.59 933.81 190.66C933.9 188.73 932.41 187.08 930.48 186.98C928.55 186.89 926.91 188.37 926.81 190.31Z" />
									</g>
									<g id="Group 2610">
										<g id="Group 2609">
											<g id="Group 2607">
												<path id="Path 4848" class="shp22" d="M963.97 189.76C960.28 214.63 961.92 220.43 964.23 222.99C966.67 225.68 970.26 226.89 970.41 226.94L970.97 225.26L970.69 226.1L970.97 225.26C970.93 225.25 967.66 224.14 965.54 221.8C963.87 219.95 962.07 214.65 965.72 190.02L963.97 189.76Z" />
												<path id="Rectangle 129" class="shp19" d="M967.88 225.73L968.47 224.31C968.71 223.74 969.36 223.47 969.93 223.71L973.51 225.21C974.08 225.45 974.35 226.1 974.11 226.67L973.52 228.08C973.28 228.65 972.63 228.92 972.06 228.68L968.48 227.18C967.91 226.95 967.64 226.29 967.88 225.73Z" />
											</g>
											<g id="Group 2608">
												<path id="Path 4849" class="shp22" d="M979.82 188.62C986.63 206.3 988.89 216.14 986.93 219.59C985.37 222.35 982.43 224.14 982.4 224.15L983.3 225.67C983.44 225.59 986.68 223.62 988.47 220.46C990.8 216.36 988.77 206.95 981.46 187.98L979.82 188.62Z" />
												<path id="Rectangle 130" class="shp19" d="M980.52 227.46L979.64 226.21C979.28 225.71 979.4 225.01 979.9 224.66L983.08 222.42C983.58 222.06 984.27 222.18 984.63 222.68L985.51 223.93C985.87 224.44 985.75 225.13 985.25 225.49L982.07 227.73C981.57 228.09 980.88 227.97 980.52 227.46Z" />
											</g>
										</g>
										<path id="Path 4850" class="shp19" d="M981.98 187.15C981.2 184.69 979.06 178.6 977.53 175.59C976.28 173.12 973.54 171.67 973.54 171.67C973.19 171.67 973 168.59 972.9 166.06C972.82 163.83 972.76 161.23 972.16 160.58C971.57 159.95 970.23 160.05 969.73 160.72C969.2 161.44 969.45 164.03 969.62 166.25C969.82 168.77 969.98 171.86 969.63 171.9C969.63 171.9 967.26 173.76 966.33 176.29C965.29 179.11 963.68 186.5 963.46 188.64C963.18 191.3 964.07 191.52 964.84 191.7C965.93 191.94 966.52 191.15 967.02 188.19C967.83 183.5 968.63 175.68 971.8 175.35L971.79 175.35C974.97 175.32 977.13 183.27 978.64 187.67C979.58 190.43 980.21 190.64 981.27 190.27C982.01 190.01 982.76 189.61 981.98 187.15Z" />
									</g>
								</g>
								<g id="Group 2624">
									<g id="Group 2623">
										<g id="Group 2612">
											<path id="Path 4851" class="shp18" d="M959.15 153.95C958.57 155.44 952.86 165.43 945.73 165.43C941.24 165.43 942.34 150.06 942.34 150.06L942.26 149.1L941.22 135.69L957.9 128.08L960.29 127.1C960.29 127.1 960.33 130.79 960.34 135.39C960.34 135.6 960.34 135.81 960.34 136.04C960.35 136.3 960.36 136.55 960.35 136.79C960.36 137.47 960.37 138.17 960.36 138.87C960.36 139.4 960.36 139.92 960.33 140.48C960.32 141.04 960.3 141.58 960.29 142.14C960.08 147.66 959.39 153.32 959.15 153.95Z" />
											<path id="Path 4852" class="shp19" d="M960.34 135.39C955.13 145.19 946.26 148.22 942.26 149.1L941.22 135.69L957.9 128.08L960.29 127.1C960.29 127.1 960.33 130.79 960.34 135.39Z" />
										</g>
										<g id="Group 2622">
											<path id="Path 4853" class="shp18" d="M924.46 115.72C922.26 139.23 936.1 143.2 941.17 143.67C945.77 144.09 961.49 144.95 966.1 121.79C970.71 98.64 960.48 90.19 950 88.66C939.53 87.13 926.65 92.21 924.46 115.72Z" />
											<g id="Group 2619">
												<path id="Path 4854" class="shp19" d="M932.06 110.48C932.62 110.44 933.12 110.31 933.67 110.21C934.28 110.09 934.79 110.07 935.25 109.61C935.5 109.37 935.5 108.85 935.29 108.59C934.79 107.97 934 107.92 933.26 108.02C932.45 108.14 931.85 108.43 931.3 109.03C930.76 109.61 931.33 110.54 932.06 110.48Z" />
												<path id="Path 4855" class="shp19" d="M948.25 111.11C947.7 111.03 947.2 110.86 946.67 110.72C946.06 110.56 945.56 110.5 945.13 110.01C944.9 109.74 944.94 109.23 945.17 108.98C945.72 108.4 946.5 108.41 947.24 108.57C948.04 108.75 948.61 109.09 949.12 109.73C949.61 110.35 948.98 111.23 948.25 111.11Z" />
												<g id="Group 2614">
													<g id="Group 2613">
														<path id="Path 4856" class="shp19" d="M944.65 116.95C944.67 116.89 944.77 117.03 944.77 117.1C944.62 118.7 944.72 120.56 946.14 121.18C946.18 121.2 946.17 121.28 946.12 121.27C944.36 120.91 944.26 118.44 944.65 116.95Z" />
														<path id="Path 4857" class="shp19" d="M946.19 115.36C948.78 115.32 948.67 120.51 946.27 120.55C943.9 120.58 944.02 115.39 946.19 115.36Z" />
													</g>
													<path id="Path 4858" class="shp19" d="M947.2 115.66C947.65 115.96 948.08 116.49 948.63 116.55C949.26 116.63 949.75 116.1 950.17 115.58C950.21 115.53 950.26 115.58 950.26 115.65C950.25 116.64 949.85 117.65 948.78 117.78C947.8 117.89 947.12 116.99 946.9 115.99C946.85 115.8 947.02 115.53 947.2 115.66Z" />
												</g>
												<g id="Group 2616">
													<g id="Group 2615">
														<path id="Path 4859" class="shp19" d="M934.95 116.48C934.94 116.42 934.83 116.55 934.83 116.62C934.86 118.23 934.62 120.08 933.15 120.59C933.11 120.6 933.11 120.69 933.17 120.68C934.95 120.45 935.24 118 934.95 116.48Z" />
														<path id="Path 4860" class="shp19" d="M933.54 114.78C930.96 114.55 930.68 119.73 933.08 119.95C935.43 120.16 935.71 114.98 933.54 114.78Z" />
													</g>
													<path id="Path 4861" class="shp19" d="M932.44 115.07C932.02 115.32 931.59 115.79 931.1 115.8C930.53 115.81 930.14 115.23 929.8 114.67C929.77 114.61 929.72 114.65 929.72 114.72C929.64 115.71 929.91 116.76 930.85 117C931.71 117.22 932.4 116.4 932.68 115.43C932.74 115.25 932.61 114.96 932.44 115.07Z" />
												</g>
												<path id="Path 4862" class="shp19" d="M943.35 129.74C942.97 130.12 942.6 130.65 942.02 130.71C941.46 130.77 940.8 130.53 940.28 130.35C940.23 130.33 940.18 130.38 940.21 130.43C940.64 131.04 941.53 131.4 942.27 131.26C943 131.11 943.34 130.48 943.5 129.81C943.53 129.71 943.4 129.68 943.35 129.74Z" />
												<g id="Group 2617">
													<path id="Path 4863" class="shp19" d="M936.82 123.7C936.82 123.7 936.41 126.09 936.37 127.22C936.37 127.33 936.64 127.39 937.03 127.42C937.04 127.43 937.05 127.44 937.07 127.43C939.06 127.81 941.09 127.18 942.36 125.59C942.45 125.48 942.31 125.36 942.2 125.43C940.67 126.48 939.01 126.7 937.24 126.67C937.17 126.36 938.08 122.61 937.9 122.59C937.29 122.51 936.05 122.89 935.31 123.08C936.03 118.08 937.54 113.24 938.17 108.25C938.19 108.07 937.94 108.01 937.88 108.16C935.94 113.13 934.99 118.87 934.12 124.01C934.01 124.65 936.36 123.88 936.82 123.7Z" />
												</g>
												<g id="Group 2618">
													<path id="Path 4864" class="shp19" d="M937.8 126.84C937.8 126.84 938.68 128.24 939.98 128.81C940.46 129.03 940.99 129.14 941.56 129.03C942.72 128.82 942.83 127.77 942.69 126.86C942.58 126.11 942.28 125.44 942.28 125.44C942.28 125.44 940.49 126.88 937.8 126.84Z" />
													<path id="Path 4865" class="shp23" d="M939.98 128.81C940.46 129.03 940.99 129.14 941.56 129.03C942.72 128.82 942.83 127.77 942.69 126.86C941.45 126.89 940.18 127.63 939.98 128.81Z" />
												</g>
											</g>
											<path id="Path 4866" class="shp19" d="M925.84 107.4C928.62 108.3 938.48 102.17 942.45 93.34C942.45 93.34 942.99 100.74 949.42 106.7C955.85 112.66 961.95 113.1 961.95 113.1C961.95 113.1 963.86 123.75 965.62 123.97C967.37 124.2 978.43 87.81 947.49 87.4C947.49 87.4 938.43 86.49 932.78 91.77C927.12 97.05 925.84 107.4 925.84 107.4Z" />
											<g id="Group 2621">
												<g id="Group 2620">
													<path id="Path 4867" class="shp18" d="M962.2 120.93C962.2 120.93 967.4 113.6 970.73 115.45C974.06 117.31 970.12 127.97 966.18 129.41C962.25 130.84 960.85 127.23 960.85 127.23L962.2 120.93Z" />
													<path id="Path 4868" class="shp19" d="M969.53 118.48C969.59 118.48 969.6 118.56 969.55 118.59C966.79 119.68 965.32 122.23 964.29 124.87C965.11 123.85 966.23 123.3 967.59 124.29C967.66 124.34 967.59 124.45 967.51 124.43C966.39 124.18 965.57 124.37 964.81 125.27C964.26 125.91 963.89 126.71 963.5 127.45C963.37 127.7 962.92 127.56 963.02 127.28L963.04 127.21C963 123.7 965.75 118.81 969.53 118.48Z" />
												</g>
											</g>
										</g>
									</g>
									<path id="Path 4869" class="shp18" d="M942.22 153.74C941.19 154.27 942.7 173.43 943.35 174.5C943.6 174.9 956.15 164.97 960.34 152.21C960.34 152.21 952.93 148.18 942.22 153.74Z" />
								</g>
								<g id="Group 2630">
									<g id="Group 2626">
										<path id="Rectangle 131" class="shp7" d="M862.88 209.9L920.19 192.05L943.42 266.66L886.1 284.51L862.88 209.9Z" />
										<g id="Group 2625">
											<path id="Rectangle 132" class="shp8" d="M906.24 201.2L879.09 209.69L876.52 201.46L903.67 192.98L906.24 201.2Z" />
											<path id="Path 4870" class="shp8" d="M882.69 199.54L886.03 198.49L884.84 194.7L892.97 192.16L894.16 195.95L897.5 194.91L895.34 188L880.48 192.64L882.69 199.54Z" />
										</g>
									</g>
									<g id="Group 2629">
										<path id="Path 4871" class="shp18" d="M931.3 220.51C934.43 223.48 932.47 227.49 932.47 227.49C932.47 227.49 935.86 228.08 937.8 230.76C940.02 233.83 936.18 238.66 936.18 238.66C936.18 238.66 939.49 239.97 941.26 243.01C943.09 246.17 939.91 251.59 939.91 251.59C939.91 251.59 942.33 254.51 941.97 258.23C941.36 264.59 932.62 268.94 927.1 271.77C921.58 274.59 903.26 277.44 899.83 278.33L881.39 243.04C881.39 243.04 902.55 223.32 909.52 220.92C915.39 218.9 927.79 217.17 931.3 220.51Z" />
										<path id="Path 4872" class="shp18" d="M883.89 240.75C877.57 245.59 858.61 264.29 863.07 273.8C867.52 283.31 882.76 282.35 903.91 277.49L883.89 240.75Z" />
										<g id="Group 2627">
											<path id="Path 4873" class="shp10" d="M883.89 240.75C877.57 245.59 857.62 263.84 862.67 276.05C866.68 285.76 884.62 286.94 905.77 282.08L883.89 240.75Z" />
											<path id="Path 4874" class="shp15" d="M894.89 282.42C888.27 266.7 878.93 251.18 877.5 248.36C877.43 248.23 877.22 248.35 877.3 248.48C878.85 251.18 887.6 270.07 894.67 282.56C894.75 282.7 894.95 282.57 894.89 282.42Z" />
										</g>
										<g id="Group 2628">
											<path id="Path 4875" class="shp15" d="M931.93 227.05C925.17 227.7 918.98 230.32 912.65 232.58C912.51 232.63 912.59 232.85 912.73 232.79C919 230.48 925.65 229.43 932 227.37C932.17 227.31 932.11 227.03 931.93 227.05Z" />
											<path id="Path 4876" class="shp15" d="M935.83 238.26C934.31 238.46 932.85 239.15 931.44 239.73C929.93 240.36 928.42 241.01 926.93 241.69C923.94 243.05 920.98 244.47 918.07 245.98C917.94 246.04 918.01 246.26 918.15 246.2C921.13 244.85 924.13 243.55 927.17 242.33C928.69 241.72 930.21 241.13 931.74 240.54C933.16 239.99 934.71 239.54 935.98 238.68C936.17 238.56 936.06 238.23 935.83 238.26Z" />
											<path id="Path 4877" class="shp15" d="M939.78 251.65C938.45 251.76 937.1 252.61 935.91 253.18C934.56 253.83 933.2 254.47 931.85 255.1C929.13 256.36 926.42 257.62 923.67 258.78C923.53 258.84 923.61 259.06 923.75 259C926.55 257.83 929.37 256.7 932.17 255.5C933.54 254.92 934.91 254.32 936.28 253.72C937.44 253.21 938.95 252.7 939.85 251.78C939.9 251.73 939.85 251.64 939.78 251.65Z" />
										</g>
										<path id="Path 4878" class="shp15" d="M883.06 241.06C880.77 242.9 878.88 244.23 876.78 246.4C876.29 246.91 875.79 247.42 875.3 247.94C875.08 248.07 874.87 248.21 874.66 248.35C873.76 248.94 872.87 249.56 872.03 250.23C870.41 251.53 868.9 252.97 867.46 254.47C867.35 254.58 867.52 254.73 867.62 254.63C869.14 253.18 870.79 251.87 872.51 250.67C872.73 250.51 872.97 250.36 873.19 250.2C872.36 251.12 871.56 252.05 870.81 253.03C868.81 255.63 866.95 258.24 865.28 261.08C865.2 261.21 865.4 261.32 865.48 261.19C868.56 256.24 882 243.01 883.47 241.43C884.97 239.8 884.18 240.16 883.06 241.06Z" />
									</g>
								</g>
							</g>
						</g>
					</g>
					<g id="Heart">
						<g id="Group 2633">
							<path id="Path 4879" class="shp17" d="M1088.52 132.04C1072.44 153.32 1053.23 162.66 1053.23 162.66C1053.23 162.66 1034.03 153.32 1017.95 132.04C1005.53 115.6 1006.14 89.86 1023.91 84.29C1043.57 78.13 1053.23 107.71 1053.23 107.71C1053.23 107.71 1063.03 77.94 1082.56 84.29C1100.27 90.05 1100.94 115.6 1088.52 132.04Z" />
							<path id="Path 4880" class="shp4" d="M1039.37 149.67L1034.01 127.36L1030.51 135.22L1008.87 135.22L1008.87 132.71L1028.88 132.71L1034.72 119.56L1038.9 136.95L1044.8 100.91L1050.02 129.42L1054.14 117.51L1060.64 137L1062.08 132.69L1097.62 132.69L1097.62 135.21L1063.89 135.21L1060.63 144.95L1054.09 125.34L1049.26 139.29L1044.94 115.65L1039.37 149.67Z" />
						</g>
					</g>
					<g id="Bag">
						<g id="Group 2636">
							<g id="Group 2635">
								<g id="Group 2634">
									<path id="Path 4881" class="shp17" d="M1181.79 533.49L1181.79 551.25L1174.7 551.25L1174.7 541.14L1150.12 541.14L1150.12 551.25L1143.03 551.25L1143.03 533.49L1181.79 533.49Z" />
								</g>
								<path id="Rectangle 133" class="shp24" d="M1143.03 543.44L1150.12 543.44L1150.12 551.25L1143.03 551.25L1143.03 543.44Z" />
								<path id="Rectangle 134" class="shp24" d="M1174.7 543.44L1181.79 543.44L1181.79 551.25L1174.7 551.25L1174.7 543.44Z" />
							</g>
							<path id="Path 4882" class="shp17" d="M1214.98 613.09L1109.87 613.09L1115.67 547.34L1209.19 547.34L1214.98 613.09Z" />
							<path id="Path 4883" class="shp25" d="M1162.43 613.09L1109.87 613.09L1115.67 547.34L1162.43 547.34L1162.43 613.09Z" />
							<path id="Path 4884" class="shp26" d="M1178.61 576.39L1178.61 584.04L1166.25 584.04L1166.25 596.4L1158.61 596.4L1158.61 584.04L1146.25 584.04L1146.25 576.39L1158.61 576.39L1158.61 564.04L1166.25 564.04L1166.25 576.39L1178.61 576.39Z" />
						</g>
					</g>
				</g>
			</g>
		</g>
	</g>
</svg>