<svg xmlns="http://www.w3.org/2000/svg" viewBox="0 0 27 43" width="27" height="43">
	<defs>
		<clipPath clipPathUnits="userSpaceOnUse" id="cp1">
			<path d="M-795 -1659L805 -1659L805 4253L-795 4253Z" />
		</clipPath>
	</defs>
	<style>
		tspan { white-space:pre }
		.shp0 { fill: #ffffff } 
	</style>
	<g id="Medical Healthcare Landing Page" clip-path="url(#cp1)">
		<g id="My Services">
			<g id="2">
				<g id="Group 2429">
					<g id="icon 1">
						<g id="Blood test">
							<g id="Group 79">
								<path id="Path 37" fill-rule="evenodd" class="shp0" d="M26.01 12.6C26.01 17.67 22.97 22.24 18.31 24.22L18.31 28.01L16.91 28.01L16.91 38.51C16.91 40.45 15.34 42.01 13.41 42.01C11.47 42.01 9.91 40.45 9.91 38.51L9.91 28.01L8.51 28.01L8.51 24.22C2.69 21.76 -0.41 15.38 1.25 9.29C2.91 3.2 8.82 -0.73 15.08 0.11C21.34 0.95 26.01 6.29 26.01 12.6ZM15.51 28.01L11.31 28.01L11.31 38.51C11.31 39.67 12.25 40.61 13.41 40.61C14.57 40.61 15.51 39.67 15.51 38.51L15.51 28.01ZM16.91 24.7C14.62 25.38 12.19 25.38 9.91 24.7L9.91 26.61L16.91 26.61L16.91 24.7ZM24.61 12.6C24.61 6.42 19.6 1.4 13.41 1.4C7.22 1.4 2.21 6.42 2.21 12.6C2.21 18.79 7.22 23.81 13.41 23.81C19.59 23.8 24.6 18.79 24.61 12.6Z" />
							</g>
						</g>
					</g>
				</g>
			</g>
		</g>
	</g>
</svg>